<svg width="353" height="620" viewBox="0 0 353 620" fill="none" xmlns="http://www.w3.org/2000/svg">
<path d="M248.645 618.188L351.089 618.242L351.143 516.663" stroke="#F0F0F0" stroke-width="2" stroke-miterlimit="10"/>
<path d="M1.88016 516.478L1.82642 618.058L100.901 618.11" stroke="#F0F0F0" stroke-width="2" stroke-miterlimit="10"/>
<path d="M248.971 2.0443L351.415 2.0985L351.361 103.678" stroke="#F0F0F0" stroke-width="2" stroke-miterlimit="10"/>
<path d="M2.09863 103.493L2.15237 1.91372L101.227 1.96614" stroke="#F0F0F0" stroke-width="2" stroke-miterlimit="10"/>
<path d="M21.8928 599.849C24.7182 599.85 27.0075 602.142 27.006 604.967C27.0045 607.793 24.7128 610.082 21.8874 610.08C19.062 610.079 16.7727 607.787 16.7742 604.962C16.7757 602.136 19.0674 599.847 21.8928 599.849Z" fill="#B51700" stroke="#F0F0F0"/>
<path d="M21.1337 588.382C20.5682 588.382 20.0158 588.282 19.4765 588.082C18.9285 587.873 18.4327 587.573 17.9892 587.182C17.537 586.79 17.1806 586.312 16.9199 585.747C16.6505 585.183 16.5159 584.54 16.5163 583.818C16.5168 582.967 16.7042 582.233 17.0787 581.616C17.4531 580.991 17.9405 580.526 18.541 580.223L19.493 581.605C19.1449 581.761 18.8707 581.965 18.6705 582.217C18.4615 582.469 18.3178 582.738 18.2394 583.024C18.1522 583.311 18.1086 583.593 18.1084 583.871C18.1082 584.323 18.1993 584.719 18.3819 585.058C18.5644 585.388 18.8035 585.666 19.0992 585.892C19.3949 586.118 19.7254 586.288 20.0907 586.401C20.4561 586.505 20.8215 586.558 21.1869 586.558C21.5958 586.558 21.9917 586.493 22.3745 586.363C22.7487 586.233 23.0838 586.05 23.3797 585.816C23.6669 585.573 23.8976 585.286 24.0718 584.956C24.2373 584.618 24.3202 584.248 24.3204 583.849C24.3205 583.562 24.2728 583.271 24.1773 582.975C24.0817 582.68 23.9296 582.406 23.721 582.154C23.5123 581.902 23.2427 581.706 22.9121 581.567L23.7612 580.095C24.2222 580.278 24.6136 580.578 24.9352 580.995C25.2569 581.403 25.5003 581.864 25.6653 582.377C25.8304 582.889 25.9127 583.398 25.9125 583.902C25.9121 584.562 25.7769 585.166 25.507 585.713C25.2283 586.26 24.8626 586.733 24.41 587.133C23.9487 587.524 23.4352 587.832 22.8696 588.057C22.2952 588.274 21.7166 588.383 21.1337 588.382Z" fill="#797979"/>
<path d="M25.0224 589.353L25.8315 589.354L25.8282 595.57L16.5625 595.565L16.5657 589.466L17.3748 589.467L17.3721 594.654L20.713 594.655L20.7154 590.133L21.4853 590.134L21.4829 594.656L25.0195 594.658L25.0224 589.353Z" fill="#797979"/>
<path fill-rule="evenodd" clip-rule="evenodd" d="M16.9199 585.747C17.1806 586.312 17.537 586.79 17.9892 587.182C18.4327 587.573 18.9285 587.873 19.4765 588.082C20.0158 588.282 20.5682 588.382 21.1337 588.382C21.7166 588.383 22.2952 588.274 22.8696 588.057C23.4352 587.832 23.9487 587.524 24.41 587.133C24.8626 586.733 25.2283 586.26 25.507 585.713C25.7769 585.166 25.9121 584.562 25.9125 583.902C25.9127 583.398 25.8304 582.889 25.6653 582.377C25.5003 581.864 25.2569 581.403 24.9352 580.995C24.8518 580.887 24.7636 580.786 24.6708 580.694C24.5933 580.617 24.5126 580.545 24.4286 580.479C24.2253 580.319 24.0028 580.191 23.7612 580.095L22.9121 581.567C23.0961 581.645 23.2612 581.74 23.4074 581.852C23.5239 581.942 23.6284 582.042 23.721 582.154C23.9296 582.406 24.0817 582.68 24.1773 582.975C24.2728 583.271 24.3205 583.562 24.3204 583.849C24.3202 584.248 24.2373 584.618 24.0718 584.956C23.8976 585.286 23.6669 585.573 23.3797 585.816C23.0838 586.05 22.7487 586.233 22.3745 586.363C21.9917 586.493 21.5958 586.558 21.1869 586.558C20.8215 586.558 20.4561 586.505 20.0907 586.401C19.7254 586.288 19.3949 586.118 19.0992 585.892C18.8035 585.666 18.5644 585.388 18.3819 585.058C18.1993 584.719 18.1082 584.323 18.1084 583.871C18.1086 583.593 18.1522 583.311 18.2394 583.024C18.3178 582.738 18.4615 582.469 18.6705 582.217C18.7023 582.177 18.7361 582.138 18.7717 582.1C18.9598 581.901 19.2003 581.736 19.493 581.605L18.541 580.223C18.2672 580.361 18.0169 580.533 17.7901 580.739C17.7462 580.778 17.7032 580.819 17.6611 580.861C17.4435 581.08 17.2493 581.331 17.0787 581.616C16.7042 582.233 16.5168 582.967 16.5163 583.818C16.5159 584.54 16.6505 585.183 16.9199 585.747Z" fill="#F0F0F0"/>
<path fill-rule="evenodd" clip-rule="evenodd" d="M17.3748 589.467L16.5657 589.466L16.5625 595.565L25.8282 595.57L25.8315 589.354L25.0224 589.353L25.0195 594.658L21.4829 594.656L21.4853 590.134L20.7154 590.133L20.713 594.655L17.3721 594.654L17.3748 589.467Z" fill="#F0F0F0"/>
<path d="M204.388 430.311L243.885 430.332L243.906 391.169" stroke="#F0F0F0" stroke-width="1.5" stroke-miterlimit="10"/>
<path d="M109.25 391.097L109.229 430.26L147.426 430.281" stroke="#F0F0F0" stroke-width="1.5" stroke-miterlimit="10"/>
<path d="M204.514 192.761L244.011 192.782L243.99 231.945" stroke="#F0F0F0" stroke-width="1.5" stroke-miterlimit="10"/>
<path d="M109.334 231.874L109.355 192.711L147.552 192.731" stroke="#F0F0F0" stroke-width="1.5" stroke-miterlimit="10"/>
<path d="M166.878 312.058L184.798 312.068" stroke="#F0F0F0" stroke-width="3" stroke-miterlimit="10"/>
<path d="M175.843 303.103L175.833 321.023" stroke="#F0F0F0" stroke-width="3" stroke-miterlimit="10"/>
<path d="M15.3445 77.0443L15.3607 46.3895C15.3613 45.2796 15.8028 44.2154 16.588 43.431C17.3733 42.6466 18.4379 42.2062 19.5478 42.2068L27.0538 42.2108C28.1637 42.2114 29.2279 42.6529 30.0123 43.4381C30.7967 44.2233 31.2371 45.288 31.2365 46.398L31.2203 77.0527C31.2197 78.1626 30.7782 79.2268 29.993 80.0113C29.2078 80.7957 28.1431 81.236 27.0332 81.2354L19.5274 81.2314C18.9778 81.2312 18.4336 81.1227 17.926 80.9121C17.4183 80.7015 16.9571 80.393 16.5687 80.0042C16.1803 79.6154 15.8723 79.1539 15.6622 78.646C15.4522 78.1382 15.3442 77.5939 15.3445 77.0443Z" stroke="#F0F0F0" stroke-width="2" stroke-miterlimit="10"/>
<path d="M15.3445 77.0443L15.3607 46.3895C15.3613 45.2796 15.8028 44.2154 16.588 43.431C17.3733 42.6466 18.4379 42.2062 19.5478 42.2068L27.0538 42.2108C28.1637 42.2114 29.2279 42.6529 30.0123 43.4381C30.7967 44.2233 31.2371 45.288 31.2365 46.398L31.2203 77.0527C31.2197 78.1626 30.7782 79.2268 29.993 80.0113C29.2078 80.7957 28.1431 81.236 27.0332 81.2354L19.5274 81.2314C18.9778 81.2312 18.4336 81.1227 17.926 80.9121C17.4183 80.7015 16.9571 80.393 16.5687 80.0042C16.1803 79.6154 15.8723 79.1539 15.6622 78.646C15.4522 78.1382 15.3442 77.5939 15.3445 77.0443Z" stroke="#F0F0F0" stroke-width="2" stroke-miterlimit="10"/>
<path d="M27.9324 81.7171L27.9317 83.1106C27.9314 83.6972 27.6981 84.2596 27.2831 84.6742C26.8681 85.0888 26.3054 85.3215 25.7188 85.3212L20.8375 85.3186C20.2509 85.3183 19.6884 85.085 19.2739 84.67C18.8593 84.255 18.6266 83.6923 18.6269 83.1057L18.6276 81.7121" stroke="#F0F0F0" stroke-width="2" stroke-miterlimit="10"/>
<path d="M29.3608 58.1749L17.1886 63.2409L17.1925 55.9357L29.3647 50.8693L29.3608 58.1749Z" fill="#8AC73C" stroke="#F0F0F0"/>
<path d="M17.7401 79.028C17.3818 78.6694 17.1807 78.1831 17.181 77.6761L17.1823 75.0582L29.3546 69.9927L29.3505 77.6825C29.3502 78.1895 29.1486 78.6756 28.7899 79.0339C28.4312 79.3922 27.9449 79.5933 27.438 79.5931L19.0915 79.5886C18.5845 79.5884 18.0984 79.3867 17.7401 79.028Z" fill="#8AC73C" stroke="#F0F0F0"/>
<path d="M29.3555 67.7365L17.1833 72.8024L17.1871 65.4972L29.3593 60.4308L29.3555 67.7365Z" fill="#8AC73C" stroke="#F0F0F0"/>
<path d="M29.3657 48.6136L17.1935 53.6795L17.1977 45.6966C17.1979 45.4456 17.2474 45.1971 17.3436 44.9652C17.4398 44.7333 17.5807 44.5227 17.7583 44.3453L17.4112 43.9977L17.7583 44.3453C17.9359 44.1679 18.1467 44.0272 18.3787 43.9312C18.6107 43.8353 18.8593 43.7859 19.1103 43.7861L27.4568 43.7905C27.7077 43.7906 27.9563 43.8402 28.1882 43.9364C28.42 44.0326 28.6307 44.1735 28.8081 44.3511C28.9855 44.5287 29.1262 44.7395 29.2221 44.9715C29.3181 45.2035 29.3674 45.452 29.3673 45.703L29.3657 48.6136Z" fill="#8AC73C" stroke="#F0F0F0"/>
<path d="M29.355 68.9091L17.1828 73.9754L17.1828 73.8859L29.355 68.8201L29.355 68.9091Z" fill="#0F0F0F" stroke="#F0F0F0"/>
<path d="M29.3601 59.3476L17.1879 64.414L17.1879 64.3245L29.3601 59.2586L29.3601 59.3476Z" fill="#0F0F0F" stroke="#F0F0F0"/>
<path d="M29.3652 49.7862L17.193 54.8526L17.1931 54.7631L29.3653 49.6972L29.3652 49.7862Z" fill="#0F0F0F" stroke="#F0F0F0"/>
<path d="M19.1706 20.747C19.1709 20.1847 19.396 19.7593 19.846 19.4709C20.2923 19.1787 20.9241 19.0328 21.7413 19.0333C22.5586 19.0337 23.1958 19.1746 23.653 19.456C24.1065 19.7374 24.3331 20.1687 24.3327 20.7497C24.3325 21.2896 24.1054 21.7037 23.6517 21.9921C23.1942 22.2768 22.5568 22.4189 21.7395 22.4185C20.9223 22.4181 20.2907 22.2809 19.8447 22.007C19.395 21.7331 19.1703 21.3131 19.1706 20.747ZM19.8397 20.7474C19.8396 21.051 19.9988 21.2742 20.3174 21.4168C20.6322 21.5594 21.1064 21.6309 21.7399 21.6312C22.3735 21.6316 22.8515 21.5606 23.174 21.4183C23.4965 21.276 23.6578 21.053 23.658 20.7494C23.6581 20.4345 23.497 20.2001 23.1747 20.0462C22.8524 19.8923 22.3745 19.8152 21.7409 19.8149C21.1111 19.8146 20.6368 19.8912 20.3181 20.0447C19.9994 20.1945 19.8399 20.4287 19.8397 20.7474ZM19.2914 15.5399L27.5103 20.1047L27.5098 20.9258L19.291 16.3609L19.2914 15.5399ZM22.4685 15.7609C22.4687 15.2023 22.6939 14.7769 23.1439 14.4848C23.5902 14.1926 24.222 14.0467 25.0392 14.0471C25.8527 14.0476 26.4881 14.1885 26.9453 14.4699C27.3987 14.7513 27.6253 15.1825 27.625 15.7636C27.6247 16.3072 27.3977 16.7213 26.9439 17.006C26.4864 17.2907 25.8509 17.4328 25.0374 17.4324C24.2202 17.4319 23.5886 17.2966 23.1426 17.0265C22.6929 16.7526 22.4682 16.3307 22.4685 15.7609ZM23.1432 15.7613C23.1431 16.0649 23.3004 16.2881 23.6153 16.4307C23.9301 16.5733 24.4043 16.6448 25.0378 16.6451C25.6714 16.6454 26.1494 16.5745 26.4719 16.4322C26.7906 16.2899 26.9501 16.0669 26.9502 15.7633C26.9504 15.4484 26.7931 15.214 26.4782 15.0601C26.1597 14.9062 25.6798 14.8291 25.0388 14.8288C24.409 14.8285 23.9366 14.9051 23.6216 15.0586C23.3029 15.2084 23.1434 15.4426 23.1432 15.7613Z" fill="#494949"/>
<path d="M22.79 23.6167C23.2886 23.617 23.7741 23.6528 24.2464 23.7243C24.7187 23.792 25.1592 23.9104 25.5677 24.0793C25.9762 24.2445 26.3341 24.4696 26.6414 24.7546C26.9486 25.0397 27.1903 25.3979 27.3662 25.8291C27.5384 26.2565 27.6244 26.7683 27.6241 27.3644C27.624 27.5256 27.6127 27.7093 27.59 27.9154C27.5712 28.1216 27.543 28.2903 27.5054 28.4215L26.6957 28.4211C26.7445 28.2824 26.7839 28.1193 26.814 27.9319C26.8404 27.7445 26.8536 27.5608 26.8537 27.3808C26.8541 26.6798 26.7044 26.1286 26.4047 25.7274C26.1012 25.3261 25.6909 25.0372 25.1736 24.8607C24.6526 24.6842 24.0679 24.5846 23.4193 24.5618L23.4193 24.6292C23.5992 24.7418 23.7659 24.89 23.9195 25.0737C24.0694 25.2538 24.1911 25.4731 24.2847 25.7319C24.3745 25.9906 24.4194 26.2924 24.4192 26.6373C24.4189 27.1134 24.3212 27.5295 24.1261 27.8855C23.931 28.2378 23.6478 28.5132 23.2766 28.7117C22.9053 28.9064 22.4573 29.0036 21.9324 29.0034C21.3664 29.0031 20.8772 28.896 20.4649 28.6821C20.0489 28.4644 19.7285 28.1606 19.5038 27.7706C19.2791 27.3806 19.1669 26.9213 19.1672 26.3927C19.1674 25.9878 19.2444 25.6167 19.3983 25.2794C19.5522 24.9421 19.7829 24.6498 20.0904 24.4025C20.3942 24.1515 20.7711 23.9587 21.221 23.8239C21.671 23.6855 22.194 23.6164 22.79 23.6167ZM19.96 26.3931C19.9598 26.8917 20.1226 27.2967 20.4486 27.608C20.7746 27.9156 21.2656 28.0696 21.9217 28.0699C22.4653 28.0702 22.8946 27.9373 23.2096 27.6713C23.5247 27.4053 23.6823 26.9949 23.6826 26.4401C23.6828 26.0577 23.6062 25.7277 23.4526 25.4503C23.299 25.169 23.1042 24.9533 22.8681 24.8033C22.632 24.6494 22.3903 24.5725 22.1428 24.5723C21.8954 24.5722 21.6442 24.6095 21.3893 24.6844C21.1343 24.7555 20.8999 24.866 20.6862 25.0158C20.4687 25.1656 20.2942 25.3549 20.1629 25.5835C20.0278 25.8121 19.9602 26.082 19.96 26.3931Z" fill="#494949"/>
<path d="M22.7869 30.2072C23.2855 30.2075 23.7709 30.2433 24.2432 30.3148C24.7156 30.3825 25.156 30.5009 25.5645 30.6698C25.9731 30.8349 26.331 31.0601 26.6382 31.3451C26.9455 31.6302 27.1871 31.9884 27.363 32.4196C27.5353 32.847 27.6212 33.3588 27.6209 33.9549C27.6208 34.1161 27.6095 34.2998 27.5869 34.5059C27.568 34.7121 27.5398 34.8808 27.5023 35.012L26.6925 35.0116C26.7413 34.8729 26.7808 34.7098 26.8109 34.5224C26.8372 34.335 26.8504 34.1513 26.8505 33.9713C26.8509 33.2703 26.7012 32.7191 26.4015 32.3178C26.0981 31.9165 25.6877 31.6277 25.1705 31.4512C24.6495 31.2747 24.0647 31.1751 23.4162 31.1522L23.4161 31.2197C23.596 31.3323 23.7628 31.4804 23.9164 31.6642C24.0662 31.8442 24.1879 32.0636 24.2815 32.3223C24.3714 32.5811 24.4162 32.8829 24.416 33.2278C24.4158 33.7039 24.3181 34.1199 24.1229 34.476C23.9278 34.8283 23.6446 35.1037 23.2734 35.3022C22.9021 35.4969 22.4541 35.5941 21.9293 35.5939C21.3632 35.5936 20.874 35.4865 20.4617 35.2726C20.0457 35.0549 19.7254 34.7511 19.5006 34.3611C19.2759 33.9711 19.1637 33.5118 19.164 32.9832C19.1642 32.5783 19.2412 32.2072 19.3951 31.8699C19.549 31.5326 19.7797 31.2403 20.0873 30.993C20.391 30.742 20.7679 30.5491 21.2178 30.4144C21.6678 30.276 22.1908 30.2069 22.7869 30.2072ZM19.9569 32.9836C19.9566 33.4822 20.1195 33.8872 20.4454 34.1985C20.7714 34.5061 21.2625 34.66 21.9185 34.6604C22.4621 34.6607 22.8914 34.5278 23.2065 34.2618C23.5215 33.9958 23.6792 33.5854 23.6795 33.0306C23.6797 32.6482 23.603 32.3182 23.4494 32.0407C23.2959 31.7595 23.101 31.5438 22.865 31.3937C22.6289 31.2399 22.3871 31.1629 22.1397 31.1628C21.8922 31.1627 21.641 31.2 21.3861 31.2749C21.1311 31.346 20.8968 31.4564 20.683 31.6063C20.4655 31.7561 20.2911 31.9453 20.1597 32.174C20.0247 32.4026 19.957 32.6724 19.9569 32.9836Z" fill="#494949"/>
<path fill-rule="evenodd" clip-rule="evenodd" d="M20.3181 20.0447C19.9994 20.1945 19.8399 20.4287 19.8397 20.7474C19.8396 21.051 19.9988 21.2742 20.3174 21.4168C20.6322 21.5594 21.1064 21.6309 21.7399 21.6312C22.3735 21.6316 22.8515 21.5606 23.174 21.4183C23.4965 21.276 23.6578 21.053 23.658 20.7494C23.6581 20.4345 23.497 20.2001 23.1747 20.0462C22.8524 19.8923 22.3745 19.8152 21.7409 19.8149C21.1111 19.8146 20.6368 19.8912 20.3181 20.0447ZM23.6517 21.9921C23.1942 22.2768 22.5568 22.4189 21.7395 22.4185C20.9223 22.4181 20.2907 22.2809 19.8447 22.007C19.395 21.7331 19.1703 21.3131 19.1706 20.747C19.1709 20.1847 19.396 19.7593 19.846 19.4709C20.2923 19.1787 20.9241 19.0328 21.7413 19.0333C22.5586 19.0337 23.1958 19.1746 23.653 19.456C24.1065 19.7374 24.3331 20.1687 24.3327 20.7497C24.3325 21.2896 24.1054 21.7037 23.6517 21.9921ZM23.1426 17.0265C23.5886 17.2966 24.2202 17.4319 25.0374 17.4324C25.8509 17.4328 26.4864 17.2907 26.9439 17.006C27.3977 16.7213 27.6247 16.3072 27.625 15.7636C27.6253 15.1826 27.3987 14.7513 26.9453 14.4699C26.4881 14.1885 25.8527 14.0476 25.0392 14.0471C24.222 14.0467 23.5902 14.1926 23.1439 14.4848C22.6939 14.7769 22.4687 15.2023 22.4685 15.7609C22.4682 16.3307 22.6929 16.7526 23.1426 17.0265ZM26.4719 16.4322C26.1494 16.5745 25.6714 16.6454 25.0378 16.6451C24.4043 16.6448 23.9301 16.5733 23.6153 16.4307C23.3004 16.2881 23.1431 16.0649 23.1432 15.7613C23.1434 15.4426 23.3029 15.2084 23.6216 15.0586C23.9366 14.9051 24.409 14.8285 25.0388 14.8288C25.6798 14.8291 26.1597 14.9062 26.4782 15.0601C26.7931 15.214 26.9504 15.4484 26.9502 15.7633C26.9501 16.0669 26.7906 16.2899 26.4719 16.4322ZM19.2914 15.5399L19.291 16.3609L27.5098 20.9258L27.5103 20.1047L19.2914 15.5399Z" fill="#F0F0F0"/>
<path fill-rule="evenodd" clip-rule="evenodd" d="M24.2494 24.6382C24.1527 24.6233 24.0543 24.6104 23.9542 24.5995C23.794 24.5822 23.6294 24.5701 23.4605 24.5633C23.4508 24.5629 23.4411 24.5625 23.4314 24.5622C23.4274 24.562 23.4234 24.5619 23.4193 24.5618L23.4193 24.6292C23.5077 24.6845 23.5928 24.7484 23.6749 24.8209C23.7598 24.8959 23.8414 24.9802 23.9195 25.0737C23.9374 25.0952 23.9549 25.1173 23.972 25.1399C24.0981 25.3067 24.2023 25.504 24.2847 25.7319C24.3745 25.9906 24.4194 26.2924 24.4192 26.6373C24.4189 27.1134 24.3212 27.5295 24.1261 27.8855C23.931 28.2378 23.6478 28.5132 23.2766 28.7117C22.9053 28.9064 22.4573 29.0036 21.9324 29.0034C21.3664 29.0031 20.8772 28.896 20.4649 28.6821C20.0489 28.4644 19.7285 28.1606 19.5038 27.7706C19.2791 27.3806 19.1669 26.9213 19.1672 26.3927C19.1674 25.9878 19.2444 25.6167 19.3983 25.2794C19.5522 24.9421 19.7829 24.6498 20.0904 24.4025C20.3942 24.1515 20.7711 23.9587 21.221 23.8239C21.671 23.6855 22.194 23.6164 22.79 23.6167C23.2886 23.617 23.7741 23.6528 24.2464 23.7243C24.7187 23.792 25.1592 23.9104 25.5677 24.0793C25.9762 24.2445 26.3341 24.4696 26.6414 24.7546C26.9486 25.0397 27.1903 25.3979 27.3662 25.8291C27.5384 26.2565 27.6244 26.7683 27.6241 27.3644C27.624 27.5256 27.6127 27.7093 27.59 27.9154C27.5712 28.1216 27.543 28.2903 27.5054 28.4215L26.6957 28.4211C26.7445 28.2824 26.7839 28.1193 26.814 27.9319C26.8162 27.9167 26.8182 27.9015 26.8202 27.8863C26.8424 27.7146 26.8536 27.5462 26.8537 27.3808C26.8541 26.6798 26.7044 26.1286 26.4047 25.7274C26.1012 25.3261 25.6909 25.0372 25.1736 24.8607C24.8851 24.763 24.577 24.6888 24.2494 24.6382ZM22.8847 24.1521C22.8531 24.1517 22.8215 24.1516 22.7897 24.1515C22.7803 24.1515 22.7709 24.1516 22.7615 24.1516C22.803 24.1672 22.8441 24.1843 22.8847 24.2029L22.8847 24.1521ZM20.6862 25.0158C20.4687 25.1656 20.2942 25.3549 20.1629 25.5835C20.0278 25.8121 19.9602 26.082 19.96 26.3931C19.9598 26.8917 20.1226 27.2967 20.4486 27.608C20.7746 27.9156 21.2656 28.0696 21.9217 28.0699C22.4653 28.0702 22.8946 27.9373 23.2096 27.6713C23.5247 27.4053 23.6823 26.9949 23.6826 26.4401C23.6828 26.0577 23.6062 25.7277 23.4526 25.4503C23.4017 25.357 23.3462 25.2709 23.2862 25.1921C23.2461 25.1394 23.204 25.09 23.1599 25.0438C23.0755 24.9553 22.9836 24.8786 22.8844 24.8137C22.879 24.8102 22.8736 24.8067 22.8681 24.8033C22.632 24.6494 22.3903 24.5725 22.1428 24.5723C21.8954 24.5722 21.6442 24.6095 21.3893 24.6844C21.1343 24.7555 20.8999 24.866 20.6862 25.0158Z" fill="#F0F0F0"/>
<path fill-rule="evenodd" clip-rule="evenodd" d="M24.2462 31.2287C24.1495 31.2138 24.0511 31.2009 23.951 31.19C23.7908 31.1727 23.6263 31.1606 23.4574 31.1538C23.4477 31.1534 23.438 31.153 23.4282 31.1527C23.4242 31.1525 23.4202 31.1524 23.4162 31.1522L23.4161 31.2197C23.5045 31.275 23.5897 31.3389 23.6717 31.4113C23.7566 31.4864 23.8382 31.5707 23.9164 31.6642C23.9343 31.6857 23.9518 31.7078 23.9688 31.7304C24.0949 31.8972 24.1991 32.0945 24.2815 32.3223C24.3714 32.5811 24.4162 32.8829 24.416 33.2278C24.4158 33.7039 24.3181 34.1199 24.1229 34.476C23.9278 34.8283 23.6446 35.1037 23.2734 35.3022C22.9021 35.4969 22.4541 35.5941 21.9293 35.5939C21.3632 35.5936 20.874 35.4865 20.4617 35.2726C20.0457 35.0549 19.7254 34.7511 19.5006 34.3611C19.2759 33.9711 19.1637 33.5118 19.164 32.9832C19.1642 32.5783 19.2412 32.2072 19.3951 31.8699C19.549 31.5326 19.7797 31.2403 20.0873 30.993C20.391 30.742 20.7679 30.5491 21.2178 30.4144C21.6678 30.276 22.1908 30.2069 22.7869 30.2072C23.2855 30.2075 23.7709 30.2433 24.2432 30.3148C24.7156 30.3825 25.156 30.5009 25.5645 30.6698C25.9731 30.8349 26.331 31.0601 26.6382 31.3451C26.9455 31.6302 27.1871 31.9884 27.363 32.4196C27.5353 32.847 27.6212 33.3588 27.6209 33.9549C27.6208 34.1161 27.6095 34.2998 27.5869 34.5059C27.568 34.7121 27.5398 34.8808 27.5023 35.012L26.6925 35.0116C26.7413 34.8729 26.7808 34.7098 26.8109 34.5224C26.813 34.5072 26.815 34.492 26.817 34.4768C26.8393 34.3051 26.8504 34.1366 26.8505 33.9713C26.8509 33.2703 26.7012 32.7191 26.4015 32.3178C26.0981 31.9165 25.6877 31.6277 25.1705 31.4512C24.8819 31.3535 24.5739 31.2793 24.2462 31.2287ZM22.8815 30.7425C22.8499 30.7422 22.8183 30.7421 22.7866 30.742C22.7771 30.742 22.7677 30.742 22.7583 30.7421C22.7998 30.7577 22.8409 30.7748 22.8815 30.7934L22.8815 30.7425ZM23.283 31.7826C23.243 31.7299 23.2009 31.6805 23.1567 31.6342C23.0723 31.5458 22.9805 31.4691 22.8812 31.4042C22.8758 31.4007 22.8704 31.3972 22.865 31.3937C22.6289 31.2399 22.3871 31.1629 22.1397 31.1628C21.8922 31.1627 21.641 31.2 21.3861 31.2749C21.1311 31.346 20.8968 31.4564 20.683 31.6063C20.4655 31.7561 20.2911 31.9453 20.1597 32.174C20.0247 32.4026 19.957 32.6724 19.9569 32.9836C19.9566 33.4822 20.1195 33.8872 20.4454 34.1985C20.7714 34.5061 21.2625 34.66 21.9185 34.6604C22.4621 34.6607 22.8914 34.5278 23.2065 34.2618C23.5215 33.9958 23.6792 33.5854 23.6795 33.0306C23.6797 32.6482 23.603 32.3182 23.4494 32.0407C23.3985 31.9475 23.343 31.8614 23.283 31.7826Z" fill="#F0F0F0"/>
<path d="M31.9147 205.989L14.5144 205.98L14.5282 179.921L31.9285 179.93L31.9147 205.989Z" fill="#494949" stroke="#F0F0F0"/>
<path d="M23.7895 184.012C24.88 184.012 25.7916 184.212 26.5243 184.609C27.2525 185.007 27.8019 185.583 28.1723 186.339C28.5384 187.089 28.7211 188.001 28.7206 189.074L28.7192 191.703L19.0371 191.698L19.0387 188.777C19.0392 187.793 19.2206 186.945 19.583 186.235C19.941 185.524 20.4733 184.977 21.1799 184.593C21.8821 184.205 22.752 184.011 23.7895 184.012ZM23.8286 185.197C22.9589 185.197 22.2413 185.342 21.6761 185.633C21.1108 185.92 20.6911 186.343 20.4171 186.904C20.1387 187.46 19.9993 188.142 19.9988 188.95L19.998 190.573L27.7529 190.577L27.7536 189.206C27.7543 187.873 27.4259 186.872 26.7685 186.205C26.111 185.534 25.131 185.198 23.8286 185.197Z" fill="#252525"/>
<path d="M28.7177 194.365L28.7171 195.491L24.1542 195.489L24.1515 200.575L28.7144 200.577L28.7138 201.703L19.0317 201.698L19.0323 200.572L23.1581 200.574L23.1608 195.488L19.035 195.486L19.0356 194.36L28.7177 194.365Z" fill="#252525"/>
<path fill-rule="evenodd" clip-rule="evenodd" d="M21.1799 184.593C20.4733 184.977 19.941 185.524 19.583 186.235C19.2206 186.945 19.0392 187.793 19.0387 188.777L19.0371 191.698L28.7192 191.703L28.7206 189.074C28.7211 188.001 28.5384 187.089 28.1723 186.339C27.8019 185.583 27.2525 185.007 26.5243 184.609C25.7916 184.212 24.88 184.012 23.7895 184.012C22.752 184.011 21.8821 184.205 21.1799 184.593ZM26.2687 185.079C26.8387 185.391 27.2792 185.825 27.5967 186.392C27.4673 186.189 27.3187 186.002 27.1499 185.83C26.3582 185.022 25.2179 184.663 23.8289 184.662C22.9043 184.662 22.0961 184.816 21.4326 185.157C20.9405 185.407 20.5371 185.749 20.2286 186.179C20.5262 185.71 20.9261 185.34 21.4352 185.063L21.4387 185.061C22.0417 184.728 22.8164 184.546 23.7892 184.547C24.817 184.547 25.6348 184.735 26.2687 185.079ZM19.5723 191.107L28.1846 191.112L28.1846 191.168L19.5722 191.163L19.5723 191.107ZM27.7536 189.206C27.7543 187.873 27.4259 186.872 26.7685 186.205C26.111 185.534 25.131 185.198 23.8286 185.197C22.9589 185.197 22.2413 185.342 21.6761 185.633C21.1108 185.92 20.6911 186.343 20.4171 186.904C20.1387 187.46 19.9993 188.142 19.9988 188.95L19.998 190.573L27.7529 190.577L27.7536 189.206Z" fill="#F0F0F0"/>
<path fill-rule="evenodd" clip-rule="evenodd" d="M23.1608 195.488L23.1581 200.574L19.0323 200.572L19.0317 201.698L28.7138 201.703L28.7144 200.577L24.1515 200.575L24.1542 195.489L28.7171 195.491L28.7177 194.365L19.0356 194.36L19.035 195.486L23.1608 195.488ZM19.5702 194.952L28.1825 194.956L28.1826 194.9L19.5702 194.895L19.5702 194.952ZM19.5669 201.107L19.5669 201.163L28.1792 201.168L28.1793 201.112L19.5669 201.107Z" fill="#F0F0F0"/>
<path d="M14.0463 145.326L14.032 172.385L32.4323 172.395L32.4466 145.335L14.0463 145.326Z" stroke="#F0F0F0" stroke-width="2" stroke-miterlimit="10"/>
<path d="M28.7404 151.784L28.7397 153.115L24.0293 156.603L24.9559 157.636L28.7374 157.638L28.7368 158.764L19.0547 158.759L19.0553 157.633L23.8831 157.636C23.5962 157.384 23.3116 157.126 23.0292 156.861C22.7423 156.596 22.4533 156.333 22.1621 156.072L19.0576 153.243L19.0583 151.925L23.2549 155.781L28.7404 151.784Z" fill="#494949"/>
<path d="M26.4909 160.353L26.4901 161.803L28.7352 161.804L28.7346 162.877L26.4896 162.876L26.4871 167.558L25.5599 167.557L18.9995 162.945L19.0001 161.799L25.4968 161.802L25.4975 160.352L26.4909 160.353ZM25.4962 162.875L22.3307 162.874C22.0878 162.873 21.8693 162.871 21.675 162.867C21.4764 162.862 21.2931 162.855 21.1254 162.846C20.9532 162.837 20.7898 162.831 20.6353 162.826C20.4808 162.817 20.3285 162.811 20.1784 162.806L20.1784 162.859C20.3549 162.943 20.5425 163.04 20.7411 163.151C20.9353 163.257 21.1097 163.365 21.2641 163.476L25.4943 166.465L25.4962 162.875Z" fill="#494949"/>
<path fill-rule="evenodd" clip-rule="evenodd" d="M28.7397 153.115L28.7404 151.784L23.2549 155.781L19.0583 151.925L19.0576 153.243L22.1621 156.072C22.4533 156.333 22.7423 156.596 23.0292 156.861C23.1151 156.941 23.2013 157.021 23.2876 157.101C23.485 157.282 23.6835 157.461 23.8831 157.636L19.0553 157.633L19.0547 158.759L28.7368 158.764L28.7374 157.638L24.9559 157.636L24.0293 156.603L28.7397 153.115ZM28.2022 158.173L19.5898 158.168L19.5898 158.225L28.2022 158.229L28.2022 158.173ZM23.3569 156.435L28.205 152.846L28.205 152.836L23.3166 156.398C23.33 156.41 23.3435 156.423 23.3569 156.435Z" fill="#F0F0F0"/>
<path fill-rule="evenodd" clip-rule="evenodd" d="M25.4968 161.802L19.0001 161.799L18.9995 162.945L25.5599 167.557L26.4871 167.558L26.4896 162.876L28.7346 162.877L28.7352 161.804L26.4901 161.803L26.4909 160.353L25.4975 160.352L25.4968 161.802ZM21.8671 162.335C22.0095 162.337 22.1641 162.339 22.3309 162.339L28.2 162.342L28.2 162.339L21.8671 162.335ZM21.0986 163.363C21.1084 163.369 21.1181 163.376 21.1278 163.382L21.0986 163.363ZM24.9597 166.087L25.4943 166.465L24.9597 166.087ZM24.9614 162.875L25.4962 162.875L25.4943 166.465M24.9614 162.875L22.3307 162.874C22.0878 162.873 21.8693 162.871 21.675 162.867C21.5414 162.864 21.4149 162.86 21.2952 162.854C21.237 162.852 21.1803 162.849 21.1254 162.846C21.0541 162.843 20.9843 162.839 20.916 162.836C20.9149 162.836 20.9139 162.836 20.9129 162.836C20.8448 162.833 20.7783 162.831 20.7132 162.829C20.687 162.828 20.661 162.827 20.6353 162.826C20.4893 162.818 20.3453 162.811 20.2032 162.807C20.1949 162.807 20.1866 162.806 20.1784 162.806L20.1784 162.859C20.3187 162.926 20.4661 163.001 20.6204 163.085C20.6228 163.086 20.6253 163.087 20.6277 163.089C20.6651 163.109 20.7029 163.13 20.7411 163.151C20.8686 163.22 20.9876 163.291 21.0979 163.363C21.0982 163.363 21.0984 163.363 21.0986 163.363M19.6436 162.744L19.6438 162.334L19.5347 162.334L19.5345 162.667L19.6436 162.744Z" fill="#F0F0F0"/>
<path d="M25.4689 101.796C26.0429 101.796 26.5329 101.94 26.9389 102.227C27.3405 102.51 27.6471 102.907 27.8588 103.419C28.0704 103.932 28.1761 104.534 28.1757 105.227C28.1755 105.594 28.1577 105.94 28.1222 106.267C28.0867 106.594 28.0357 106.894 27.9694 107.168C27.903 107.441 27.8212 107.682 27.724 107.889L26.6445 107.889C26.7815 107.558 26.9098 107.154 27.0292 106.677C27.1443 106.2 27.2019 105.702 27.2022 105.181C27.2025 104.695 27.1387 104.284 27.0108 103.949C26.8785 103.613 26.691 103.359 26.4483 103.187C26.2012 103.01 25.9054 102.922 25.561 102.921C25.2299 102.921 24.9539 102.994 24.7331 103.14C24.5079 103.285 24.3047 103.528 24.1235 103.868C23.9379 104.203 23.7411 104.662 23.5333 105.245C23.3874 105.655 23.2283 106.017 23.0559 106.331C22.8792 106.644 22.6804 106.907 22.4595 107.118C22.2386 107.33 21.9825 107.491 21.691 107.601C21.3996 107.707 21.0662 107.76 20.691 107.76C20.1744 107.76 19.733 107.629 19.3667 107.368C18.9959 107.103 18.7136 106.739 18.5196 106.275C18.3211 105.807 18.2221 105.271 18.2224 104.666C18.2227 104.149 18.2715 103.673 18.3689 103.235C18.4662 102.794 18.5967 102.39 18.7602 102.024L19.7269 102.375C19.581 102.724 19.4594 103.095 19.3621 103.488C19.2648 103.876 19.216 104.278 19.2158 104.693C19.2155 105.108 19.2772 105.459 19.4006 105.746C19.5197 106.029 19.6896 106.245 19.9102 106.395C20.1309 106.545 20.3935 106.621 20.6982 106.621C21.0381 106.621 21.3207 106.55 21.546 106.409C21.7712 106.264 21.9722 106.034 22.149 105.721C22.3213 105.403 22.5026 104.984 22.6927 104.463C22.9005 103.894 23.1215 103.41 23.3557 103.013C23.5855 102.616 23.8682 102.313 24.2039 102.106C24.5351 101.899 24.9568 101.795 25.4689 101.796Z" fill="#494949"/>
<path d="M18.3573 112.884C18.358 111.635 18.6035 110.723 19.0938 110.15C19.5798 109.572 20.2775 109.283 21.187 109.283C21.5976 109.283 21.9883 109.352 22.3591 109.489C22.7254 109.622 23.0498 109.838 23.3322 110.139C23.6102 110.439 23.8308 110.834 23.9939 111.324C24.1525 111.81 24.2317 112.406 24.2313 113.113L24.2307 114.291L28.0386 114.293L28.038 115.419L18.356 115.414L18.3573 112.884ZM19.3175 112.991L19.3168 114.289L23.2638 114.291L23.2644 113.238C23.2647 112.62 23.1987 112.105 23.0665 111.695C22.9343 111.28 22.7203 110.968 22.4246 110.761C22.1245 110.553 21.7272 110.449 21.2327 110.449C20.5882 110.448 20.109 110.653 19.7953 111.064C19.4772 111.474 19.318 112.117 19.3175 112.991Z" fill="#494949"/>
<path d="M28.035 121.3L28.0344 122.426L18.3523 122.421L18.3551 117.03L19.3485 117.03L19.3463 121.295L22.8959 121.297L22.898 117.291L23.8848 117.291L23.8827 121.298L28.035 121.3Z" fill="#494949"/>
<path d="M22.111 127.78C22.1113 127.123 22.2242 126.551 22.4496 126.065C22.6706 125.58 22.9931 125.205 23.4171 124.94C23.8411 124.671 24.3555 124.537 24.9604 124.537C25.6226 124.537 26.1943 124.681 26.6754 124.968C27.152 125.255 27.5205 125.668 27.7807 126.207C28.0364 126.746 28.1641 127.391 28.1637 128.141C28.1635 128.644 28.1191 129.112 28.0305 129.545C27.942 129.978 27.8094 130.342 27.6326 130.638L26.5863 130.637C26.7807 130.315 26.9354 129.924 27.0505 129.465C27.1655 129.006 27.2231 128.56 27.2234 128.127C27.2236 127.637 27.1466 127.209 26.9922 126.843C26.8335 126.472 26.5952 126.185 26.2775 125.981C25.9553 125.774 25.5514 125.67 25.0657 125.669C24.4211 125.669 23.9243 125.867 23.5754 126.265C23.2219 126.657 23.045 127.28 23.0446 128.132C23.0444 128.406 23.0663 128.706 23.1103 129.033C23.1543 129.359 23.2027 129.629 23.2556 129.841L22.891 130.397L18.3482 130.023L18.3508 125.209L19.3574 125.209L19.3553 129.084L22.2757 129.33C22.2405 129.162 22.2053 128.946 22.1701 128.681C22.1305 128.416 22.1108 128.116 22.111 127.78Z" fill="#494949"/>
<path d="M28.0288 132.26L28.0255 138.605L27.105 138.604L24.4772 136.013C23.9918 135.532 23.5594 135.128 23.1798 134.801C22.8003 134.469 22.4274 134.218 22.061 134.045C21.6903 133.873 21.2841 133.786 20.8426 133.786C20.2952 133.786 19.8779 133.949 19.5907 134.276C19.2992 134.598 19.1533 135.024 19.153 135.554C19.1527 136.017 19.232 136.428 19.3907 136.785C19.5495 137.143 19.7745 137.51 20.0656 137.885L19.3236 138.474C19.1074 138.218 18.9155 137.94 18.7479 137.639C18.5803 137.335 18.448 137.01 18.3511 136.666C18.2541 136.317 18.2057 135.946 18.206 135.553C18.2063 134.957 18.3103 134.443 18.518 134.01C18.7258 133.578 19.0217 133.244 19.406 133.011C19.7902 132.772 20.2472 132.653 20.777 132.654C21.2892 132.654 21.7659 132.756 22.2073 132.959C22.6443 133.162 23.079 133.447 23.5115 133.814C23.9395 134.181 24.3941 134.609 24.875 135.1L26.9732 137.207L27.0196 137.207L27.0222 132.26L28.0288 132.26Z" fill="#494949"/>
<path fill-rule="evenodd" clip-rule="evenodd" d="M26.631 102.664L26.63 102.663C26.3276 102.45 25.9497 102.331 25.4686 102.33C25.0264 102.33 24.7111 102.42 24.4876 102.559L24.4849 102.561C24.2359 102.715 24.0115 102.947 23.8187 103.281L23.8164 103.285C23.6673 103.538 23.5207 103.835 23.3778 104.178C23.4703 103.967 23.5621 103.778 23.6535 103.612C23.8592 103.228 24.115 102.903 24.4407 102.692C24.7682 102.476 25.1526 102.386 25.5613 102.387C25.9616 102.387 26.3352 102.482 26.6625 102.687C26.6521 102.679 26.6416 102.672 26.631 102.664ZM26.8382 107.354C26.9042 107.148 26.9679 106.922 27.0292 106.677C27.1443 106.2 27.2019 105.702 27.2022 105.181C27.2025 104.695 27.1387 104.284 27.0108 103.949C26.8785 103.613 26.691 103.359 26.4483 103.187C26.2012 103.01 25.9054 102.922 25.561 102.921C25.2299 102.921 24.9539 102.994 24.7331 103.14C24.5079 103.285 24.3047 103.528 24.1235 103.868C23.9379 104.203 23.7411 104.662 23.5333 105.245C23.3874 105.655 23.2283 106.017 23.0559 106.331C22.8792 106.644 22.6804 106.907 22.4595 107.118C22.2386 107.33 21.9825 107.491 21.691 107.601C21.3996 107.707 21.0662 107.76 20.691 107.76C20.1744 107.76 19.733 107.629 19.3667 107.368C18.9959 107.103 18.7136 106.739 18.5196 106.275C18.3211 105.807 18.2221 105.271 18.2224 104.666C18.2227 104.149 18.2715 103.673 18.3689 103.235C18.4662 102.794 18.5967 102.39 18.7602 102.024L19.7269 102.375C19.6591 102.537 19.5965 102.704 19.5391 102.876C19.4732 103.074 19.4142 103.277 19.3621 103.488C19.2648 103.876 19.216 104.278 19.2158 104.693C19.2155 105.108 19.2772 105.459 19.4006 105.746C19.5197 106.029 19.6896 106.245 19.9102 106.395C20.1309 106.545 20.3935 106.621 20.6982 106.621C21.0381 106.621 21.3207 106.55 21.546 106.409C21.7712 106.264 21.9722 106.034 22.149 105.721C22.3213 105.403 22.5026 104.984 22.6927 104.463C22.9005 103.894 23.1215 103.41 23.3557 103.013C23.5855 102.616 23.8682 102.313 24.2039 102.106C24.5351 101.899 24.9568 101.795 25.4689 101.796C26.0429 101.796 26.5329 101.94 26.9389 102.227C27.3405 102.51 27.6471 102.907 27.8588 103.419C28.0704 103.932 28.1761 104.534 28.1757 105.227C28.1755 105.594 28.1577 105.94 28.1222 106.267C28.0867 106.594 28.0357 106.894 27.9694 107.168C27.903 107.441 27.8212 107.682 27.724 107.889L26.6445 107.889C26.7112 107.728 26.7757 107.55 26.8382 107.354ZM19.3109 106.583C19.419 106.72 19.5412 106.836 19.677 106.933C19.9398 107.12 20.2687 107.225 20.6912 107.225C21.0153 107.225 21.2839 107.18 21.5052 107.1C21.7291 107.015 21.9223 106.893 22.0893 106.732C22.266 106.563 22.4336 106.345 22.5887 106.07C22.7234 105.825 22.8522 105.541 22.9739 105.217C22.8547 105.506 22.7365 105.759 22.6191 105.976L22.617 105.98L22.6148 105.984C22.4094 106.348 22.1548 106.653 21.8363 106.859L21.83 106.863C21.4988 107.07 21.1107 107.156 20.6979 107.156C20.3016 107.155 19.9307 107.056 19.6092 106.837C19.4995 106.763 19.4002 106.678 19.3109 106.583ZM23.1863 104.643C23.1863 104.643 23.1863 104.643 23.1863 104.643V104.643Z" fill="#F0F0F0"/>
<path fill-rule="evenodd" clip-rule="evenodd" d="M19.5004 110.497C19.3832 110.634 19.2791 110.804 19.1915 111.011C19.2454 110.915 19.3053 110.823 19.3716 110.738C19.8114 110.163 20.4681 109.914 21.233 109.914C21.7984 109.914 22.3128 110.033 22.729 110.321L22.732 110.323C22.774 110.352 22.8145 110.383 22.8536 110.415C22.6486 110.22 22.4236 110.081 22.177 109.992L22.1736 109.991C21.8644 109.876 21.5366 109.818 21.1867 109.818C20.3997 109.818 19.8667 110.061 19.5033 110.494L19.5004 110.497ZM18.8911 114.823L18.8911 114.88L27.5035 114.884L27.5035 114.828L18.8911 114.823ZM23.9939 111.324C24.1525 111.81 24.2317 112.406 24.2313 113.113L24.2307 114.291L28.0386 114.293L28.038 115.419L18.356 115.414L18.3573 112.884C18.358 111.635 18.6035 110.723 19.0938 110.15C19.5798 109.572 20.2775 109.283 21.187 109.283C21.5976 109.283 21.9883 109.352 22.3591 109.489C22.7254 109.622 23.0498 109.838 23.3322 110.139C23.6102 110.439 23.8308 110.834 23.9939 111.324ZM19.3168 114.289L19.3175 112.991C19.318 112.117 19.4772 111.474 19.7953 111.064C20.109 110.653 20.5882 110.448 21.2327 110.449C21.7272 110.449 22.1245 110.553 22.4246 110.761C22.7203 110.968 22.9343 111.28 23.0665 111.695C23.1987 112.105 23.2647 112.62 23.2644 113.238L23.2638 114.291L19.3168 114.289Z" fill="#F0F0F0"/>
<path fill-rule="evenodd" clip-rule="evenodd" d="M19.3463 121.295L19.3485 117.03L18.3551 117.03L18.3523 122.421L28.0344 122.426L28.035 121.3L23.8827 121.298L23.8848 117.291L22.898 117.291L22.8959 121.297L19.3463 121.295ZM18.8875 121.83L18.8874 121.886L27.4998 121.891L27.4998 121.834L18.8875 121.83Z" fill="#F0F0F0"/>
<path fill-rule="evenodd" clip-rule="evenodd" d="M18.3482 130.023L18.3508 125.209L19.3574 125.209L19.3553 129.084L22.2757 129.33C22.2452 129.185 22.2148 129.003 22.1843 128.786C22.1796 128.752 22.1749 128.717 22.1701 128.681C22.1305 128.416 22.1108 128.116 22.111 127.78C22.1113 127.123 22.2242 126.551 22.4496 126.065C22.6706 125.58 22.9931 125.205 23.4171 124.94C23.8411 124.671 24.3555 124.537 24.9604 124.537C25.6226 124.537 26.1943 124.681 26.6754 124.968C27.152 125.255 27.5205 125.668 27.7807 126.207C28.0364 126.746 28.1641 127.391 28.1637 128.141C28.1635 128.644 28.1191 129.112 28.0305 129.545C27.942 129.978 27.8094 130.342 27.6326 130.638L26.5863 130.637C26.6835 130.476 26.7708 130.298 26.8482 130.102C26.9255 129.907 26.993 129.695 27.0505 129.465C27.1655 129.006 27.2231 128.56 27.2234 128.127C27.2236 127.637 27.1466 127.209 26.9922 126.843C26.8335 126.472 26.5952 126.185 26.2775 125.981C25.9553 125.774 25.5514 125.67 25.0657 125.669C24.4211 125.669 23.9243 125.867 23.5754 126.265C23.2219 126.657 23.045 127.28 23.0446 128.132C23.0444 128.406 23.0663 128.706 23.1103 129.033C23.1543 129.359 23.2027 129.629 23.2556 129.841L22.891 130.397L18.3482 130.023ZM23.1757 125.909C23.6481 125.373 24.3053 125.134 25.066 125.135C25.5948 125.135 26.0793 125.242 26.4923 125.485C26.4622 125.465 26.4315 125.446 26.4002 125.427C26.0161 125.198 25.5431 125.072 24.9601 125.072C24.4359 125.071 24.0258 125.187 23.7037 125.392L23.7003 125.394C23.4414 125.555 23.2283 125.771 23.0613 126.049C23.0974 126 23.1355 125.954 23.1757 125.909Z" fill="#F0F0F0"/>
<path fill-rule="evenodd" clip-rule="evenodd" d="M22.061 134.045C22.4274 134.218 22.8003 134.469 23.1798 134.801C23.5594 135.128 23.9918 135.532 24.4772 136.013L27.105 138.604L28.0255 138.605L28.0288 132.26L27.0222 132.26L27.0196 137.207L26.9732 137.207L24.875 135.1C24.3941 134.609 23.9395 134.181 23.5115 133.814C23.079 133.447 22.6443 133.162 22.2073 132.959C21.7659 132.756 21.2892 132.654 20.777 132.654C20.2472 132.653 19.7902 132.772 19.406 133.011C19.0217 133.244 18.7258 133.578 18.518 134.01C18.3103 134.443 18.2063 134.957 18.206 135.553C18.2057 135.946 18.2541 136.317 18.3511 136.666C18.448 137.01 18.5803 137.335 18.7479 137.639C18.8266 137.78 18.9107 137.917 19.0002 138.048C19.0427 138.11 19.0863 138.172 19.1312 138.232C19.193 138.315 19.2572 138.395 19.3236 138.474L20.0656 137.885C19.7745 137.51 19.5495 137.143 19.3907 136.785C19.232 136.428 19.1527 136.017 19.153 135.554C19.1533 135.024 19.2992 134.598 19.5907 134.276C19.8779 133.949 20.2952 133.786 20.8426 133.786C21.2841 133.786 21.6903 133.873 22.061 134.045ZM19.1933 133.918C19.6071 133.45 20.1867 133.251 20.8429 133.251C21.2173 133.252 21.5761 133.305 21.9164 133.415C21.5674 133.265 21.1893 133.189 20.7767 133.189C20.3292 133.188 19.9736 133.288 19.6878 133.465L19.684 133.468C19.4938 133.583 19.3302 133.732 19.1933 133.918ZM26.9919 137.742L27.3244 138.069L27.4909 138.069L27.4911 137.742L26.9919 137.742Z" fill="#F0F0F0"/>
<path d="M328.745 39.7879L334.826 39.7911C335.49 39.7915 336.081 39.9267 336.6 40.197C337.118 40.4629 337.527 40.8659 337.827 41.406C338.122 41.9461 338.269 42.6232 338.269 43.4374C338.268 44.5986 337.953 45.4833 337.323 46.0914C336.693 46.6953 335.85 46.9969 334.796 46.9964L328.741 46.9932L328.742 45.8941L334.829 45.8973C335.626 45.8977 336.241 45.6881 336.674 45.2684C337.107 44.8444 337.324 44.2124 337.324 43.3726C337.324 42.7984 337.222 42.3291 337.016 41.9648C336.807 41.5962 336.515 41.3239 336.143 41.148C335.766 40.9678 335.331 40.8776 334.838 40.8774L328.745 40.8741L328.745 39.7879Z" fill="#494949"/>
<path d="M338.137 49.4662L338.136 50.726L330.241 55.8446L330.241 55.896C330.451 55.8833 330.691 55.8684 330.961 55.8514C331.226 55.8344 331.511 55.8217 331.815 55.8133C332.115 55.8006 332.422 55.7943 332.735 55.7945L338.134 55.7973L338.133 56.8129L328.736 56.8079L328.737 55.5546L336.607 50.4552L336.607 50.4102C336.457 50.4187 336.245 50.4293 335.97 50.442C335.692 50.4548 335.394 50.4675 335.077 50.4801C334.756 50.4885 334.458 50.4927 334.184 50.4925L328.739 50.4896L328.74 49.4612L338.137 49.4662Z" fill="#494949"/>
<path d="M338.132 58.8956L338.13 64.1276L328.732 64.1226L328.735 58.8906L329.699 58.8911L329.697 63.0305L332.737 63.0321L332.739 59.1305L333.691 59.131L333.689 63.0326L337.166 63.0344L337.168 58.8951L338.132 58.8956Z" fill="#494949"/>
<path d="M338.125 71.8343L329.806 74.9858L329.806 75.0372C329.982 75.0202 330.196 75.0053 330.449 74.9926C330.702 74.9799 330.978 74.9693 331.278 74.9609C331.574 74.9525 331.876 74.9483 332.185 74.9485L338.124 74.9516L338.123 75.9672L328.726 75.9622L328.727 74.3425L336.544 71.3707L336.544 71.3257L328.73 68.3006L328.731 66.6937L338.128 66.6987L338.127 67.7785L332.111 67.7753C331.833 67.7752 331.554 67.7707 331.276 67.762C330.993 67.7533 330.727 67.7424 330.479 67.7295C330.226 67.7165 330.007 67.7035 329.823 67.6905L329.823 67.742L338.126 70.9408L338.125 71.8343Z" fill="#494949"/>
<path fill-rule="evenodd" clip-rule="evenodd" d="M336.674 45.2684C336.241 45.6881 335.626 45.8977 334.829 45.8973L328.742 45.8941L328.741 46.9932L334.796 46.9964C335.85 46.9969 336.693 46.6953 337.323 46.0914C337.953 45.4833 338.268 44.5986 338.269 43.4374C338.269 42.6232 338.122 41.9461 337.827 41.406C337.527 40.8659 337.118 40.4629 336.6 40.197C336.081 39.9267 335.49 39.7915 334.826 39.7911L328.745 39.7879L328.745 40.8741L334.838 40.8774C335.331 40.8776 335.766 40.9678 336.143 41.148C336.515 41.3239 336.807 41.5962 337.016 41.9648C337.222 42.3291 337.324 42.7984 337.324 43.3726C337.324 44.2124 337.107 44.8444 336.674 45.2684ZM336.41 46.1014C335.953 46.3292 335.418 46.4324 334.829 46.4321L329.277 46.4292L329.277 46.4586L334.796 46.4615C335.444 46.4619 335.975 46.3369 336.41 46.1014ZM335.978 40.5092C335.635 40.389 335.253 40.3262 334.825 40.326L329.28 40.323L329.28 40.3396L334.838 40.3425C335.242 40.3427 335.623 40.3963 335.978 40.5092Z" fill="#F0F0F0"/>
<path fill-rule="evenodd" clip-rule="evenodd" d="M338.136 50.726L338.137 49.4662L328.74 49.4612L328.739 50.4896L334.184 50.4925C334.458 50.4927 334.756 50.4885 335.077 50.4801C335.265 50.4726 335.445 50.4651 335.62 50.4576C335.74 50.4524 335.857 50.4472 335.97 50.442C336.005 50.4404 336.039 50.4389 336.072 50.4373C336.282 50.4274 336.451 50.4189 336.579 50.4118C336.588 50.4113 336.598 50.4108 336.607 50.4102L336.607 50.4552L328.737 55.5546L328.736 56.8079L338.133 56.8129L338.134 55.7973L332.735 55.7945C332.422 55.7943 332.115 55.8006 331.815 55.8133C331.614 55.8188 331.422 55.8263 331.238 55.8356C331.143 55.8404 331.051 55.8456 330.961 55.8514C330.897 55.8554 330.836 55.8593 330.775 55.863C330.593 55.8744 330.425 55.8848 330.273 55.8941C330.262 55.8947 330.251 55.8954 330.241 55.896L330.241 55.8446L338.136 50.726ZM329.706 56.2736L329.706 55.5639L329.271 55.8454L329.271 56.2734L329.706 56.2736ZM337.141 50.7336L337.602 50.4352L337.602 50.0008L337.142 50.0005L337.141 50.7336Z" fill="#F0F0F0"/>
<path fill-rule="evenodd" clip-rule="evenodd" d="M337.166 63.0344L333.689 63.0326L333.691 59.131L332.739 59.1305L332.737 63.0321L329.697 63.0305L329.699 58.8911L328.735 58.8906L328.732 64.1226L338.13 64.1276L338.132 58.8956L337.168 58.8951L337.166 63.0344ZM337.595 63.5695L329.268 63.5651L329.268 63.5881L337.595 63.5925L337.595 63.5695Z" fill="#F0F0F0"/>
<path fill-rule="evenodd" clip-rule="evenodd" d="M328.727 74.3425L328.726 75.9622L338.123 75.9672L338.124 74.9516L332.185 74.9485C331.915 74.9484 331.65 74.9515 331.39 74.9579C331.353 74.9588 331.315 74.9598 331.278 74.9609C330.978 74.9693 330.702 74.9799 330.449 74.9926C330.412 74.9944 330.376 74.9963 330.341 74.9983C330.143 75.0092 329.971 75.0216 329.825 75.0354C329.819 75.036 329.813 75.0366 329.806 75.0372L329.806 74.9858L338.125 71.8343L338.126 70.9408L331.259 68.2953L329.823 67.742L329.823 67.6905C329.83 67.691 329.836 67.6914 329.842 67.6919C329.992 67.7023 330.164 67.7127 330.358 67.7231C330.397 67.7252 330.438 67.7273 330.479 67.7295C330.727 67.7424 330.993 67.7533 331.276 67.762C331.307 67.763 331.339 67.7639 331.37 67.7648C331.617 67.7717 331.864 67.7752 332.111 67.7753L338.127 67.7785L338.128 66.6987L328.731 66.6937L328.73 68.3006L336.544 71.3257L336.544 71.3707L328.727 74.3425ZM329.265 67.9342L329.288 67.9431L329.289 67.2288L329.266 67.2288L329.265 67.9342ZM331.377 67.2299C331.622 67.2368 331.867 67.2403 332.112 67.2405L337.593 67.2434L337.593 67.2332L331.377 67.2299ZM337.079 71.1109L337.079 71.6587L337.591 71.4649L337.591 71.3079L337.079 71.1109ZM329.272 74.7076L329.262 74.7114L329.261 75.4277L329.271 75.4277L329.272 74.7076Z" fill="#F0F0F0"/>
<path d="M328.214 34.3991L328.216 30.3063" stroke="#F0F0F0" stroke-width="2" stroke-miterlimit="10"/>
<path d="M332.066 34.4012L332.068 30.3083" stroke="#F0F0F0" stroke-width="2" stroke-miterlimit="10"/>
<path d="M335.918 34.4032L335.92 30.3103" stroke="#F0F0F0" stroke-width="2" stroke-miterlimit="10"/>
<path d="M328.218 26.5783L328.225 13.7927" stroke="#F0F0F0" stroke-width="2" stroke-miterlimit="10"/>
<path d="M332.07 26.5804L332.077 13.7948" stroke="#F0F0F0" stroke-width="2" stroke-miterlimit="10"/>
<path d="M335.922 26.5824L335.929 13.7968" stroke="#F0F0F0" stroke-width="2" stroke-miterlimit="10"/>
<path d="M346.065 281.768C346.065 281.11 346.178 280.538 346.404 280.053C346.625 279.567 346.947 279.192 347.371 278.928C347.795 278.659 348.31 278.524 348.914 278.524C349.577 278.525 350.148 278.669 350.629 278.956C351.106 279.243 351.475 279.656 351.735 280.195C351.991 280.734 352.118 281.378 352.118 282.129C352.118 282.632 352.073 283.1 351.985 283.533C351.896 283.965 351.763 284.329 351.587 284.625L350.54 284.625C350.735 284.302 350.89 283.912 351.005 283.453C351.12 282.994 351.177 282.548 351.177 282.115C351.178 281.625 351.101 281.197 350.946 280.83C350.788 280.459 350.549 280.172 350.232 279.969C349.909 279.761 349.505 279.657 349.02 279.657C348.375 279.657 347.878 279.855 347.529 280.252C347.176 280.645 346.999 281.267 346.999 282.119C346.999 282.393 347.02 282.693 347.064 283.02C347.108 283.347 347.157 283.616 347.21 283.828L346.845 284.384L342.302 284.011L342.305 279.196L343.311 279.197L343.309 283.071L346.23 283.318C346.195 283.15 346.159 282.934 346.124 282.669C346.085 282.404 346.065 282.104 346.065 281.768Z" fill="#494949"/>
<path d="M347.129 286.192C347.915 286.193 348.617 286.253 349.235 286.372C349.853 286.492 350.376 286.68 350.804 286.936C351.232 287.192 351.558 287.524 351.783 287.93C352.004 288.336 352.114 288.824 352.114 289.394C352.113 290.113 351.917 290.709 351.523 291.181C351.13 291.649 350.563 292 349.821 292.233C349.075 292.463 348.176 292.577 347.125 292.576C346.092 292.576 345.205 292.472 344.463 292.264C343.717 292.051 343.146 291.711 342.749 291.243C342.347 290.775 342.147 290.157 342.147 289.388C342.147 288.66 342.346 288.06 342.744 287.587C343.137 287.115 343.707 286.764 344.453 286.535C345.195 286.306 346.087 286.192 347.129 286.192ZM347.126 291.47C348.027 291.471 348.777 291.403 349.378 291.266C349.978 291.13 350.429 290.909 350.729 290.605C351.025 290.296 351.173 289.892 351.173 289.393C351.174 288.894 351.026 288.492 350.73 288.188C350.435 287.878 349.987 287.655 349.386 287.518C348.786 287.376 348.033 287.305 347.128 287.305C346.241 287.304 345.499 287.373 344.903 287.509C344.302 287.646 343.852 287.866 343.552 288.171C343.247 288.475 343.094 288.881 343.094 289.389C343.094 289.897 343.246 290.303 343.55 290.608C343.85 290.912 344.301 291.133 344.901 291.271C345.497 291.403 346.239 291.47 347.126 291.47Z" fill="#494949"/>
<path d="M351.29 295.83C350.98 295.83 350.762 295.755 350.634 295.605C350.502 295.455 350.436 295.271 350.436 295.055C350.436 294.83 350.502 294.64 350.635 294.486C350.763 294.331 350.981 294.254 351.29 294.254C351.595 294.254 351.818 294.332 351.959 294.486C352.096 294.641 352.164 294.831 352.164 295.056C352.164 295.272 352.095 295.455 351.959 295.605C351.817 295.756 351.594 295.83 351.29 295.83ZM345.415 295.827C345.098 295.827 344.875 295.752 344.747 295.602C344.614 295.451 344.548 295.268 344.548 295.052C344.548 294.827 344.615 294.637 344.747 294.482C344.875 294.328 345.098 294.251 345.416 294.251C345.716 294.251 345.935 294.329 346.072 294.483C346.209 294.638 346.277 294.828 346.277 295.053C346.277 295.269 346.208 295.452 346.071 295.602C345.934 295.752 345.716 295.827 345.415 295.827Z" fill="#494949"/>
<path d="M347.123 297.517C347.909 297.517 348.611 297.577 349.229 297.697C349.847 297.816 350.37 298.004 350.798 298.26C351.226 298.517 351.553 298.848 351.778 299.254C351.998 299.661 352.108 300.148 352.108 300.718C352.108 301.438 351.911 302.034 351.518 302.506C351.124 302.974 350.557 303.324 349.815 303.558C349.069 303.787 348.17 303.901 347.12 303.901C346.086 303.9 345.199 303.796 344.457 303.588C343.711 303.376 343.14 303.036 342.743 302.567C342.341 302.099 342.141 301.481 342.141 300.713C342.141 299.984 342.34 299.384 342.738 298.912C343.131 298.44 343.701 298.089 344.447 297.86C345.189 297.63 346.081 297.516 347.123 297.517ZM347.12 302.795C348.021 302.795 348.771 302.727 349.372 302.591C349.972 302.454 350.423 302.234 350.723 301.929C351.019 301.62 351.167 301.216 351.168 300.717C351.168 300.219 351.02 299.817 350.724 299.512C350.429 299.203 349.981 298.98 349.38 298.842C348.78 298.701 348.027 298.63 347.122 298.629C346.235 298.629 345.493 298.697 344.897 298.833C344.297 298.97 343.846 299.19 343.546 299.495C343.241 299.799 343.088 300.205 343.088 300.713C343.088 301.221 343.24 301.627 343.544 301.932C343.844 302.237 344.295 302.458 344.895 302.595C345.491 302.728 346.233 302.794 347.12 302.795Z" fill="#494949"/>
<path d="M351.973 305.334L351.97 311.678L351.049 311.678L348.422 309.087C347.936 308.605 347.504 308.201 347.124 307.874C346.745 307.543 346.372 307.291 346.005 307.119C345.635 306.946 345.228 306.86 344.787 306.86C344.24 306.86 343.822 307.023 343.535 307.349C343.244 307.671 343.098 308.097 343.097 308.627C343.097 309.091 343.176 309.501 343.335 309.859C343.494 310.217 343.719 310.583 344.01 310.959L343.268 311.548C343.052 311.292 342.86 311.013 342.692 310.713C342.525 310.408 342.392 310.084 342.295 309.739C342.198 309.39 342.15 309.02 342.15 308.627C342.151 308.031 342.255 307.516 342.462 307.084C342.67 306.651 342.966 306.318 343.35 306.084C343.735 305.846 344.192 305.727 344.721 305.727C345.233 305.728 345.71 305.829 346.152 306.033C346.589 306.236 347.023 306.521 347.456 306.888C347.884 307.254 348.338 307.683 348.819 308.173L350.918 310.28L350.964 310.28L350.967 305.333L351.973 305.334Z" fill="#494949"/>
<path d="M351.279 314.916C350.97 314.916 350.751 314.841 350.624 314.691C350.491 314.54 350.425 314.357 350.425 314.141C350.425 313.916 350.492 313.726 350.624 313.571C350.752 313.417 350.971 313.34 351.28 313.34C351.585 313.34 351.807 313.418 351.949 313.572C352.085 313.727 352.154 313.917 352.154 314.142C352.154 314.358 352.085 314.541 351.948 314.691C351.807 314.841 351.584 314.916 351.279 314.916ZM345.405 314.913C345.087 314.913 344.864 314.838 344.736 314.688C344.604 314.537 344.538 314.354 344.538 314.138C344.538 313.913 344.604 313.723 344.737 313.568C344.865 313.414 345.088 313.337 345.406 313.337C345.706 313.337 345.924 313.414 346.061 313.569C346.198 313.724 346.266 313.914 346.266 314.139C346.266 314.355 346.198 314.538 346.061 314.688C345.924 314.838 345.705 314.913 345.405 314.913Z" fill="#494949"/>
<path d="M347.113 316.603C347.899 316.603 348.6 316.663 349.218 316.783C349.837 316.902 350.36 317.09 350.788 317.346C351.216 317.603 351.542 317.934 351.767 318.34C351.988 318.747 352.098 319.234 352.098 319.804C352.097 320.524 351.901 321.12 351.507 321.592C351.114 322.06 350.547 322.41 349.805 322.644C349.059 322.873 348.16 322.987 347.109 322.987C346.076 322.986 345.189 322.882 344.447 322.674C343.701 322.462 343.13 322.122 342.733 321.653C342.331 321.185 342.13 320.567 342.131 319.799C342.131 319.07 342.33 318.47 342.728 317.998C343.121 317.526 343.691 317.175 344.437 316.946C345.179 316.716 346.071 316.602 347.113 316.603ZM347.11 321.881C348.01 321.881 348.761 321.813 349.362 321.677C349.962 321.54 350.413 321.32 350.713 321.015C351.009 320.706 351.157 320.302 351.157 319.804C351.158 319.305 351.01 318.903 350.714 318.598C350.419 318.289 349.971 318.066 349.37 317.928C348.77 317.787 348.017 317.716 347.112 317.715C346.225 317.715 345.483 317.783 344.887 317.919C344.286 318.056 343.836 318.276 343.535 318.581C343.231 318.885 343.078 319.292 343.078 319.799C343.078 320.307 343.23 320.713 343.534 321.018C343.834 321.323 344.284 321.544 344.885 321.681C345.481 321.814 346.222 321.88 347.11 321.881Z" fill="#494949"/>
<path d="M347.109 324.364C347.895 324.365 348.597 324.425 349.215 324.544C349.833 324.664 350.356 324.852 350.784 325.108C351.212 325.364 351.538 325.696 351.763 326.102C351.984 326.508 352.094 326.996 352.094 327.566C352.093 328.285 351.897 328.881 351.503 329.353C351.11 329.821 350.543 330.172 349.801 330.405C349.055 330.635 348.156 330.749 347.105 330.748C346.072 330.748 345.185 330.644 344.443 330.436C343.697 330.223 343.126 329.883 342.729 329.415C342.327 328.947 342.127 328.329 342.127 327.56C342.127 326.832 342.326 326.232 342.724 325.759C343.117 325.287 343.687 324.936 344.433 324.707C345.175 324.478 346.067 324.364 347.109 324.364ZM347.106 329.642C348.007 329.643 348.757 329.575 349.358 329.438C349.958 329.302 350.409 329.081 350.709 328.777C351.005 328.468 351.153 328.064 351.153 327.565C351.154 327.066 351.006 326.664 350.71 326.36C350.415 326.05 349.967 325.827 349.366 325.69C348.766 325.548 348.013 325.477 347.108 325.477C346.221 325.476 345.479 325.544 344.883 325.681C344.282 325.818 343.832 326.038 343.532 326.343C343.227 326.647 343.074 327.053 343.074 327.561C343.074 328.069 343.226 328.475 343.53 328.78C343.83 329.084 344.281 329.305 344.881 329.443C345.477 329.575 346.219 329.642 347.106 329.642Z" fill="#494949"/>
<path d="M351.269 334.002C350.96 334.002 350.741 333.927 350.614 333.777C350.481 333.626 350.415 333.443 350.415 333.227C350.415 333.002 350.482 332.812 350.614 332.657C350.742 332.503 350.961 332.426 351.27 332.426C351.574 332.426 351.797 332.504 351.939 332.658C352.075 332.813 352.144 333.003 352.144 333.228C352.143 333.444 352.075 333.627 351.938 333.777C351.797 333.927 351.574 334.002 351.269 334.002ZM345.395 333.999C345.077 333.999 344.854 333.924 344.726 333.774C344.594 333.623 344.528 333.44 344.528 333.224C344.528 332.999 344.594 332.809 344.727 332.654C344.855 332.5 345.078 332.423 345.396 332.423C345.696 332.423 345.914 332.5 346.051 332.655C346.188 332.81 346.256 333 346.256 333.225C346.256 333.441 346.188 333.624 346.051 333.774C345.914 333.924 345.695 333.999 345.395 333.999Z" fill="#494949"/>
<path d="M347.103 335.689C347.888 335.689 348.59 335.749 349.208 335.869C349.827 335.988 350.35 336.176 350.778 336.432C351.206 336.689 351.532 337.02 351.757 337.426C351.978 337.833 352.088 338.321 352.088 338.89C352.087 339.61 351.89 340.206 351.497 340.678C351.104 341.146 350.537 341.496 349.795 341.73C349.049 341.959 348.15 342.073 347.099 342.073C346.066 342.072 345.179 341.968 344.437 341.76C343.691 341.548 343.12 341.208 342.722 340.739C342.321 340.271 342.12 339.653 342.121 338.885C342.121 338.156 342.32 337.556 342.718 337.084C343.111 336.612 343.681 336.261 344.427 336.032C345.169 335.803 346.061 335.688 347.103 335.689ZM347.1 340.967C348 340.967 348.751 340.899 349.352 340.763C349.952 340.626 350.403 340.406 350.703 340.101C350.999 339.792 351.147 339.388 351.147 338.89C351.148 338.391 351 337.989 350.704 337.684C350.409 337.375 349.961 337.152 349.36 337.014C348.76 336.873 348.007 336.802 347.102 336.801C346.215 336.801 345.473 336.869 344.877 337.005C344.276 337.142 343.826 337.363 343.525 337.667C343.221 337.971 343.068 338.378 343.068 338.885C343.068 339.393 343.22 339.799 343.524 340.104C343.824 340.409 344.274 340.63 344.875 340.767C345.471 340.9 346.212 340.966 347.1 340.967Z" fill="#494949"/>
<path d="M347.098 343.45C347.884 343.451 348.586 343.511 349.204 343.63C349.822 343.75 350.345 343.938 350.774 344.194C351.202 344.45 351.528 344.782 351.753 345.188C351.974 345.594 352.084 346.082 352.084 346.652C352.083 347.371 351.886 347.967 351.493 348.439C351.1 348.907 350.532 349.258 349.791 349.491C349.044 349.721 348.146 349.835 347.095 349.834C346.062 349.834 345.175 349.73 344.433 349.522C343.687 349.309 343.115 348.969 342.718 348.501C342.317 348.033 342.116 347.414 342.117 346.646C342.117 345.918 342.316 345.317 342.714 344.845C343.107 344.373 343.677 344.022 344.423 343.793C345.165 343.564 346.057 343.45 347.098 343.45ZM347.096 348.728C347.996 348.729 348.747 348.661 349.347 348.524C349.948 348.388 350.398 348.167 350.699 347.863C350.995 347.554 351.143 347.15 351.143 346.651C351.143 346.152 350.996 345.75 350.7 345.446C350.404 345.136 349.956 344.913 349.356 344.776C348.756 344.634 348.003 344.563 347.098 344.563C346.21 344.562 345.469 344.63 344.873 344.767C344.272 344.904 343.822 345.124 343.521 345.428C343.216 345.733 343.064 346.139 343.064 346.647C343.063 347.155 343.216 347.561 343.52 347.866C343.82 348.17 344.27 348.391 344.871 348.529C345.467 348.661 346.208 348.728 347.096 348.728Z" fill="#494949"/>
<path fill-rule="evenodd" clip-rule="evenodd" d="M347.015 280.036C347.052 279.988 347.09 279.942 347.13 279.897C347.602 279.361 348.259 279.122 349.02 279.122C349.549 279.122 350.033 279.229 350.446 279.473C350.416 279.453 350.386 279.433 350.354 279.415C349.97 279.185 349.497 279.06 348.914 279.059C348.39 279.059 347.98 279.175 347.658 279.379L347.654 279.381C347.395 279.543 347.182 279.758 347.015 280.036ZM350.629 278.956C351.106 279.243 351.475 279.656 351.735 280.195C351.991 280.734 352.118 281.378 352.118 282.129C352.118 282.632 352.073 283.1 351.985 283.533C351.896 283.965 351.763 284.329 351.587 284.625L350.54 284.625C350.638 284.464 350.725 284.285 350.802 284.09C350.88 283.895 350.947 283.682 351.005 283.453C351.12 282.994 351.177 282.548 351.177 282.115C351.178 281.625 351.101 281.197 350.946 280.83C350.788 280.459 350.549 280.172 350.232 279.969C349.909 279.761 349.505 279.657 349.02 279.657C348.375 279.657 347.878 279.855 347.529 280.252C347.176 280.645 346.999 281.267 346.999 282.119C346.999 282.393 347.02 282.693 347.064 283.02C347.108 283.347 347.157 283.616 347.21 283.828L346.845 284.384L342.302 284.011L342.305 279.196L343.311 279.197L343.309 283.071L346.23 283.318C346.199 283.173 346.169 282.991 346.138 282.773C346.134 282.739 346.129 282.704 346.124 282.669C346.085 282.404 346.065 282.104 346.065 281.768C346.065 281.11 346.178 280.538 346.404 280.053C346.625 279.567 346.947 279.192 347.371 278.928C347.795 278.659 348.31 278.524 348.914 278.524C349.577 278.525 350.148 278.669 350.629 278.956Z" fill="#F0F0F0"/>
<path fill-rule="evenodd" clip-rule="evenodd" d="M344.453 286.535C343.707 286.764 343.137 287.115 342.744 287.587C342.346 288.06 342.147 288.66 342.147 289.388C342.147 290.157 342.347 290.775 342.749 291.243C343.146 291.711 343.717 292.051 344.463 292.264C345.205 292.472 346.092 292.576 347.125 292.576C348.176 292.577 349.075 292.463 349.821 292.233C350.563 292 351.13 291.649 351.523 291.181C351.917 290.709 352.113 290.113 352.114 289.394C352.114 288.824 352.004 288.336 351.783 287.93C351.558 287.524 351.232 287.192 350.804 286.936C350.376 286.68 349.853 286.492 349.235 286.372C348.617 286.253 347.915 286.193 347.129 286.192C346.087 286.192 345.195 286.306 344.453 286.535ZM350.73 288.188C350.435 287.878 349.987 287.655 349.386 287.518C348.786 287.376 348.033 287.305 347.128 287.305C346.241 287.304 345.499 287.373 344.903 287.509C344.302 287.646 343.852 287.866 343.552 288.171C343.247 288.475 343.094 288.881 343.094 289.389C343.094 289.897 343.246 290.303 343.55 290.608C343.85 290.912 344.301 291.133 344.901 291.271C345.497 291.403 346.239 291.47 347.126 291.47C348.027 291.471 348.777 291.403 349.378 291.266C349.978 291.13 350.429 290.909 350.729 290.605C351.025 290.296 351.173 289.892 351.173 289.393C351.174 288.894 351.026 288.492 350.73 288.188ZM344.979 286.946C345.588 286.826 346.307 286.77 347.128 286.77C348.056 286.771 348.853 286.843 349.507 286.997C349.656 287.031 349.799 287.07 349.937 287.116C349.698 287.028 349.43 286.955 349.133 286.897C348.555 286.786 347.888 286.728 347.128 286.727C346.298 286.727 345.584 286.802 344.979 286.946ZM344.631 291.755C345.308 291.942 346.137 292.041 347.126 292.042C347.872 292.042 348.525 291.982 349.089 291.867C348.522 291.961 347.865 292.006 347.126 292.005C346.215 292.005 345.432 291.937 344.785 291.793L344.782 291.792C344.731 291.78 344.68 291.768 344.631 291.755Z" fill="#F0F0F0"/>
<path fill-rule="evenodd" clip-rule="evenodd" d="M350.634 295.605C350.762 295.755 350.98 295.83 351.29 295.83C351.594 295.83 351.817 295.756 351.959 295.605C352.095 295.455 352.164 295.272 352.164 295.056C352.164 294.831 352.096 294.641 351.959 294.486C351.818 294.332 351.595 294.254 351.29 294.254C350.981 294.254 350.763 294.331 350.635 294.486C350.502 294.64 350.436 294.83 350.436 295.055C350.436 295.271 350.502 295.455 350.634 295.605ZM351.563 294.845C351.552 294.836 351.493 294.789 351.29 294.789C351.114 294.789 351.055 294.822 351.044 294.83L351.043 294.83L351.041 294.834C351 294.881 350.971 294.943 350.97 295.055C350.97 295.153 350.996 295.207 351.035 295.251L351.038 295.254C351.048 295.261 351.109 295.295 351.29 295.295C351.497 295.296 351.558 295.249 351.568 295.24C351.606 295.196 351.629 295.145 351.629 295.056C351.629 294.952 351.602 294.892 351.563 294.845ZM351.042 294.832C351.042 294.832 351.042 294.831 351.043 294.831C351.042 294.832 351.042 294.832 351.042 294.832ZM344.747 295.602C344.875 295.752 345.098 295.827 345.415 295.827C345.716 295.827 345.934 295.752 346.071 295.602C346.208 295.452 346.277 295.269 346.277 295.053C346.277 294.828 346.209 294.638 346.072 294.483C345.935 294.329 345.716 294.251 345.416 294.251C345.098 294.251 344.875 294.328 344.747 294.482C344.615 294.637 344.548 294.827 344.548 295.052C344.548 295.268 344.614 295.451 344.747 295.602ZM345.15 295.251C345.154 295.253 345.163 295.258 345.181 295.264C345.222 295.278 345.296 295.292 345.416 295.292C345.523 295.292 345.592 295.279 345.631 295.265C345.667 295.253 345.676 295.242 345.676 295.242C345.717 295.197 345.742 295.145 345.742 295.053C345.742 294.945 345.713 294.885 345.671 294.838C345.67 294.836 345.661 294.826 345.627 294.813C345.589 294.8 345.522 294.786 345.416 294.786C345.297 294.786 345.225 294.801 345.185 294.814C345.169 294.82 345.16 294.825 345.156 294.827L345.156 294.827L345.153 294.831C345.113 294.878 345.083 294.94 345.083 295.052C345.083 295.15 345.109 295.204 345.148 295.248L345.15 295.251ZM345.154 294.829C345.154 294.829 345.154 294.828 345.155 294.828C345.154 294.829 345.154 294.829 345.154 294.829ZM345.149 295.25C345.148 295.249 345.148 295.249 345.148 295.249C345.148 295.249 345.148 295.249 345.149 295.25Z" fill="#F0F0F0"/>
<path fill-rule="evenodd" clip-rule="evenodd" d="M344.447 297.86C343.701 298.089 343.131 298.44 342.738 298.912C342.34 299.384 342.141 299.984 342.141 300.713C342.141 301.481 342.341 302.099 342.743 302.567C343.14 303.036 343.711 303.376 344.457 303.588C345.199 303.796 346.086 303.9 347.12 303.901C348.17 303.901 349.069 303.787 349.815 303.558C350.557 303.324 351.124 302.974 351.518 302.506C351.911 302.034 352.108 301.438 352.108 300.718C352.108 300.148 351.998 299.661 351.778 299.254C351.553 298.848 351.226 298.517 350.798 298.26C350.37 298.004 349.847 297.816 349.229 297.697C348.611 297.577 347.909 297.517 347.123 297.517C346.081 297.516 345.189 297.63 344.447 297.86ZM350.724 299.512C350.429 299.203 349.981 298.98 349.38 298.842C348.78 298.701 348.027 298.63 347.122 298.629C346.235 298.629 345.493 298.697 344.897 298.833C344.297 298.97 343.846 299.19 343.546 299.495C343.241 299.799 343.088 300.205 343.088 300.713C343.088 301.221 343.24 301.627 343.544 301.932C343.844 302.237 344.295 302.458 344.895 302.595C345.491 302.728 346.233 302.794 347.12 302.795C348.021 302.795 348.771 302.727 349.372 302.591C349.972 302.454 350.423 302.234 350.723 301.929C351.019 301.62 351.167 301.216 351.168 300.717C351.168 300.219 351.02 299.817 350.724 299.512ZM344.974 298.27C345.582 298.15 346.301 298.094 347.123 298.094C348.051 298.095 348.847 298.167 349.501 298.321C349.65 298.355 349.793 298.395 349.931 298.44C349.692 298.353 349.424 298.279 349.127 298.222C348.55 298.11 347.882 298.052 347.123 298.052C346.292 298.051 345.578 298.126 344.974 298.27ZM344.625 303.08C345.302 303.267 346.131 303.365 347.12 303.366C347.866 303.366 348.519 303.307 349.083 303.192C348.516 303.286 347.86 303.33 347.12 303.33C346.209 303.329 345.426 303.261 344.779 303.117L344.776 303.116C344.725 303.105 344.675 303.092 344.625 303.08Z" fill="#F0F0F0"/>
<path fill-rule="evenodd" clip-rule="evenodd" d="M346.005 307.119C346.372 307.291 346.745 307.543 347.124 307.874C347.504 308.201 347.936 308.605 348.422 309.087L351.049 311.678L351.97 311.678L351.973 305.334L350.967 305.333L350.964 310.28L350.918 310.28L348.819 308.173C348.338 307.683 347.884 307.254 347.456 306.888C347.023 306.521 346.589 306.236 346.152 306.033C345.71 305.829 345.233 305.728 344.721 305.727C344.192 305.727 343.735 305.846 343.35 306.084C342.966 306.318 342.67 306.651 342.462 307.084C342.255 307.516 342.151 308.031 342.15 308.627C342.15 309.02 342.198 309.39 342.295 309.739C342.392 310.084 342.525 310.408 342.692 310.713C342.771 310.854 342.855 310.99 342.945 311.122C342.987 311.184 343.031 311.245 343.076 311.305C343.137 311.388 343.202 311.469 343.268 311.548L344.01 310.959C343.719 310.583 343.494 310.217 343.335 309.859C343.176 309.501 343.097 309.091 343.097 308.627C343.098 308.097 343.244 307.671 343.535 307.349C343.822 307.023 344.24 306.86 344.787 306.86C345.228 306.86 345.635 306.946 346.005 307.119ZM343.138 306.991C343.551 306.524 344.131 306.325 344.787 306.325C345.162 306.325 345.52 306.379 345.861 306.489C345.512 306.339 345.134 306.262 344.721 306.262C344.274 306.262 343.918 306.362 343.632 306.539L343.628 306.541C343.438 306.657 343.275 306.805 343.138 306.991ZM350.936 310.815L351.269 311.143L351.435 311.143L351.435 310.815L350.936 310.815ZM343.138 306.991C343.137 306.992 343.137 306.992 343.136 306.993C343.05 307.089 342.974 307.191 342.908 307.298C342.67 307.682 342.563 308.134 342.562 308.627C342.562 308.979 342.603 309.314 342.688 309.629" fill="#F0F0F0"/>
<path fill-rule="evenodd" clip-rule="evenodd" d="M350.624 314.691C350.751 314.841 350.97 314.916 351.279 314.916C351.584 314.916 351.807 314.841 351.948 314.691C352.085 314.541 352.154 314.358 352.154 314.142C352.154 313.917 352.085 313.727 351.949 313.572C351.807 313.418 351.585 313.34 351.28 313.34C350.971 313.34 350.752 313.417 350.624 313.571C350.492 313.726 350.425 313.916 350.425 314.141C350.425 314.357 350.491 314.54 350.624 314.691ZM351.552 313.931C351.542 313.922 351.483 313.875 351.28 313.875C351.104 313.875 351.044 313.908 351.033 313.916L351.033 313.916L351.03 313.92C350.99 313.967 350.96 314.029 350.96 314.141C350.96 314.239 350.986 314.293 351.025 314.337L351.027 314.34C351.038 314.347 351.098 314.381 351.279 314.381C351.486 314.381 351.547 314.335 351.557 314.326C351.596 314.282 351.619 314.231 351.619 314.142C351.619 314.038 351.592 313.978 351.552 313.931ZM351.031 313.918C351.031 313.918 351.031 313.917 351.032 313.917C351.032 313.917 351.031 313.918 351.031 313.918ZM344.736 314.688C344.864 314.838 345.087 314.913 345.405 314.913C345.705 314.913 345.924 314.838 346.061 314.688C346.198 314.538 346.266 314.355 346.266 314.139C346.266 313.914 346.198 313.724 346.061 313.569C345.924 313.414 345.706 313.337 345.406 313.337C345.088 313.337 344.865 313.414 344.737 313.568C344.604 313.723 344.538 313.913 344.538 314.138C344.538 314.354 344.604 314.537 344.736 314.688ZM345.14 314.337C345.144 314.339 345.153 314.344 345.17 314.35C345.211 314.364 345.285 314.378 345.405 314.378C345.513 314.378 345.581 314.365 345.621 314.351C345.657 314.339 345.666 314.328 345.666 314.328C345.706 314.283 345.731 314.231 345.731 314.138C345.731 314.031 345.703 313.971 345.661 313.923C345.659 313.922 345.651 313.911 345.616 313.899C345.578 313.886 345.512 313.872 345.405 313.872C345.287 313.872 345.214 313.886 345.175 313.9C345.158 313.906 345.149 313.911 345.146 313.913L345.146 313.913L345.143 313.917C345.102 313.964 345.073 314.026 345.073 314.138C345.073 314.235 345.098 314.29 345.137 314.334L345.14 314.337ZM345.144 313.915C345.144 313.915 345.144 313.914 345.145 313.914C345.144 313.914 345.144 313.915 345.144 313.915ZM345.138 314.336C345.138 314.335 345.137 314.335 345.137 314.335C345.138 314.335 345.138 314.335 345.138 314.336Z" fill="#F0F0F0"/>
<path fill-rule="evenodd" clip-rule="evenodd" d="M342.733 321.653C343.13 322.122 343.701 322.462 344.447 322.674C345.189 322.882 346.076 322.986 347.109 322.987C348.16 322.987 349.059 322.873 349.805 322.644C350.547 322.41 351.114 322.06 351.507 321.592C351.901 321.12 352.097 320.524 352.098 319.804C352.098 319.234 351.988 318.747 351.767 318.34C351.542 317.934 351.216 317.603 350.788 317.346C350.36 317.09 349.837 316.902 349.218 316.783C348.6 316.663 347.899 316.603 347.113 316.603C346.071 316.602 345.179 316.716 344.437 316.946C343.691 317.175 343.121 317.526 342.728 317.998C342.33 318.47 342.131 319.07 342.131 319.799C342.13 320.567 342.331 321.185 342.733 321.653ZM349.921 317.526C349.682 317.439 349.414 317.365 349.117 317.308C348.539 317.196 347.872 317.138 347.112 317.138C346.282 317.137 345.568 317.212 344.963 317.356C345.572 317.236 346.291 317.18 347.112 317.18C348.04 317.181 348.837 317.253 349.491 317.407C349.64 317.441 349.783 317.481 349.921 317.526ZM344.615 322.166C345.292 322.353 346.121 322.451 347.11 322.452C347.856 322.452 348.509 322.393 349.073 322.278C348.506 322.372 347.849 322.416 347.11 322.416C346.199 322.415 345.415 322.347 344.768 322.203L344.766 322.202C344.715 322.191 344.664 322.178 344.615 322.166ZM350.714 318.598C350.419 318.289 349.971 318.066 349.37 317.928C348.77 317.787 348.017 317.716 347.112 317.715C346.225 317.715 345.483 317.783 344.887 317.919C344.286 318.056 343.836 318.276 343.535 318.581C343.231 318.885 343.078 319.292 343.078 319.799C343.078 320.307 343.23 320.713 343.534 321.018C343.834 321.323 344.284 321.544 344.885 321.681C345.481 321.814 346.222 321.88 347.11 321.881C348.01 321.881 348.761 321.813 349.362 321.677C349.962 321.54 350.413 321.32 350.713 321.015C351.009 320.706 351.157 320.302 351.157 319.804C351.158 319.305 351.01 318.903 350.714 318.598Z" fill="#F0F0F0"/>
<path fill-rule="evenodd" clip-rule="evenodd" d="M342.729 329.415C343.126 329.883 343.697 330.223 344.443 330.436C345.185 330.644 346.072 330.748 347.105 330.748C348.156 330.749 349.055 330.635 349.801 330.405C350.543 330.172 351.11 329.821 351.503 329.353C351.897 328.881 352.093 328.285 352.094 327.566C352.094 326.996 351.984 326.508 351.763 326.102C351.538 325.696 351.212 325.364 350.784 325.108C350.356 324.852 349.833 324.664 349.215 324.544C348.597 324.425 347.895 324.365 347.109 324.364C346.067 324.364 345.175 324.478 344.433 324.707C343.687 324.936 343.117 325.287 342.724 325.759C342.326 326.232 342.127 326.832 342.127 327.56C342.127 328.329 342.327 328.947 342.729 329.415ZM349.917 325.288C349.678 325.2 349.41 325.127 349.113 325.069C348.535 324.958 347.868 324.9 347.108 324.899C346.278 324.899 345.564 324.974 344.959 325.118C345.568 324.998 346.287 324.942 347.108 324.942C348.037 324.943 348.833 325.015 349.487 325.169C349.636 325.203 349.779 325.242 349.917 325.288ZM344.611 329.927C345.288 330.114 346.117 330.213 347.106 330.214C347.852 330.214 348.505 330.154 349.069 330.039C348.502 330.133 347.845 330.178 347.106 330.177C346.195 330.177 345.412 330.109 344.765 329.965L344.762 329.964C344.711 329.952 344.66 329.94 344.611 329.927ZM350.71 326.36C350.415 326.05 349.967 325.827 349.366 325.69C348.766 325.548 348.013 325.477 347.108 325.477C346.221 325.476 345.479 325.544 344.883 325.681C344.282 325.818 343.832 326.038 343.532 326.343C343.227 326.647 343.074 327.053 343.074 327.561C343.074 328.069 343.226 328.475 343.53 328.78C343.83 329.084 344.281 329.305 344.881 329.443C345.477 329.575 346.219 329.642 347.106 329.642C348.007 329.643 348.757 329.575 349.358 329.438C349.958 329.302 350.409 329.081 350.709 328.777C351.005 328.468 351.153 328.064 351.153 327.565C351.154 327.066 351.006 326.664 350.71 326.36Z" fill="#F0F0F0"/>
<path fill-rule="evenodd" clip-rule="evenodd" d="M350.614 333.777C350.741 333.927 350.96 334.002 351.269 334.002C351.574 334.002 351.797 333.927 351.938 333.777C352.075 333.627 352.143 333.444 352.144 333.228C352.144 333.003 352.075 332.813 351.939 332.658C351.797 332.504 351.574 332.426 351.27 332.426C350.961 332.426 350.742 332.503 350.614 332.657C350.482 332.812 350.415 333.002 350.415 333.227C350.415 333.443 350.481 333.626 350.614 333.777ZM344.726 333.774C344.854 333.924 345.077 333.999 345.395 333.999C345.695 333.999 345.914 333.924 346.051 333.774C346.188 333.624 346.256 333.441 346.256 333.225C346.256 333 346.188 332.81 346.051 332.655C345.914 332.5 345.696 332.423 345.396 332.423C345.078 332.423 344.855 332.5 344.727 332.654C344.594 332.809 344.528 332.999 344.528 333.224C344.528 333.44 344.594 333.623 344.726 333.774ZM351.017 333.426C351.028 333.433 351.088 333.467 351.269 333.467C351.476 333.467 351.537 333.421 351.547 333.412C351.586 333.368 351.609 333.317 351.609 333.228C351.609 333.124 351.582 333.064 351.542 333.017C351.532 333.008 351.473 332.961 351.27 332.961C351.094 332.961 351.034 332.994 351.023 333.002L351.023 333.002L351.02 333.006C350.98 333.053 350.95 333.115 350.95 333.227C350.95 333.325 350.976 333.379 351.015 333.423L351.017 333.426ZM351.021 333.004C351.021 333.004 351.021 333.003 351.022 333.003C351.022 333.003 351.021 333.004 351.021 333.004ZM351.016 333.425C351.016 333.425 351.016 333.425 351.016 333.425L351.016 333.425ZM345.13 333.423C345.134 333.425 345.143 333.43 345.16 333.436C345.201 333.45 345.275 333.464 345.395 333.464C345.503 333.464 345.571 333.451 345.611 333.437C345.646 333.425 345.655 333.414 345.656 333.414L345.656 333.414C345.696 333.369 345.721 333.317 345.721 333.224C345.721 333.117 345.693 333.057 345.651 333.009L345.651 333.009C345.649 333.008 345.64 332.997 345.606 332.985C345.568 332.972 345.502 332.958 345.395 332.958C345.277 332.958 345.204 332.972 345.165 332.986C345.148 332.992 345.139 332.997 345.136 332.999L345.136 332.999L345.133 333.003C345.092 333.05 345.063 333.112 345.063 333.224C345.063 333.321 345.088 333.376 345.127 333.42L345.13 333.423ZM345.134 333.001C345.134 333.001 345.134 333 345.135 333C345.134 333 345.134 333.001 345.134 333.001ZM345.128 333.422C345.128 333.421 345.127 333.421 345.127 333.421C345.127 333.421 345.128 333.421 345.128 333.422Z" fill="#F0F0F0"/>
<path fill-rule="evenodd" clip-rule="evenodd" d="M342.722 340.739C343.12 341.208 343.691 341.548 344.437 341.76C345.179 341.968 346.066 342.072 347.099 342.073C348.15 342.073 349.049 341.959 349.795 341.73C350.537 341.496 351.104 341.146 351.497 340.678C351.89 340.206 352.087 339.61 352.088 338.89C352.088 338.321 351.978 337.833 351.757 337.426C351.532 337.02 351.206 336.689 350.778 336.432C350.35 336.176 349.827 335.988 349.208 335.869C348.59 335.749 347.888 335.689 347.103 335.689C346.061 335.688 345.169 335.803 344.427 336.032C343.681 336.261 343.111 336.612 342.718 337.084C342.32 337.556 342.121 338.156 342.121 338.885C342.12 339.653 342.321 340.271 342.722 340.739ZM349.911 336.612C349.671 336.525 349.404 336.451 349.107 336.394C348.529 336.282 347.862 336.224 347.102 336.224C346.272 336.223 345.558 336.299 344.953 336.442C345.562 336.322 346.281 336.266 347.102 336.266C348.03 336.267 348.827 336.339 349.481 336.493C349.63 336.527 349.773 336.567 349.911 336.612ZM344.605 341.252C345.282 341.439 346.111 341.537 347.1 341.538C347.846 341.538 348.499 341.479 349.063 341.364C348.496 341.458 347.839 341.502 347.1 341.502C346.189 341.501 345.405 341.433 344.758 341.289L344.756 341.288C344.705 341.277 344.654 341.265 344.605 341.252ZM350.704 337.684C350.409 337.375 349.961 337.152 349.36 337.014C348.76 336.873 348.007 336.802 347.102 336.801C346.215 336.801 345.473 336.869 344.877 337.005C344.276 337.142 343.826 337.363 343.525 337.667C343.221 337.971 343.068 338.378 343.068 338.885C343.068 339.393 343.22 339.799 343.524 340.104C343.824 340.409 344.274 340.63 344.875 340.767C345.471 340.9 346.212 340.966 347.1 340.967C348 340.967 348.751 340.899 349.352 340.763C349.952 340.626 350.403 340.406 350.703 340.101C350.999 339.792 351.147 339.388 351.147 338.89C351.148 338.391 351 337.989 350.704 337.684Z" fill="#F0F0F0"/>
<path fill-rule="evenodd" clip-rule="evenodd" d="M342.714 344.845C342.316 345.317 342.117 345.918 342.117 346.646C342.116 347.414 342.317 348.033 342.718 348.501C343.115 348.969 343.687 349.309 344.433 349.522C345.175 349.73 346.062 349.834 347.095 349.834C348.146 349.835 349.044 349.721 349.791 349.491C350.532 349.258 351.1 348.907 351.493 348.439C351.886 347.967 352.083 347.371 352.084 346.652C352.084 346.082 351.974 345.594 351.753 345.188C351.528 344.782 351.202 344.45 350.774 344.194C350.345 343.938 349.822 343.75 349.204 343.63C348.586 343.511 347.884 343.451 347.098 343.45C346.057 343.45 345.165 343.564 344.423 343.793C343.677 344.022 343.107 344.373 342.714 344.845ZM349.906 344.374C349.667 344.286 349.4 344.213 349.103 344.155C348.525 344.044 347.858 343.986 347.098 343.985C346.268 343.985 345.554 344.06 344.949 344.204C345.558 344.084 346.277 344.028 347.098 344.028C348.026 344.028 348.823 344.101 349.477 344.255C349.626 344.289 349.769 344.328 349.906 344.374ZM344.6 349.013C345.278 349.2 346.107 349.299 347.095 349.299C347.841 349.3 348.495 349.24 349.059 349.125C348.491 349.219 347.835 349.264 347.095 349.263C346.185 349.263 345.401 349.195 344.754 349.051L344.751 349.05L344.751 349.05C344.701 349.038 344.65 349.026 344.6 349.013ZM350.7 345.446C350.404 345.136 349.956 344.913 349.356 344.776C348.756 344.634 348.003 344.563 347.098 344.563C346.21 344.562 345.469 344.63 344.873 344.767C344.272 344.904 343.822 345.124 343.521 345.428C343.216 345.733 343.064 346.139 343.064 346.647C343.063 347.155 343.216 347.561 343.52 347.866C343.82 348.17 344.27 348.391 344.871 348.529C345.467 348.661 346.208 348.728 347.096 348.728C347.996 348.729 348.747 348.661 349.347 348.524C349.948 348.388 350.398 348.167 350.699 347.863C350.995 347.554 351.143 347.15 351.143 346.651C351.143 346.152 350.996 345.75 350.7 345.446Z" fill="#F0F0F0"/>
</svg>
