<svg width="83" height="83" viewBox="0 0 83 83" fill="none" xmlns="http://www.w3.org/2000/svg">
<path d="M73.883 11.6719H9.03921C8.00761 11.6727 7.01849 12.0829 6.28903 12.8123C5.55957 13.5418 5.14941 14.5309 5.14859 15.5625V67.4375C5.14942 68.4691 5.55959 69.4582 6.28905 70.1877C7.0185 70.9171 8.00761 71.3273 9.03921 71.3281H73.883C74.9139 71.3251 75.9017 70.9142 76.6307 70.1852C77.3597 69.4563 77.7706 68.4684 77.7736 67.4375V15.5625C77.7706 14.5316 77.3597 13.5437 76.6307 12.8147C75.9017 12.0858 74.9139 11.6749 73.883 11.6719ZM75.1798 67.4375C75.1788 67.7811 75.0419 68.1104 74.7989 68.3534C74.5559 68.5964 74.2266 68.7334 73.883 68.7344H9.03921C8.69558 68.7333 8.36631 68.5964 8.12332 68.3534C7.88033 68.1104 7.74337 67.7811 7.74234 67.4375V24.6406H46.3373L56.44 29.6855C56.6206 29.7782 56.8206 29.827 57.0236 29.8281H75.1798V67.4375ZM75.1798 27.2344H57.3219L47.2322 22.1895C47.051 22.0982 46.8514 22.0495 46.6486 22.0469H7.74234V15.5625C7.74337 15.2189 7.88033 14.8896 8.12332 14.6466C8.36631 14.4036 8.69558 14.2667 9.03921 14.2656H73.883C74.2266 14.2666 74.5559 14.4036 74.7989 14.6466C75.0419 14.8896 75.1788 15.2189 75.1798 15.5625V27.2344Z" fill="#F0F0F0"/>
<path d="M68.6955 20.1533C68.7034 20.6641 68.9118 21.1512 69.2757 21.5095C69.6397 21.8679 70.13 22.0688 70.6407 22.0688C71.1515 22.0688 71.6418 21.868 72.0058 21.5096C72.3697 21.1512 72.5782 20.6641 72.5861 20.1534C72.5782 19.6427 72.3698 19.1556 72.0058 18.7972C71.6419 18.4389 71.1516 18.238 70.6408 18.238C70.13 18.238 69.6398 18.4388 69.2758 18.7972C68.9118 19.1555 68.7034 19.6426 68.6955 20.1533Z" fill="#F0F0F0"/>
<path d="M60.9142 20.1533C60.9221 20.6641 61.1305 21.1512 61.4945 21.5095C61.8584 21.8679 62.3487 22.0688 62.8595 22.0688C63.3703 22.0688 63.8605 21.868 64.2245 21.5096C64.5885 21.1512 64.7969 20.6641 64.8048 20.1534C64.7969 19.6427 64.5885 19.1556 64.2246 18.7972C63.8606 18.4389 63.3703 18.238 62.8596 18.238C62.3488 18.238 61.8585 18.4388 61.4945 18.7972C61.1306 19.1555 60.9221 19.6426 60.9142 20.1533Z" fill="#F0F0F0"/>
<path d="M53.133 20.1533C53.1409 20.6641 53.3493 21.1512 53.7132 21.5095C54.0772 21.8679 54.5675 22.0688 55.0782 22.0688C55.589 22.0688 56.0793 21.868 56.4433 21.5096C56.8072 21.1512 57.0157 20.6641 57.0236 20.1534C57.0157 19.6427 56.8073 19.1556 56.4433 18.7972C56.0794 18.4389 55.5891 18.238 55.0783 18.238C54.5675 18.238 54.0773 18.4388 53.7133 18.7972C53.3493 19.1555 53.1409 19.6426 53.133 20.1533Z" fill="#F0F0F0"/>
<path d="M41.5 30.0928C37.0302 30.098 32.745 31.8759 29.5843 35.0365C26.4237 38.1971 24.6458 42.4824 24.6406 46.9522C25.5672 69.3184 57.4362 69.3118 58.3594 46.952C58.3542 42.4822 56.5763 38.197 53.4156 35.0364C50.255 31.8758 45.9698 30.098 41.5 30.0928ZM41.5 61.2178C37.7178 61.2135 34.0918 59.7092 31.4174 57.0348C28.743 54.3604 27.2386 50.7343 27.2344 46.9522C28.0179 28.0269 54.9849 28.0324 55.7656 46.9523C55.7613 50.7344 54.257 54.3604 51.5826 57.0348C48.9082 59.7092 45.2822 61.2135 41.5 61.2178Z" fill="#F0F0F0"/>
<path d="M48.3644 40.8478L38.9063 50.3058L34.6356 46.0352C34.3909 45.7998 34.0635 45.6698 33.724 45.6731C33.3844 45.6764 33.0596 45.8128 32.8195 46.0529C32.5794 46.2931 32.443 46.6178 32.4397 46.9574C32.4364 47.297 32.5664 47.6243 32.8019 47.869L37.9893 53.0565C38.1097 53.177 38.2526 53.2726 38.4099 53.3377C38.5673 53.4029 38.7359 53.4365 38.9062 53.4365C39.0765 53.4365 39.2452 53.4029 39.4025 53.3377C39.5598 53.2726 39.7028 53.177 39.8231 53.0565L50.1981 42.6815C50.4325 42.4366 50.5616 42.1096 50.5579 41.7706C50.5541 41.4316 50.4178 41.1075 50.1781 40.8678C49.9384 40.6281 49.6143 40.4918 49.2753 40.488C48.9363 40.4843 48.6093 40.6134 48.3644 40.8478Z" fill="#F0F0F0"/>
</svg>
