<svg width="196" height="85" viewBox="0 0 196 85" fill="none" xmlns="http://www.w3.org/2000/svg">
<path d="M5.25188 49.96C4.66521 49.96 4.10521 49.8533 3.57187 49.64C3.01187 49.4267 2.49187 49.08 2.01187 48.6C1.77187 48.0133 1.59854 47.6267 1.49187 47.44C1.35854 47.28 1.11854 47.04 0.771875 46.72C0.771875 46.5867 0.825208 46.3333 0.931875 45.96C1.03854 45.6133 1.19854 45.3067 1.41187 45.04C1.97187 44.3733 2.65187 43.7733 3.45187 43.24C4.25187 42.7333 5.18521 42.2933 6.25188 41.92C6.38521 41.8667 6.51854 41.8 6.65188 41.72C6.81188 41.6667 6.95854 41.64 7.09188 41.64C7.22521 41.64 7.30521 41.56 7.33188 41.4C7.38521 41.24 7.50521 41.2267 7.69188 41.36C7.82521 41.3067 7.93188 41.24 8.01188 41.16C8.09188 41.08 8.22521 41.0667 8.41188 41.12C8.41188 41.12 8.55854 41.08 8.85188 41C9.17188 40.92 9.53188 40.8133 9.93188 40.68C10.3319 40.5733 10.6785 40.4667 10.9719 40.36C11.2919 40.28 11.4519 40.24 11.4519 40.24C11.5052 39.52 11.5185 38.7733 11.4919 38C11.4919 37.2267 11.2785 36.6533 10.8519 36.28C10.5852 35.9867 10.3719 35.6533 10.2119 35.28C10.0785 34.9067 9.90521 34.5067 9.69188 34.08C9.74521 33.84 9.83854 33.64 9.97188 33.48C10.1052 33.32 10.2919 33.1867 10.5319 33.08C11.0385 32.84 11.6519 32.4667 12.3719 31.96C13.1185 31.4267 13.8785 30.8 14.6519 30.08C15.4252 29.36 16.1052 28.5867 16.6919 27.76C17.0652 27.2267 17.1985 26.72 17.0919 26.24C17.0119 25.76 16.5452 25.4667 15.6919 25.36C15.1585 25.36 14.5585 25.5467 13.8919 25.92C13.2252 26.2667 12.5319 26.7467 11.8119 27.36C11.3852 27.52 11.0785 27.48 10.8919 27.24C10.7052 26.9733 10.5585 26.68 10.4519 26.36C10.5052 26.0667 10.6119 25.8133 10.7719 25.6C10.9319 25.36 11.1052 25.1333 11.2919 24.92C11.5052 24.7067 11.6919 24.48 11.8519 24.24C12.0652 24.1333 12.2519 24.0267 12.4119 23.92C12.5719 23.7867 12.7452 23.6667 12.9319 23.56C13.0919 23.4533 13.2519 23.3733 13.4119 23.32C13.5985 23.24 13.7852 23.2 13.9719 23.2C14.1319 23.2 14.2919 23.1733 14.4519 23.12C14.6119 23.04 14.7852 23 14.9719 23C16.2252 23.0533 17.2119 23.5333 17.9319 24.44C18.6519 25.3467 18.9719 26.24 18.8919 27.12C18.8385 28 18.3852 29.1467 17.5319 30.56C17.2919 30.96 16.8919 31.3867 16.3319 31.84C15.7985 32.2933 15.2252 32.7333 14.6119 33.16C14.0252 33.5867 13.5052 33.96 13.0519 34.28C12.5985 34.5733 12.3319 34.76 12.2519 34.84C12.4919 35.1333 12.7452 35.6267 13.0119 36.32C13.2785 36.9867 13.4919 37.6667 13.6519 38.36C13.8385 39.08 13.8652 39.64 13.7319 40.04C13.9985 40.0933 14.3319 40.0667 14.7319 39.96C15.1585 39.88 15.4919 39.84 15.7319 39.84C15.9719 40.08 16.2119 40.3067 16.4519 40.52C16.6919 40.7333 16.8119 40.96 16.8119 41.2C16.8652 41.36 16.8252 41.5067 16.6919 41.64C16.5852 41.7733 16.4652 41.8533 16.3319 41.88C15.9852 41.9333 15.5452 41.9467 15.0119 41.92C14.4785 41.8933 13.9585 41.9867 13.4519 42.2C13.0785 42.76 12.7585 43.3733 12.4919 44.04C12.2252 44.7333 11.8785 45.44 11.4519 46.16C11.0252 46.9067 10.3585 47.6667 9.45188 48.44C9.13188 48.7067 8.79854 48.9467 8.45188 49.16C8.10521 49.4 7.82521 49.52 7.61188 49.52C7.18521 49.6533 6.77188 49.76 6.37188 49.84C5.99854 49.92 5.62521 49.96 5.25188 49.96ZM3.53187 47.92C3.53187 47.9733 3.73187 47.9867 4.13187 47.96C4.50521 47.96 4.95854 47.8933 5.49188 47.76C6.05188 47.6533 6.54521 47.48 6.97188 47.24C7.50521 46.92 7.95854 46.5333 8.33188 46.08C8.70521 45.6533 9.06521 45.1867 9.41188 44.68C9.54521 44.4667 9.67854 44.2267 9.81188 43.96C9.94521 43.72 10.0519 43.4667 10.1319 43.2C9.94521 42.9867 9.63854 43 9.21188 43.24C8.78521 43.48 8.27854 43.7067 7.69188 43.92C7.07854 44.1333 6.33188 44.4533 5.45188 44.88C4.59854 45.3333 3.94521 45.8267 3.49187 46.36C3.35854 46.5467 3.21187 46.72 3.05187 46.88C2.89187 47.04 2.71854 47.1867 2.53188 47.32C2.66521 47.5067 2.81187 47.6533 2.97187 47.76C3.13187 47.8667 3.31854 47.92 3.53187 47.92ZM20.3894 36.56C20.2827 36.3467 20.1494 36.1867 19.9894 36.08C19.8294 35.9467 19.7494 35.8267 19.7494 35.72C19.7494 35.6133 19.736 35.5067 19.7094 35.4C19.7094 35.2667 19.656 35.1467 19.5494 35.04C19.416 34.88 19.4294 34.52 19.5894 33.96C19.7494 33.3733 20.016 32.6667 20.3894 31.84C20.7627 30.9867 21.2027 30.0933 21.7094 29.16C21.9227 28.9467 22.136 28.6667 22.3494 28.32C22.5627 27.9733 22.7227 27.7467 22.8294 27.64C22.8294 27.5333 22.8694 27.44 22.9494 27.36C23.0294 27.2533 23.1227 27.2 23.2294 27.2V26.96C23.2294 26.8267 23.3494 26.6 23.5894 26.28C23.856 25.96 24.176 25.6133 24.5494 25.24C24.9227 24.84 25.3094 24.4667 25.7094 24.12C26.1094 23.7467 26.4427 23.48 26.7094 23.32C27.2694 22.9467 27.8427 22.72 28.4294 22.64C29.0427 22.56 29.5627 22.6933 29.9894 23.04C30.0694 23.12 30.2027 23.2533 30.3894 23.44C30.576 23.6267 30.7894 23.84 31.0294 24.08C31.296 24.2933 31.5627 24.52 31.8294 24.76L33.3094 26.08L32.5894 28.08C32.2427 29.1467 32.1494 30.08 32.3094 30.88C32.496 31.68 32.7627 32.3733 33.1094 32.96C33.2427 33.2533 33.5094 33.5333 33.9094 33.8C34.336 34.0667 34.736 34.2267 35.1094 34.28C35.3227 34.3067 35.5227 34.3867 35.7094 34.52C35.896 34.6533 35.9894 34.8667 35.9894 35.16C35.9894 35.4267 35.936 35.64 35.8294 35.8C35.7227 35.96 35.536 36.0667 35.2694 36.12C34.3894 36.2267 33.5627 36.0133 32.7894 35.48C32.0427 34.9467 31.3494 34.0667 30.7094 32.84C30.6027 32.68 30.456 32.3867 30.2694 31.96C30.1094 31.5067 30.016 31.2133 29.9894 31.08C29.8827 31.2133 29.6827 31.4667 29.3894 31.84C29.096 32.1867 28.8694 32.44 28.7094 32.6C26.816 34.52 25.176 35.8133 23.7894 36.48C22.4294 37.12 21.296 37.1467 20.3894 36.56ZM21.8294 34.32C21.8294 34.5067 22.1094 34.5067 22.6694 34.32C23.256 34.1067 23.8827 33.7333 24.5494 33.2C25.456 32.4267 26.3627 31.5733 27.2694 30.64C28.2027 29.7067 28.9494 28.84 29.5094 28.04L30.3894 26.6C30.1227 25.9867 29.8294 25.5733 29.5094 25.36C29.216 25.12 28.9627 25 28.7494 25C28.4027 25 27.8827 25.32 27.1894 25.96C26.5227 26.6 25.8027 27.4533 25.0294 28.52C24.256 29.5867 23.5227 30.76 22.8294 32.04C22.5627 32.5733 22.3227 33.0933 22.1094 33.6C21.9227 34.08 21.8294 34.32 21.8294 34.32ZM37.7303 30.12C38.077 29 38.5036 27.92 39.0103 26.88C39.5436 25.8133 40.117 24.88 40.7303 24.08C41.3436 23.28 41.9436 22.7067 42.5303 22.36C42.8236 22.3067 43.077 22.2933 43.2903 22.32C43.5303 22.32 43.797 22.3467 44.0903 22.4C44.197 22.08 44.1303 21.6133 43.8903 21C43.6503 20.3867 43.357 19.7867 43.0103 19.2C42.6903 18.5867 42.437 18.16 42.2503 17.92C42.0636 17.68 41.8636 17.4533 41.6503 17.24C41.437 17 41.2503 16.76 41.0903 16.52C40.9836 16.3067 40.9436 16.08 40.9703 15.84C40.997 15.6 41.1436 15.44 41.4103 15.36C41.7836 15.2267 42.1436 15.08 42.4903 14.92C42.8636 14.7333 43.237 14.5733 43.6103 14.44C43.7703 14.3867 44.077 14.3067 44.5303 14.2C44.9836 14.0933 45.437 14 45.8903 13.92C46.3703 13.8133 46.6903 13.76 46.8503 13.76C47.1703 13.7067 47.4903 13.6933 47.8103 13.72C48.1303 13.7467 48.4503 13.7733 48.7703 13.8C49.357 13.8267 49.7303 13.96 49.8903 14.2C50.0503 14.44 50.277 14.7733 50.5703 15.2C50.517 15.3867 50.4503 15.6667 50.3703 16.04C50.317 16.3867 50.197 16.6267 50.0103 16.76C49.9036 16.7333 49.7836 16.72 49.6503 16.72C49.517 16.72 49.3836 16.6933 49.2503 16.64C48.9836 16.5067 48.5703 16.4 48.0103 16.32C47.4503 16.2133 46.8903 16.16 46.3303 16.16C45.7703 16.1333 45.357 16.1867 45.0903 16.32C44.957 16.3733 44.797 16.4267 44.6103 16.48C44.4236 16.5067 44.237 16.5333 44.0503 16.56C43.8903 16.5867 43.757 16.6533 43.6503 16.76C43.8636 17.1867 44.1836 17.7067 44.6103 18.32C45.037 18.9067 45.3703 19.4267 45.6103 19.88C45.6636 19.9867 45.677 20.0933 45.6503 20.2C45.6236 20.3067 45.6636 20.4 45.7703 20.48C45.9036 20.8533 46.037 21.24 46.1703 21.64C46.3036 22.04 46.3703 22.4533 46.3703 22.88C46.4503 23.0667 46.5303 23.3733 46.6103 23.8C46.717 24.2 46.7836 24.6133 46.8103 25.04C46.8636 25.44 46.8503 25.7333 46.7703 25.92C46.9036 26.2933 46.9036 26.6133 46.7703 26.88C46.6636 27.12 46.5836 27.4133 46.5303 27.76C46.5303 27.8133 46.517 27.8667 46.4903 27.92C46.4903 27.9733 46.4903 28.0267 46.4903 28.08C46.4903 28.6133 46.4503 29.04 46.3703 29.36C46.2903 29.68 46.1436 30.0933 45.9303 30.6C45.797 31.0267 45.6503 31.4533 45.4903 31.88C45.357 32.28 45.2236 32.6933 45.0903 33.12C44.4503 34.2667 43.8503 35.2267 43.2903 36C42.757 36.7467 42.277 37.2933 41.8503 37.64C41.4503 37.96 41.077 38.0533 40.7303 37.92C40.3836 37.9467 40.0503 37.9067 39.7303 37.8C39.4103 37.6667 39.1036 37.5067 38.8103 37.32C38.1703 36.92 37.717 36.36 37.4503 35.64C37.2103 34.8933 37.117 34.04 37.1703 33.08C37.2503 32.12 37.437 31.1333 37.7303 30.12ZM39.6103 32.96C39.557 33.4667 39.5303 33.8267 39.5303 34.04C39.557 34.2267 39.6236 34.5733 39.7303 35.08C39.8636 35.1867 39.997 35.3067 40.1303 35.44C40.2636 35.5467 40.397 35.6667 40.5303 35.8C41.037 35.16 41.4236 34.6267 41.6903 34.2C41.957 33.7467 42.197 33.2933 42.4103 32.84C42.6503 32.3867 42.957 31.8533 43.3303 31.24C43.3836 31.0267 43.437 30.8133 43.4903 30.6C43.5703 30.36 43.6503 30.1467 43.7303 29.96C43.9436 29.5067 44.117 28.88 44.2503 28.08C44.4103 27.2533 44.4636 26.4533 44.4103 25.68C44.3836 24.88 44.1703 24.28 43.7703 23.88C43.7436 24.1467 43.5836 24.5067 43.2903 24.96C42.997 25.4133 42.7436 25.7467 42.5303 25.96C42.077 26.4133 41.637 27.08 41.2103 27.96C40.8103 28.8133 40.4636 29.7067 40.1703 30.64C39.877 31.5467 39.6903 32.32 39.6103 32.96ZM46.5916 46.92C46.4049 46.84 46.2049 46.7067 45.9916 46.52C45.7782 46.3333 45.6049 46.12 45.4716 45.88C45.3382 45.6667 45.2716 45.48 45.2716 45.32C45.2716 45.16 45.3382 44.7333 45.4716 44.04C45.6049 43.3733 45.7782 42.5467 45.9916 41.56C46.2316 40.6 46.4849 39.6133 46.7516 38.6C47.0449 37.6133 47.3382 36.7333 47.6316 35.96C47.6849 35.8267 47.8582 35.3867 48.1516 34.64C48.4716 33.8667 48.7782 32.9333 49.0716 31.84C49.2849 31.1467 49.5649 30.36 49.9116 29.48C50.2582 28.6 50.6182 27.72 50.9916 26.84C51.3649 25.9333 51.6716 25.1333 51.9116 24.44C52.1516 23.7467 52.3516 23.1867 52.5116 22.76C52.6982 22.3067 52.8049 22.0267 52.8316 21.92C52.8849 21.76 52.9649 21.6267 53.0716 21.52C53.2049 21.3867 53.3382 21.28 53.4716 21.2C53.6049 21.0933 53.7116 21.0267 53.7916 21C54.2716 20.8667 54.6849 21.0667 55.0316 21.6C55.1649 21.84 55.1916 22.12 55.1116 22.44C55.0316 22.76 54.8849 23.16 54.6716 23.64L54.3916 24.44L55.8316 24.12C56.0716 24.12 56.3649 24.1333 56.7116 24.16C57.0849 24.16 57.4449 24.16 57.7916 24.16C58.1382 24.16 58.3916 24.1867 58.5516 24.24C59.1916 24.2667 59.6316 24.3867 59.8716 24.6C60.1382 24.8133 60.3649 25.0933 60.5516 25.44C60.6849 25.5733 60.8449 25.76 61.0316 26C61.2182 26.2133 61.3249 26.4267 61.3516 26.64C61.4582 27.0933 61.4582 27.5867 61.3516 28.12C61.2716 28.6267 61.1116 29.1333 60.8716 29.64C60.6582 30.1467 60.3649 30.6133 59.9916 31.04C59.6449 31.44 59.2716 31.7733 58.8716 32.04C58.6049 32.1467 58.3649 32.2667 58.1516 32.4C57.9382 32.5067 57.8316 32.56 57.8316 32.56C57.8049 32.6933 57.5116 32.9067 56.9516 33.2C56.3916 33.4667 55.7516 33.72 55.0316 33.96C54.3116 34.2 53.6849 34.36 53.1516 34.44C52.9649 34.4667 52.6982 34.4933 52.3516 34.52C52.0049 34.5467 51.7382 34.5067 51.5516 34.4C51.2582 34.3467 51.0582 34.32 50.9516 34.32C50.8449 34.32 50.7916 34.3733 50.7916 34.48C50.7649 34.5333 50.5782 35.0933 50.2316 36.16C49.8849 37.2267 49.5249 38.4667 49.1516 39.88C48.6449 41.4267 48.2316 42.6533 47.9116 43.56C47.5916 44.4933 47.3382 45.1867 47.1516 45.64C46.9916 46.0933 46.8716 46.4 46.7916 46.56C46.7116 46.7467 46.6449 46.8667 46.5916 46.92ZM51.5916 32.16C51.6716 32.32 51.9249 32.3733 52.3516 32.32C52.8049 32.24 53.3382 32.08 53.9516 31.84C54.5916 31.5733 55.2182 31.28 55.8316 30.96C56.4449 30.6133 56.9516 30.2667 57.3516 29.92C57.9382 29.2533 58.4182 28.64 58.7916 28.08C59.1649 27.4933 59.2182 27.1067 58.9516 26.92C58.6582 26.4933 58.1116 26.2933 57.3116 26.32C56.5116 26.3467 55.5249 26.68 54.3516 27.32C53.8982 27.48 53.5516 27.6933 53.3116 27.96C53.0982 28.2 52.9116 28.5067 52.7516 28.88C52.5916 29.2533 52.3916 29.7067 52.1516 30.24C51.9116 30.8267 51.7516 31.2667 51.6716 31.56C51.5916 31.8533 51.5649 32.0533 51.5916 32.16ZM67.6688 36.48C67.1088 36.5867 66.7488 36.6267 66.5888 36.6C66.4554 36.5467 66.2421 36.3867 65.9488 36.12C65.5221 35.9067 65.1621 35.64 64.8688 35.32C64.6021 35 64.4021 34.6667 64.2688 34.32C64.1621 33.9467 64.1221 33.64 64.1488 33.4C64.2288 32.4667 64.4554 31.4667 64.8288 30.4C65.2021 29.3333 65.6554 28.3067 66.1888 27.32C66.7221 26.3333 67.2954 25.4933 67.9088 24.8C68.5488 24.08 69.1621 23.6133 69.7487 23.4C70.2821 23.1867 70.7888 23.1067 71.2688 23.16C71.7488 23.2133 72.0954 23.4667 72.3088 23.92C72.7088 24.6933 72.6154 25.1867 72.0288 25.4C71.9488 25.4 71.8554 25.44 71.7488 25.52C71.6421 25.5733 71.5888 25.6533 71.5888 25.76C71.6954 25.8133 71.9888 25.8267 72.4688 25.8C72.9488 25.7467 73.4288 25.6667 73.9088 25.56C74.4154 25.4267 74.7488 25.2933 74.9088 25.16C75.0688 25.08 75.1888 25.04 75.2688 25.04C75.3488 25.04 75.5488 25.0667 75.8688 25.12C76.3221 25.2533 76.5488 25.4133 76.5488 25.6C76.5488 25.7067 76.5888 25.8133 76.6688 25.92C76.7488 26 76.8421 26.04 76.9488 26.04C77.1354 26.0667 77.1088 26.1867 76.8688 26.4C76.6554 26.6133 76.2821 26.9067 75.7488 27.28C75.2421 27.6 74.9221 27.8133 74.7888 27.92C74.6821 28 74.6688 28.1867 74.7488 28.48C74.9621 28.9867 74.9754 29.5733 74.7888 30.24C74.6021 30.9067 74.2688 31.5867 73.7888 32.28C73.3088 32.9733 72.7221 33.6267 72.0288 34.24C71.3621 34.8267 70.6421 35.3333 69.8688 35.76C69.1221 36.16 68.3888 36.4 67.6688 36.48ZM66.9888 34.72C67.0954 34.72 67.2821 34.6667 67.5488 34.56C67.8154 34.4267 68.0288 34.32 68.1888 34.24C68.2954 34.1333 68.4288 34.0133 68.5888 33.88C68.7754 33.72 68.9221 33.6267 69.0288 33.6C69.1354 33.6 69.2688 33.56 69.4288 33.48C69.5888 33.3733 69.8154 33.1733 70.1088 32.88C70.4021 32.56 70.7888 32.0933 71.2688 31.48C71.8021 30.8933 72.2154 30.36 72.5088 29.88C72.8021 29.3733 72.8821 28.9067 72.7488 28.48C72.7221 28.3733 72.6421 28.3067 72.5088 28.28C72.4021 28.2533 72.2554 28.1867 72.0688 28.08C71.8021 28.08 71.5488 28.0133 71.3088 27.88C71.0954 27.72 70.8421 27.52 70.5488 27.28L69.9088 26.48L69.2288 27.16C68.8021 27.5867 68.3488 28.2267 67.8688 29.08C67.4154 29.9067 67.0288 30.76 66.7088 31.64C66.3888 32.4933 66.2021 33.1733 66.1488 33.68C66.1221 34.08 66.1888 34.3467 66.3488 34.48C66.5088 34.6133 66.7221 34.6933 66.9888 34.72ZM89.4903 23.8C89.8636 23.5867 90.2503 23.52 90.6503 23.6C91.0503 23.6533 91.357 23.8267 91.5703 24.12C91.8103 24.3867 91.8503 24.7333 91.6903 25.16C91.7436 25 91.677 25.1067 91.4903 25.48C91.3303 25.8267 91.117 26.28 90.8503 26.84C90.6103 27.4 90.3836 27.9333 90.1703 28.44C89.9836 28.92 89.8636 29.2 89.8103 29.28V29.4C90.237 29.4 90.4903 29.5333 90.5703 29.8C90.677 30.04 90.717 30.32 90.6903 30.64C90.3703 30.6933 90.1436 30.7867 90.0103 30.92C89.877 31.0267 89.7036 31.0933 89.4903 31.12C89.4103 31.12 89.317 31.16 89.2103 31.24C89.1036 31.32 89.037 31.4133 89.0103 31.52C88.9836 31.6 88.9036 31.92 88.7703 32.48C88.6636 33.0133 88.5303 33.6 88.3703 34.24C88.237 34.8533 88.117 35.32 88.0103 35.64C87.957 35.8533 87.8503 36.0267 87.6903 36.16C87.5303 36.2667 87.4236 36.3333 87.3703 36.36C86.837 36.1467 86.477 36.0133 86.2903 35.96C86.1303 35.88 85.9703 35.7733 85.8103 35.64C85.7836 35.48 85.7836 35.2933 85.8103 35.08C85.837 34.84 85.9036 34.56 86.0103 34.24C86.1436 33.84 86.2503 33.4667 86.3303 33.12C86.437 32.7467 86.5436 32.2267 86.6503 31.56C86.5436 31.5067 86.317 31.5067 85.9703 31.56C85.6503 31.5867 85.3036 31.6267 84.9303 31.68C84.557 31.7333 84.237 31.7867 83.9703 31.84C83.7303 31.8933 83.6236 31.9067 83.6503 31.88C83.517 31.9333 83.2636 31.9733 82.8903 32C82.5436 32 82.1836 31.9867 81.8103 31.96C81.4636 31.9067 81.2103 31.8533 81.0503 31.8L80.8103 31.92C80.7836 32.1867 80.6636 32.5867 80.4503 33.12C80.237 33.6267 80.1303 34.1067 80.1303 34.56C80.1036 34.9067 80.0503 35.2533 79.9703 35.6C79.8903 35.9467 79.837 36.3067 79.8103 36.68C79.7836 37.2667 79.6236 37.6267 79.3303 37.76C79.0636 37.8933 78.6503 37.8 78.0903 37.48C77.957 37.4 77.8236 37.3067 77.6903 37.2C77.5836 37.0933 77.4636 36.9733 77.3303 36.84L77.9703 33.76C78.077 33.3867 78.1703 33.04 78.2503 32.72C78.3303 32.3733 78.4236 32.04 78.5303 31.72C78.7436 31.1333 78.9436 30.5333 79.1303 29.92C79.3436 29.3067 79.5836 28.7333 79.8503 28.2C79.8503 28.2 79.8903 28.0667 79.9703 27.8C80.077 27.5067 80.197 27.1867 80.3303 26.84C80.4636 26.4667 80.5703 26.1733 80.6503 25.96C80.7303 25.7467 80.7436 25.7067 80.6903 25.84C80.7703 25.68 80.8903 25.3733 81.0503 24.92C81.2103 24.44 81.357 23.9867 81.4903 23.56C81.6503 23.1067 81.7303 22.8667 81.7303 22.84C81.7836 22.68 81.8636 22.5733 81.9703 22.52C82.077 22.44 82.2103 22.4 82.3703 22.4C82.8236 22.3733 83.197 22.48 83.4903 22.72C83.7836 22.9333 83.9436 23.2 83.9703 23.52C83.9436 23.68 83.9303 23.8267 83.9303 23.96C83.9303 24.0933 83.9036 24.2 83.8503 24.28L81.7703 29.36V29.68C82.037 29.84 82.4236 29.8667 82.9303 29.76C83.4636 29.6267 83.8636 29.56 84.1303 29.56C84.2636 29.5333 84.5703 29.5067 85.0503 29.48C85.557 29.4533 86.037 29.44 86.4903 29.44C86.9703 29.44 87.2236 29.4533 87.2503 29.48C87.5436 28.68 87.8103 27.9333 88.0503 27.24C88.2903 26.52 88.6236 25.7867 89.0503 25.04C89.077 24.9867 89.1303 24.8133 89.2103 24.52C89.317 24.2267 89.4103 23.9867 89.4903 23.8ZM104.215 38.04C103.948 38.1733 103.641 38.0933 103.295 37.8C102.948 37.5067 102.708 37.2667 102.575 37.08C102.335 36.76 102.161 36.32 102.055 35.76C101.948 35.2 101.895 34.7333 101.895 34.36C101.895 33.6667 101.841 33.2667 101.735 33.16C101.655 33.0533 101.481 33.1467 101.215 33.44C100.975 33.7067 100.615 34.08 100.135 34.56C99.9214 34.7733 99.5747 35.0533 99.0947 35.4C98.6147 35.7467 98.1214 36.04 97.6147 36.28C97.108 36.52 96.6814 36.64 96.3347 36.64C96.0947 36.6133 95.8547 36.48 95.6147 36.24C95.3747 36 95.1614 35.7333 94.9747 35.44C94.8147 35.12 94.6947 34.8533 94.6147 34.64C94.4814 34.24 94.468 33.5867 94.5747 32.68C94.708 31.7467 94.9214 30.72 95.2147 29.6C95.5347 28.4533 95.8947 27.36 96.2947 26.32C96.7214 25.2533 97.148 24.3867 97.5747 23.72C98.028 23.0267 98.468 22.68 98.8947 22.68C99.188 22.68 99.4147 22.8533 99.5747 23.2C99.7614 23.52 99.908 23.7867 100.015 24C100.148 24.2667 100.188 24.44 100.135 24.52C100.108 24.6 100.001 24.7467 99.8147 24.96C99.6014 25.2267 99.348 25.68 99.0547 26.32C98.7614 26.9333 98.4547 27.6133 98.1347 28.36C97.8414 29.08 97.5747 29.7733 97.3347 30.44C97.0947 31.1067 96.9214 31.6133 96.8147 31.96C96.7614 32.1733 96.6814 32.4667 96.5747 32.84C96.4947 33.2133 96.468 33.5067 96.4947 33.72C96.4947 33.7467 96.508 33.8133 96.5347 33.92C96.5614 34 96.668 34.04 96.8547 34.04C97.4414 34.04 98.028 33.8 98.6147 33.32C99.228 32.8133 99.828 32.16 100.415 31.36C101.028 30.56 101.601 29.72 102.135 28.84C102.668 27.96 103.161 27.12 103.615 26.32C104.095 25.52 104.508 24.8667 104.855 24.36C105.201 23.8267 105.481 23.5467 105.695 23.52C105.881 23.4933 106.095 23.52 106.335 23.6C106.601 23.6533 106.828 23.7467 107.015 23.88C107.201 24.0133 107.281 24.2 107.255 24.44C106.935 25.4267 106.548 26.4133 106.095 27.4C105.641 28.36 105.215 29.3333 104.815 30.32C104.441 31.3067 104.175 32.32 104.015 33.36C103.908 34 103.948 34.6267 104.135 35.24C104.348 35.8533 104.681 36.4 105.135 36.88C105.401 37.1467 105.375 37.4 105.055 37.64C104.735 37.88 104.455 38.0133 104.215 38.04ZM108.433 45C108.113 45.2133 107.78 45.2 107.433 44.96C107.113 44.72 106.873 44.36 106.713 43.88C106.553 43.4 106.567 42.8933 106.753 42.36C106.807 42.2 106.887 41.9333 106.993 41.56C107.1 41.2133 107.167 40.9067 107.193 40.64C107.22 40.4533 107.3 40.1333 107.433 39.68C107.567 39.2533 107.713 38.8267 107.873 38.4C108.06 37.9733 108.207 37.6667 108.313 37.48C108.473 37.2133 108.58 36.9067 108.633 36.56C108.713 36.2133 108.753 35.9467 108.753 35.76C108.807 35.5733 108.873 35.36 108.953 35.12C109.06 34.88 109.167 34.6933 109.273 34.56C109.327 34.3467 109.407 34.12 109.513 33.88C109.62 33.6133 109.74 33.3867 109.873 33.2C109.927 33.0133 109.967 32.7867 109.993 32.52C110.047 32.2533 110.127 32.1067 110.233 32.08C110.26 31.9733 110.273 31.8667 110.273 31.76C110.3 31.6533 110.353 31.5067 110.433 31.32C110.487 31.0267 110.607 30.6 110.793 30.04C110.98 29.48 111.207 28.8667 111.473 28.2C111.767 27.4267 111.9 26.6933 111.873 26C111.873 25.28 111.673 24.84 111.273 24.68C111.06 24.5733 110.927 24.4267 110.873 24.24C110.82 24.0267 110.847 23.8133 110.953 23.6C111.06 23.3867 111.22 23.24 111.433 23.16C111.673 23.0533 111.927 23.0133 112.193 23.04C112.487 23.0667 112.74 23.12 112.953 23.2C113.167 23.2533 113.26 23.3067 113.233 23.36C113.233 23.4933 113.3 23.5733 113.433 23.6C113.487 23.52 113.593 23.6133 113.753 23.88C113.94 24.12 114.113 24.4 114.273 24.72C114.433 25.04 114.513 25.2667 114.513 25.4C114.46 25.5067 114.433 25.5733 114.433 25.6C114.433 25.6 114.487 25.6 114.593 25.6C114.593 25.6 114.74 25.5333 115.033 25.4C115.327 25.24 115.633 25.0667 115.953 24.88C116.3 24.6667 116.527 24.5067 116.633 24.4C116.633 24.4 116.7 24.3733 116.833 24.32C116.993 24.24 117.127 24.1467 117.233 24.04C117.767 23.8267 118.34 23.7867 118.953 23.92C119.593 24.0533 120.1 24.2933 120.473 24.64C121.007 25.3067 121.273 25.9467 121.273 26.56C121.3 27.1733 121.127 27.9467 120.753 28.88C120.7 29.0133 120.58 29.24 120.393 29.56C120.233 29.8533 120.073 30.1333 119.913 30.4C119.753 30.64 119.673 30.76 119.673 30.76C119.06 31.72 118.34 32.52 117.513 33.16C116.687 33.8 115.847 34.36 114.993 34.84C114.727 35.0267 114.447 35.1733 114.153 35.28C113.887 35.36 113.647 35.4133 113.433 35.44C113.22 35.44 113.073 35.4133 112.993 35.36C112.7 35.1467 112.433 34.6933 112.193 34C112.06 34.3467 111.927 34.6933 111.793 35.04C111.687 35.36 111.62 35.5733 111.593 35.68C111.567 35.8667 111.54 36.0267 111.513 36.16C111.487 36.2667 111.42 36.36 111.313 36.44C111.313 36.44 111.3 36.4933 111.273 36.6C111.247 36.7067 111.153 36.8667 110.993 37.08C110.727 37.8533 110.487 38.52 110.273 39.08C110.06 39.6667 109.887 40.16 109.753 40.56C109.62 40.9867 109.513 41.36 109.433 41.68C109.38 42.4 109.233 43.1067 108.993 43.8C108.753 44.52 108.567 44.92 108.433 45ZM113.193 33.6C113.3 33.5467 113.527 33.4 113.873 33.16C114.247 32.8933 114.66 32.5867 115.113 32.24C115.567 31.8667 115.98 31.52 116.353 31.2C116.753 30.88 117.02 30.64 117.153 30.48C117.367 30.24 117.567 29.9867 117.753 29.72C117.94 29.4267 118.087 29.1067 118.193 28.76C118.273 28.5467 118.367 28.3067 118.473 28.04C118.58 27.7733 118.673 27.52 118.753 27.28C118.86 27.0667 118.9 26.8533 118.873 26.64C118.873 26.4 118.793 26.2 118.633 26.04C118.527 26.0133 118.207 26.0933 117.673 26.28C117.14 26.44 116.553 26.72 115.913 27.12C115.273 27.4933 114.713 27.9867 114.233 28.6C113.673 29.32 113.26 30.0667 112.993 30.84C112.753 31.6133 112.647 32.2667 112.673 32.8C112.727 33.3333 112.9 33.6 113.193 33.6ZM126.151 37.4C125.804 37.4 125.524 37.3333 125.311 37.2C125.124 37.0667 124.884 36.88 124.591 36.64C124.084 36.1067 123.724 35.6 123.511 35.12C123.297 34.6133 123.231 34.1333 123.311 33.68C123.391 33.4667 123.417 33.2667 123.391 33.08C123.391 32.8667 123.391 32.76 123.391 32.76C123.257 32.6267 123.217 32.5467 123.271 32.52C123.324 32.4667 123.377 32.3867 123.431 32.28C123.591 32.28 123.644 32.1333 123.591 31.84C123.537 31.6267 123.644 31.16 123.911 30.44C124.177 29.72 124.511 29.04 124.911 28.4C125.071 28.1333 125.311 27.7867 125.631 27.36C125.951 26.9067 126.297 26.4667 126.671 26.04C127.071 25.5867 127.431 25.2267 127.751 24.96C128.417 24.4 129.004 23.9867 129.511 23.72C130.017 23.4533 130.564 23.2533 131.151 23.12C131.737 22.9867 132.137 22.92 132.351 22.92C132.591 22.92 132.911 23.1333 133.311 23.56C133.924 23.8267 134.364 24.1467 134.631 24.52C134.924 24.8933 135.111 25.44 135.191 26.16C135.271 26.96 135.204 27.88 134.991 28.92C134.804 29.9333 134.177 31.2 133.111 32.72C132.444 33.68 131.831 34.4 131.271 34.88C130.711 35.3333 130.044 35.7867 129.271 36.24C128.711 36.6133 128.204 36.8933 127.751 37.08C127.297 37.24 126.764 37.3467 126.151 37.4ZM129.991 33.16C130.631 32.44 131.137 31.76 131.511 31.12C131.911 30.48 132.284 29.6667 132.631 28.68C132.737 28.3867 132.804 28.0267 132.831 27.6C132.857 27.1467 132.844 26.7333 132.791 26.36C132.764 25.96 132.671 25.7333 132.511 25.68C132.191 25.4933 131.804 25.44 131.351 25.52C130.897 25.5733 130.404 25.8267 129.871 26.28C129.044 26.9733 128.324 27.84 127.711 28.88C127.097 29.8933 126.497 31.0533 125.911 32.36C125.511 33.32 125.417 34.0933 125.631 34.68C125.871 35.24 126.364 35.44 127.111 35.28C127.884 35.0933 128.844 34.3867 129.991 33.16ZM142.292 24.56C142.719 24.4267 143.239 24.1467 143.852 23.72C144.466 23.2933 145.066 22.8267 145.652 22.32C146.239 21.8133 146.679 21.3867 146.972 21.04C147.239 20.7467 147.479 20.44 147.692 20.12C147.932 19.8 148.186 19.4933 148.452 19.2C148.879 18.7467 149.279 18.1467 149.652 17.4C150.026 16.6533 150.212 15.9733 150.212 15.36C150.212 15.2 150.132 15.0667 149.972 14.96C149.839 14.8533 149.706 14.8267 149.572 14.88C149.359 14.96 149.146 15.0667 148.932 15.2C148.719 15.3067 148.532 15.44 148.372 15.6C148.026 15.9467 147.639 16.2933 147.212 16.64C146.786 16.96 146.399 17.3067 146.052 17.68C146.026 17.7067 145.999 17.7467 145.972 17.8C145.972 17.8267 145.959 17.8667 145.932 17.92C145.692 18.3733 145.426 18.8133 145.132 19.24C144.866 19.6667 144.586 20.1067 144.292 20.56C143.892 21.2 143.546 21.8667 143.252 22.56C142.986 23.2533 142.666 23.92 142.292 24.56ZM143.332 27.04C143.412 27.04 143.492 27.04 143.572 27.04C143.679 27.0133 143.772 26.9867 143.852 26.96C144.119 26.9867 144.372 27.04 144.612 27.12C144.879 27.1733 145.146 27.2267 145.412 27.28C145.546 27.52 145.706 27.7867 145.892 28.08C146.106 28.3467 146.252 28.6133 146.332 28.88C146.386 29.0667 146.439 29.2667 146.492 29.48C146.546 29.6667 146.586 29.8667 146.612 30.08C146.559 30.2133 146.546 30.4933 146.572 30.92C146.626 31.3467 146.586 31.7333 146.452 32.08C146.292 32.5867 146.146 33.1067 146.012 33.64C145.879 34.1467 145.666 34.6267 145.372 35.08C145.186 35.3733 144.892 35.76 144.492 36.24C144.119 36.72 143.786 37.0533 143.492 37.24C143.306 37.3467 143.106 37.4267 142.892 37.48C142.706 37.5067 142.506 37.5733 142.292 37.68C141.946 37.8667 141.572 37.84 141.172 37.6C140.799 37.36 140.452 37.24 140.132 37.24C139.892 37.24 139.612 37.0533 139.292 36.68C138.999 36.3067 138.746 35.88 138.532 35.4C138.346 34.92 138.279 34.5067 138.332 34.16C138.359 34.0267 138.332 33.9067 138.252 33.8C138.199 33.6933 138.172 33.5733 138.172 33.44C138.172 32.9067 138.186 32.28 138.212 31.56C138.239 30.84 138.306 30.12 138.412 29.4C138.546 28.68 138.719 28.0933 138.932 27.64C138.719 27.5067 138.546 27.3333 138.412 27.12C138.306 26.9067 138.186 26.6933 138.052 26.48C138.106 26.3467 138.159 26.2133 138.212 26.08C138.266 25.9467 138.306 25.8267 138.332 25.72C138.519 25.6933 138.692 25.6667 138.852 25.64C139.039 25.6133 139.226 25.5733 139.412 25.52C139.866 24.1333 140.426 22.72 141.092 21.28C141.786 19.84 142.612 18.4933 143.572 17.24C144.532 15.96 145.639 14.92 146.892 14.12C147.212 13.9067 147.599 13.68 148.052 13.44C148.532 13.1733 148.972 13.08 149.372 13.16C149.452 13.1333 149.532 13.1333 149.612 13.16C149.719 13.1867 149.799 13.1733 149.852 13.12C149.906 13.1467 149.959 13.1733 150.012 13.2C150.066 13.2 150.119 13.2267 150.172 13.28C150.306 13.4667 150.612 13.7333 151.092 14.08C151.599 14.4 152.026 14.84 152.372 15.4C152.639 15.8267 152.639 16.3333 152.372 16.92C152.132 17.5067 151.932 18.0267 151.772 18.48C151.639 18.8533 151.439 19.2 151.172 19.52C150.932 19.8133 150.732 20.1467 150.572 20.52C150.519 20.68 150.426 20.8133 150.292 20.92C150.159 21 150.066 21.1333 150.012 21.32C149.772 21.4267 149.599 21.5867 149.492 21.8C149.412 22.0133 149.279 22.1867 149.092 22.32C148.906 22.48 148.732 22.6267 148.572 22.76C148.439 22.8933 148.292 23.0533 148.132 23.24C147.866 23.56 147.546 23.84 147.172 24.08C146.826 24.2933 146.506 24.56 146.212 24.88C145.786 25.0933 145.359 25.3733 144.932 25.72C144.532 26.0667 144.106 26.3067 143.652 26.44C143.386 26.52 143.106 26.6267 142.812 26.76C142.519 26.8667 142.239 26.9867 141.972 27.12C141.732 27.2267 141.532 27.5067 141.372 27.96C141.239 28.3867 141.119 28.8933 141.012 29.48C140.906 30.0667 140.826 30.6267 140.772 31.16C140.719 31.6933 140.679 32.08 140.652 32.32C140.626 32.64 140.652 33.1333 140.732 33.8C140.812 34.44 140.919 34.9067 141.052 35.2C141.106 35.3067 141.226 35.4133 141.412 35.52C141.599 35.6267 141.746 35.6267 141.852 35.52C141.932 35.44 142.066 35.28 142.252 35.04C142.466 34.8 142.666 34.56 142.852 34.32C143.066 34.0533 143.199 33.8667 143.252 33.76C143.412 33.44 143.572 33.08 143.732 32.68C143.892 32.28 144.026 31.9067 144.132 31.56C144.292 30.9733 144.332 30.4667 144.252 30.04C144.199 29.6133 144.092 29.2267 143.932 28.88C143.772 28.5333 143.626 28.2133 143.492 27.92C143.359 27.6267 143.306 27.3333 143.332 27.04ZM153.08 36.84C152.866 36.8933 152.586 36.92 152.24 36.92C151.893 36.8933 151.586 36.8533 151.32 36.8C151.08 36.72 150.96 36.64 150.96 36.56C150.96 36.4267 150.893 36.36 150.76 36.36C150.76 36.36 150.693 36.3067 150.56 36.2C150.453 36.0933 150.28 35.9867 150.04 35.88C149.8 35.5067 149.68 35.1067 149.68 34.68C149.68 34.2267 149.8 33.52 150.04 32.56C150.12 31.8933 150.373 31.12 150.8 30.24C151.253 29.3333 151.8 28.4133 152.44 27.48C153.08 26.5467 153.746 25.7067 154.44 24.96C155.16 24.2133 155.813 23.6667 156.4 23.32C156.773 22.9467 157.226 22.7467 157.76 22.72C158.293 22.6933 158.8 22.8133 159.28 23.08C159.546 23.2133 159.813 23.4267 160.08 23.72C160.346 24.0133 160.6 24.3333 160.84 24.68C161.08 25.0267 161.28 25.3733 161.44 25.72C161.52 26.0133 161.56 26.28 161.56 26.52C161.586 26.7333 161.586 27 161.56 27.32C161.56 27.64 161.52 28.12 161.44 28.76C161.306 29.24 161.186 29.8267 161.08 30.52C161 31.2133 160.96 31.8133 160.96 32.32C160.906 32.8267 160.96 33.1867 161.12 33.4C161.306 33.6133 161.573 33.6267 161.92 33.44C162.24 33.28 162.546 33.2133 162.84 33.24C163.133 33.24 163.36 33.32 163.52 33.48C163.706 33.64 163.8 33.88 163.8 34.2C163.8 34.52 163.64 34.8533 163.32 35.2C163.026 35.52 162.653 35.8 162.2 36.04C161.773 36.2533 161.36 36.36 160.96 36.36C160.666 36.36 160.386 36.1867 160.12 35.84C159.853 35.4667 159.613 35.0267 159.4 34.52C159.213 33.9867 159.04 33.48 158.88 33L158.64 32.08L156.92 33.72C156.573 34.0933 156.226 34.44 155.88 34.76C155.56 35.0533 155.36 35.2667 155.28 35.4C155.146 35.64 154.893 35.88 154.52 36.12C154.173 36.36 153.693 36.6 153.08 36.84ZM153.2 34.48C153.653 34.2133 154.173 33.8267 154.76 33.32C155.346 32.7867 155.92 32.2133 156.48 31.6C157.04 30.96 157.506 30.3733 157.88 29.84C158.333 29.2267 158.68 28.6533 158.92 28.12C159.16 27.5867 159.333 27.08 159.44 26.6C159.333 26.3067 159.16 26 158.92 25.68C158.68 25.3333 158.466 25.1467 158.28 25.12C157.693 25.12 157.066 25.4933 156.4 26.24C155.76 26.96 155.133 27.7467 154.52 28.6C154.413 28.7333 154.266 28.9467 154.08 29.24C153.893 29.5333 153.706 29.8133 153.52 30.08C153.36 30.32 153.253 30.48 153.2 30.56C153.12 30.6667 152.96 30.9733 152.72 31.48C152.506 31.96 152.293 32.4533 152.08 32.96C151.866 33.44 151.76 33.76 151.76 33.92C151.76 34.08 151.773 34.2533 151.8 34.44C151.853 34.6267 151.986 34.7467 152.2 34.8C152.413 34.8533 152.746 34.7467 153.2 34.48ZM167.014 36.04C166.721 35.8533 166.454 35.6133 166.214 35.32C165.974 35 165.854 34.6 165.854 34.12C165.854 33.8533 165.908 33.4 166.014 32.76C166.121 32.12 166.268 31.4 166.454 30.6C166.641 29.8 166.828 29.0533 167.014 28.36C167.281 27.88 167.508 27.4 167.694 26.92C167.881 26.44 167.974 26.1467 167.974 26.04C168.028 25.72 168.094 25.3467 168.174 24.92C168.281 24.4933 168.388 24.1067 168.494 23.76C168.601 23.4133 168.681 23.2133 168.734 23.16C168.868 23.0267 169.028 22.9467 169.214 22.92C169.401 22.8667 169.588 22.8933 169.774 23C169.988 23.08 170.148 23.2533 170.254 23.52C170.548 23.84 170.694 24.2267 170.694 24.68C170.694 25.1067 170.548 25.7467 170.254 26.6C170.014 27.1333 169.774 27.76 169.534 28.48C169.294 29.2 169.081 29.8667 168.894 30.48C168.734 31.0667 168.641 31.4667 168.614 31.68L167.814 31.92C168.268 31.4933 168.694 31.0533 169.094 30.6C169.494 30.12 169.788 29.7467 169.974 29.48C170.428 28.8667 170.814 28.36 171.134 27.96C171.481 27.5333 171.921 27.0267 172.454 26.44C172.988 25.8267 173.508 25.4533 174.014 25.32C174.548 25.16 174.961 25.08 175.254 25.08C175.841 25.1867 176.308 25.4933 176.654 26C177.028 26.48 177.268 27.2 177.374 28.16C177.374 28.5333 177.334 28.9733 177.254 29.48C177.201 29.9867 177.174 30.24 177.174 30.24C177.174 30.24 177.388 29.96 177.814 29.4C178.268 28.84 178.868 28.2267 179.614 27.56C180.121 27.1867 180.614 26.9733 181.094 26.92C181.574 26.84 182.001 27 182.374 27.4C183.068 27.7733 183.521 28.3467 183.734 29.12C183.948 29.8667 184.001 30.8267 183.894 32C183.814 32.6933 183.801 33.2133 183.854 33.56C183.908 33.88 183.988 34.2 184.094 34.52C184.308 34.6267 184.348 34.8533 184.214 35.2C184.081 35.52 183.921 35.68 183.734 35.68C183.468 35.68 183.161 35.6267 182.814 35.52C182.494 35.4133 182.201 35.24 181.934 35C181.694 34.7333 181.574 34.3733 181.574 33.92V31.44C181.574 30.8533 181.548 30.3733 181.494 30C181.468 29.6267 181.401 29.4 181.294 29.32C181.001 29.16 180.574 29.3333 180.014 29.84C179.454 30.3467 178.854 31.0267 178.214 31.88C177.574 32.7333 176.974 33.6133 176.414 34.52C175.908 35.3467 175.588 35.8267 175.454 35.96C175.348 36.0667 175.148 36.0267 174.854 35.84C174.268 35.6533 173.894 35.4 173.734 35.08C173.601 34.7333 173.588 34.3467 173.694 33.92C173.828 33.4667 173.988 32.8533 174.174 32.08C174.388 31.3067 174.588 30.56 174.774 29.84C174.961 29.0933 175.081 28.56 175.134 28.24C175.028 28.0267 174.841 27.96 174.574 28.04C174.334 28.0933 174.081 28.2133 173.814 28.4C173.494 28.6133 173.108 29.0133 172.654 29.6C172.201 30.1867 171.734 30.8667 171.254 31.64C170.934 32.1467 170.601 32.6533 170.254 33.16C169.908 33.64 169.588 34.0667 169.294 34.44C169.001 34.8133 168.748 35.0933 168.534 35.28C168.161 35.8667 167.908 36.1867 167.774 36.24C167.641 36.2933 167.388 36.2267 167.014 36.04ZM188.486 37.24C188.166 37.1333 187.819 37.0667 187.446 37.04C187.073 36.9867 186.753 36.8267 186.486 36.56C186.139 36.2133 185.873 35.8133 185.686 35.36C185.526 34.88 185.499 34.4 185.606 33.92C185.686 33.6267 185.726 33.3467 185.726 33.08C185.726 32.7867 185.793 32.5067 185.926 32.24C185.953 31.9467 186.019 31.68 186.126 31.44C186.233 31.1733 186.339 30.9067 186.446 30.64C186.633 30.1867 186.793 29.7333 186.926 29.28C187.086 28.8267 187.273 28.3867 187.486 27.96C187.886 27.1333 188.313 26.3333 188.766 25.56C189.246 24.7867 189.673 23.9867 190.046 23.16C190.153 22.9467 190.273 22.8133 190.406 22.76C190.566 22.68 190.726 22.64 190.886 22.64C191.099 22.64 191.313 22.68 191.526 22.76C191.739 22.84 191.926 22.9067 192.086 22.96C192.166 23.2 192.286 23.4 192.446 23.56C192.606 23.72 192.659 23.9467 192.606 24.24C192.233 24.7733 191.873 25.32 191.526 25.88C191.206 26.4133 190.886 26.96 190.566 27.52C190.273 28.0533 189.979 28.6133 189.686 29.2C189.499 29.6 189.353 30.0267 189.246 30.48C189.139 30.9333 188.993 31.36 188.806 31.76C188.619 32.1867 188.486 32.64 188.406 33.12C188.326 33.5733 188.219 34.0267 188.086 34.48C188.059 34.6133 188.059 34.7467 188.086 34.88C188.139 34.9867 188.233 35.0667 188.366 35.12C188.739 34.9867 189.113 34.8667 189.486 34.76C189.859 34.6533 190.193 34.48 190.486 34.24C191.019 33.8133 191.446 33.44 191.766 33.12C192.086 32.7733 192.339 32.3867 192.526 31.96C192.713 31.5067 192.846 30.92 192.926 30.2C192.953 30.04 192.939 29.8933 192.886 29.76C192.833 29.6 192.753 29.4667 192.646 29.36C192.406 29.2533 192.179 29.1333 191.966 29C191.779 28.84 191.633 28.6667 191.526 28.48C191.446 28.2667 191.446 28.0267 191.526 27.76C191.633 27.3867 191.846 27.12 192.166 26.96C192.513 26.8 192.833 26.7333 193.126 26.76C193.179 26.7867 193.219 26.8133 193.246 26.84C193.299 26.8667 193.339 26.9067 193.366 26.96C193.579 27.0667 193.793 27.2133 194.006 27.4C194.219 27.56 194.406 27.7067 194.566 27.84C194.673 28.1333 194.819 28.4533 195.006 28.8C195.193 29.1467 195.286 29.68 195.286 30.4C195.286 31.8933 194.886 33.1067 194.086 34.04C193.313 34.9733 192.286 35.7867 191.006 36.48C190.819 36.5867 190.619 36.6667 190.406 36.72C190.219 36.7467 190.046 36.8267 189.886 36.96C189.859 36.9333 189.739 36.9467 189.526 37C189.313 37.0267 189.099 37.0667 188.886 37.12C188.673 37.1733 188.539 37.2133 188.486 37.24Z" fill="#F0F0F0"/>
<path d="M56.7702 72.56C55.9968 72.6933 55.2902 72.6533 54.6502 72.44C54.0102 72.2 53.4902 71.8133 53.0902 71.28C52.7168 70.72 52.5302 70.0133 52.5302 69.16C52.4502 68.36 52.5435 67.44 52.8102 66.4C53.0768 65.3333 53.4635 64.2667 53.9702 63.2C54.5035 62.1333 55.0768 61.2133 55.6902 60.44C56.2235 59.8 56.7568 59.2133 57.2902 58.68C57.8235 58.1467 58.3035 57.7867 58.7302 57.6C59.1035 57.44 59.4502 57.3467 59.7702 57.32C60.1168 57.2667 60.3968 57.24 60.6102 57.24C61.0368 57.3467 61.4902 57.5467 61.9702 57.84C62.4768 58.1067 62.7302 58.4 62.7302 58.72C62.7302 58.72 62.7568 58.76 62.8102 58.84C62.8902 58.8933 62.9302 58.92 62.9302 58.92C63.0902 58.92 63.2235 59.0933 63.3302 59.44C63.4635 59.7867 63.5435 60.1867 63.5702 60.64C63.5968 61.0667 63.5302 61.4267 63.3702 61.72C63.2635 62.2267 63.0768 62.6667 62.8102 63.04C62.5435 63.4133 62.3035 63.6 62.0902 63.6C61.9835 63.6 61.8768 63.6133 61.7702 63.64C61.6902 63.64 61.6502 63.7067 61.6502 63.84C61.6502 63.9733 61.5702 64.0267 61.4102 64C61.2768 63.9733 61.1302 63.8933 60.9702 63.76C60.8102 63.6 60.6902 63.4133 60.6102 63.2C60.6102 63.0667 60.6635 62.84 60.7702 62.52C60.8768 62.2 60.9835 61.7867 61.0902 61.28C61.2502 60.5333 61.2368 60.0533 61.0502 59.84C60.8635 59.6 60.5035 59.5867 59.9702 59.8C59.3035 60.1733 58.6635 60.6933 58.0502 61.36C57.4635 62.0267 56.9168 62.8933 56.4102 63.96C55.9035 65 55.4502 66.3067 55.0502 67.88C54.8902 68.4933 54.8235 69.0267 54.8502 69.48C54.9035 69.9333 54.9702 70.1733 55.0502 70.2C55.4235 70.3067 55.9302 70.3333 56.5702 70.28C57.2102 70.2 57.6768 70.08 57.9702 69.92C58.3968 69.7067 58.8768 69.4267 59.4102 69.08C59.9435 68.7067 60.4102 68.3733 60.8102 68.08C60.9435 68 61.1035 67.8667 61.2902 67.68C61.4768 67.4933 61.6768 67.3467 61.8902 67.24C62.1035 66.92 62.2902 66.7333 62.4502 66.68C62.6102 66.6267 62.8502 66.6 63.1702 66.6C63.3835 66.6533 63.5835 66.7333 63.7702 66.84C63.9568 66.9467 64.0768 67.0533 64.1302 67.16C64.2102 67.2667 64.1702 67.36 64.0102 67.44C63.9035 67.44 63.8368 67.48 63.8102 67.56C63.8102 67.6133 63.8102 67.64 63.8102 67.64C63.8635 67.7467 63.7435 67.9733 63.4502 68.32C63.1835 68.64 62.8368 69 62.4102 69.4C61.9835 69.8 61.5702 70.1467 61.1702 70.44C60.7968 70.7067 60.5302 70.84 60.3702 70.84C60.1035 70.84 59.9702 70.92 59.9702 71.08C59.9702 71.1333 59.7702 71.2667 59.3702 71.48C58.9968 71.6933 58.5568 71.9067 58.0502 72.12C57.5702 72.3333 57.1435 72.48 56.7702 72.56ZM69.5089 73.32C69.0022 73.2667 68.5622 73.1333 68.1889 72.92C67.8422 72.68 67.5222 72.4667 67.2289 72.28C67.2022 72.2533 67.0822 71.9867 66.8689 71.48C66.6556 70.9733 66.5489 70.4533 66.5489 69.92C66.5489 69.7867 66.5756 69.64 66.6289 69.48C66.6822 69.32 66.7089 69.1467 66.7089 68.96L67.1489 67.12C67.3089 66.6933 67.5489 66.1867 67.8689 65.6C68.2156 65.0133 68.5222 64.48 68.7889 64C69.1622 63.44 69.5622 62.8133 69.9889 62.12C70.4422 61.4267 70.8289 60.7867 71.1489 60.2C71.4956 59.6133 71.6689 59.2267 71.6689 59.04C71.3222 58.9067 71.0822 58.84 70.9489 58.84C70.8422 58.8133 70.7222 58.8133 70.5889 58.84C70.4822 58.8667 70.2689 58.92 69.9489 59C69.5222 59.1333 69.1222 59.32 68.7489 59.56C68.3756 59.7733 68.0022 60 67.6289 60.24C67.2822 60.16 67.0156 60 66.8289 59.76C66.6422 59.4933 66.5089 59.1333 66.4289 58.68C66.4822 58.44 66.6689 58.2267 66.9889 58.04C67.3089 57.8533 67.6289 57.68 67.9489 57.52C68.1622 57.44 68.4822 57.32 68.9089 57.16C69.3356 56.9733 69.7222 56.8933 70.0689 56.92C70.5222 56.76 71.0022 56.6933 71.5089 56.72C72.0156 56.72 72.4956 56.8133 72.9489 57C73.4022 57.1867 73.7622 57.4667 74.0289 57.84C74.0289 58.2667 74.0289 58.6133 74.0289 58.88C74.0289 59.12 73.9889 59.36 73.9089 59.6C73.8556 59.84 73.7222 60.16 73.5089 60.56C73.2956 60.9867 73.0556 61.4 72.7889 61.8C72.5489 62.2 72.3089 62.6133 72.0689 63.04L73.1089 62.96C74.2022 62.8267 75.0422 63.08 75.6289 63.72C76.2156 64.3333 76.5089 65.1467 76.5089 66.16C76.5356 67.1467 76.2022 68.1467 75.5089 69.16C75.3222 69.4533 75.1356 69.7333 74.9489 70C74.7889 70.2667 74.5889 70.5067 74.3489 70.72C73.4422 71.4667 72.6422 72.0933 71.9489 72.6C71.2556 73.08 70.4422 73.32 69.5089 73.32ZM69.8289 71.2C70.4689 70.9867 71.0422 70.6933 71.5489 70.32C72.0556 69.92 72.6022 69.3467 73.1889 68.6C73.6956 68.0933 74.0022 67.4933 74.1089 66.8C74.2156 66.1067 74.1622 65.48 73.9489 64.92C73.8689 64.68 73.7489 64.52 73.5889 64.44C73.4289 64.36 73.2422 64.3467 73.0289 64.4L70.8289 64.96C70.7489 65.12 70.6022 65.3867 70.3889 65.76C70.1756 66.1067 69.9756 66.4667 69.7889 66.84C69.6022 67.1867 69.4689 67.44 69.3889 67.6C69.2022 68.0533 69.0289 68.64 68.8689 69.36C68.7356 70.0533 68.6956 70.6533 68.7489 71.16C69.1222 71.1867 69.3489 71.2133 69.4289 71.24C69.5356 71.24 69.6689 71.2267 69.8289 71.2ZM86.4814 71.6C85.9214 72.08 85.2681 72.36 84.5214 72.44C83.8014 72.52 83.0947 72.4133 82.4014 72.12C81.7081 71.8 81.1347 71.32 80.6814 70.68C80.2281 70.0933 79.9347 69.4267 79.8014 68.68C79.6681 67.9067 79.6547 66.9067 79.7614 65.68C79.8414 64.64 80.1747 63.6 80.7614 62.56C81.3481 61.4933 82.0547 60.5467 82.8814 59.72C83.7347 58.8933 84.5747 58.32 85.4014 58C85.8014 57.7333 86.1347 57.6133 86.4014 57.64C86.6947 57.64 87.1347 57.6667 87.7214 57.72C88.3347 57.8 88.7881 57.92 89.0814 58.08C89.4014 58.24 89.6547 58.4533 89.8414 58.72C90.2414 59.12 90.5081 59.52 90.6414 59.92C90.7747 60.2933 90.8414 60.6667 90.8414 61.04C90.7347 61.6267 90.3347 62.3467 89.6414 63.2C88.9747 64.0267 88.0947 64.7067 87.0014 65.24C86.4147 65.4267 85.7747 65.5067 85.0814 65.48C84.3881 65.4533 83.8147 65.28 83.3614 64.96C82.8547 64.7467 82.5214 64.7867 82.3614 65.08C82.2014 65.3467 82.0547 66.0133 81.9214 67.08C81.8147 68.0933 81.8947 68.84 82.1614 69.32C82.4281 69.7733 82.7881 70.04 83.2414 70.12C83.7747 70.2267 84.1881 70.3067 84.4814 70.36C84.8014 70.3867 85.1881 70.2667 85.6414 70C86.0681 69.7333 86.3347 69.5867 86.4414 69.56C86.5481 69.5067 86.6281 69.4533 86.6814 69.4C86.7614 69.32 86.9347 69.1467 87.2014 68.88C87.3881 68.6933 87.5347 68.56 87.6414 68.48C87.7481 68.3733 87.8681 68.32 88.0014 68.32C88.1347 68.32 88.2547 68.3867 88.3614 68.52C88.4681 68.6267 88.5747 68.7067 88.6814 68.76C88.9481 68.76 89.0014 68.92 88.8414 69.24C88.7081 69.56 88.4281 69.9467 88.0014 70.4C87.5747 70.8267 87.0681 71.2267 86.4814 71.6ZM86.4414 63.12C86.7347 62.9867 87.0414 62.8 87.3614 62.56C87.6814 62.2933 87.9481 62.0133 88.1614 61.72C88.4014 61.4 88.5214 61.1333 88.5214 60.92C88.5214 60.5467 88.3481 60.24 88.0014 60C87.6547 59.7333 87.1347 59.6933 86.4414 59.88C86.1481 59.96 85.8147 60.16 85.4414 60.48C85.0681 60.7733 84.7081 61.1067 84.3614 61.48C84.0414 61.8533 83.7747 62.1867 83.5614 62.48C83.3747 62.7733 83.3081 62.9467 83.3614 63C83.4414 63.1333 83.6681 63.24 84.0414 63.32C84.4147 63.3733 84.8281 63.3867 85.2814 63.36C85.7614 63.3333 86.1481 63.2533 86.4414 63.12ZM108.369 72.88C108.103 72.7467 107.903 72.6133 107.769 72.48C107.636 72.32 107.409 72.1467 107.089 71.96C106.983 71.5867 106.863 71.2133 106.729 70.84C106.623 70.44 106.583 70.0533 106.609 69.68C106.636 69.4667 106.596 69.24 106.489 69C106.409 68.7333 106.423 68.5067 106.529 68.32C106.476 67.8933 106.489 67.3467 106.569 66.68C106.649 65.9867 106.756 65.3333 106.889 64.72C107.023 64.08 107.116 63.6267 107.169 63.36C107.089 63.2533 107.009 63.1867 106.929 63.16C106.876 63.1333 106.796 63.1733 106.689 63.28C106.423 63.5467 106.169 63.8133 105.929 64.08C105.689 64.3467 105.436 64.6267 105.169 64.92C105.063 65.0267 104.943 65.1333 104.809 65.24C104.676 65.32 104.609 65.4533 104.609 65.64L103.169 67.56C103.063 67.7733 102.863 68.0533 102.569 68.4C102.303 68.72 102.089 69.1067 101.929 69.56C101.876 69.7467 101.783 69.9067 101.649 70.04C101.516 70.1467 101.383 70.2533 101.249 70.36C100.903 70.2267 100.676 70.1333 100.569 70.08C100.463 70.0267 100.263 69.8667 99.9692 69.6C99.7026 69.3333 99.5159 69.0933 99.4092 68.88C99.3026 68.64 99.2759 68.4 99.3292 68.16C99.3292 67.76 99.3292 67.2 99.3292 66.48C99.3559 65.7333 99.3559 65.0267 99.3292 64.36C99.3292 63.6667 99.2759 63.1867 99.1692 62.92C98.8759 62.9467 98.6759 62.9867 98.5692 63.04C98.4626 63.0933 98.3292 63.2533 98.1692 63.52C98.1959 63.4933 98.0759 63.68 97.8092 64.08C97.5692 64.4533 97.2359 64.9467 96.8092 65.56C96.4092 66.1467 96.0092 66.7467 95.6092 67.36C95.2092 67.9467 94.8759 68.4533 94.6092 68.88C94.3692 69.28 94.2626 69.4667 94.2892 69.44C94.1026 69.6533 93.9426 69.88 93.8092 70.12C93.7026 70.36 93.5959 70.6133 93.4892 70.88C93.3559 71.2 93.2092 71.4133 93.0492 71.52C92.8892 71.6 92.7426 71.5733 92.6092 71.44C92.3959 71.3067 92.1692 71.1733 91.9292 71.04C91.7159 70.9067 91.5292 70.7867 91.3692 70.68C91.2626 70.4933 91.1692 70.3067 91.0892 70.12C91.0359 69.9067 90.9959 69.6667 90.9692 69.4C91.1826 69.2667 91.3292 69.1867 91.4092 69.16C91.4892 69.1067 91.5559 69.0133 91.6092 68.88C92.1959 68 92.7026 67.2533 93.1292 66.64C93.5559 66 93.9159 65.48 94.2092 65.08C94.5026 64.68 94.7292 64.3733 94.8892 64.16C95.0492 63.92 95.1426 63.76 95.1692 63.68C95.3026 63.4133 95.4626 63.16 95.6492 62.92C95.8626 62.68 96.0626 62.4267 96.2492 62.16C96.2759 62.08 96.4092 61.8933 96.6492 61.6C96.8892 61.28 97.1426 60.96 97.4092 60.64C97.6759 60.32 97.8626 60.1333 97.9692 60.08C98.1026 60 98.1959 59.8933 98.2492 59.76C98.3292 59.6 98.4092 59.44 98.4892 59.28C98.5426 59.04 98.6626 58.8667 98.8492 58.76C99.0359 58.6533 99.3159 58.6267 99.6892 58.68C99.9026 58.8667 100.143 59.0667 100.409 59.28C100.676 59.4667 100.956 59.6667 101.249 59.88C101.223 60.1467 101.209 60.4267 101.209 60.72C101.236 61.0133 101.343 61.4667 101.529 62.08C101.449 62.4 101.463 62.7333 101.569 63.08C101.676 63.4267 101.676 63.7467 101.569 64.04C101.569 64.3867 101.649 64.64 101.809 64.8C101.996 64.9333 102.276 64.8 102.649 64.4C103.076 63.8667 103.583 63.2933 104.169 62.68C104.756 62.04 105.329 61.44 105.889 60.88C106.476 60.2933 106.969 59.8 107.369 59.4C107.796 58.9733 108.049 58.7067 108.129 58.6C108.183 58.4667 108.276 58.4 108.409 58.4C108.569 58.3733 108.716 58.4 108.849 58.48C109.303 58.72 109.609 58.8933 109.769 59C109.929 59.1067 110.156 59.3067 110.449 59.6C110.716 59.9733 110.756 60.3067 110.569 60.6C110.463 60.8667 110.316 61.3067 110.129 61.92C109.969 62.5067 109.796 63.16 109.609 63.88C109.449 64.6 109.303 65.28 109.169 65.92C109.063 66.5333 108.996 67.0133 108.969 67.36C108.943 67.8933 108.916 68.4533 108.889 69.04C108.863 69.6 108.903 70.1867 109.009 70.8C109.223 71.6267 109.276 72.16 109.169 72.4C109.089 72.6133 108.823 72.7733 108.369 72.88ZM113.828 72.8C113.614 72.72 113.388 72.56 113.148 72.32C112.908 72.0533 112.708 71.7467 112.548 71.4C112.388 71.0533 112.308 70.7333 112.308 70.44C112.441 70.1467 112.614 69.64 112.828 68.92C113.041 68.1733 113.308 67.32 113.628 66.36C113.841 66.0667 114.001 65.72 114.108 65.32C114.241 64.92 114.361 64.56 114.468 64.24C114.681 63.8133 114.934 63.2667 115.228 62.6C115.521 61.9067 115.801 61.2133 116.068 60.52C116.361 59.8 116.614 59.2 116.828 58.72C117.121 58.0267 117.294 57.6 117.348 57.44C117.401 57.2533 117.441 57.1067 117.468 57C117.468 56.7867 117.521 56.6133 117.628 56.48C117.734 56.32 117.841 56.24 117.948 56.24C118.054 56.1333 118.174 56.08 118.308 56.08C118.468 56.0533 118.601 56.04 118.708 56.04C119.001 56.04 119.254 56.24 119.468 56.64C119.681 57.0133 119.788 57.36 119.788 57.68C119.788 58 119.668 58.4533 119.428 59.04C119.214 59.6 118.961 60.1867 118.668 60.8C118.401 61.4133 118.174 61.9467 117.988 62.4C117.801 62.8533 117.748 63.12 117.828 63.2C117.828 63.2 118.014 63.12 118.388 62.96C118.761 62.7733 119.161 62.52 119.588 62.2C119.881 62.04 120.201 61.84 120.548 61.6C120.894 61.36 121.228 61.1333 121.548 60.92C121.868 60.68 122.134 60.5333 122.348 60.48C122.668 60.2667 123.001 60.0667 123.348 59.88C123.694 59.6667 123.921 59.5067 124.028 59.4C124.481 59.1867 124.814 59.12 125.028 59.2C125.268 59.28 125.508 59.48 125.748 59.8C126.041 60.1467 126.094 60.4533 125.908 60.72C125.721 60.96 125.281 61.2933 124.588 61.72C124.028 62.0667 123.348 62.48 122.548 62.96C121.774 63.44 121.081 63.8667 120.468 64.24C119.881 64.6133 119.548 64.84 119.468 64.92C119.468 64.92 119.574 65.12 119.788 65.52C120.001 65.92 120.214 66.28 120.428 66.6C120.641 67.0267 120.868 67.4267 121.108 67.8C121.374 68.1467 121.508 68.3867 121.508 68.52C121.721 69.08 121.988 69.5467 122.308 69.92C122.628 70.2667 122.988 70.4933 123.388 70.6C123.814 70.68 124.241 70.6267 124.668 70.44C125.201 70.2267 125.588 70.16 125.828 70.24C126.094 70.32 126.281 70.52 126.388 70.84C126.494 71.0533 126.521 71.2133 126.468 71.32C126.441 71.4 126.268 71.6 125.948 71.92C125.441 72.4267 124.921 72.7467 124.388 72.88C123.881 73.0133 123.414 72.9733 122.988 72.76C122.721 72.76 122.414 72.6533 122.068 72.44C121.721 72.2 121.294 71.8133 120.788 71.28C120.308 70.7467 119.708 70 118.988 69.04C118.988 68.9333 118.934 68.7867 118.828 68.6C118.748 68.3867 118.654 68.1867 118.548 68C118.441 67.7867 118.308 67.56 118.148 67.32C117.988 67.0533 117.908 66.92 117.908 66.92C117.908 66.84 117.881 66.7733 117.828 66.72C117.801 66.64 117.748 66.5467 117.668 66.44C117.614 66.3333 117.548 66.2133 117.468 66.08C117.041 65.9467 116.734 66.0267 116.548 66.32C116.361 66.6133 116.161 66.92 115.948 67.24C115.814 67.5867 115.641 68.08 115.428 68.72C115.241 69.3333 115.081 69.9333 114.948 70.52C114.841 71.1067 114.814 71.5067 114.868 71.72C114.868 72.1467 114.801 72.44 114.668 72.6C114.534 72.7333 114.254 72.8 113.828 72.8ZM127.317 82.64C126.73 82.7467 126.33 82.76 126.117 82.68C125.904 82.6 125.61 82.4667 125.237 82.28C124.944 82.0667 124.717 81.9067 124.557 81.8C124.397 81.6933 124.317 81.5867 124.317 81.48C124.317 81.4 124.344 81.3067 124.397 81.2C124.45 81.12 124.544 81.04 124.677 80.96C124.837 80.9067 125.05 80.88 125.317 80.88C125.504 80.9867 125.81 81.04 126.237 81.04C126.69 81.04 126.97 80.9867 127.077 80.88C127.077 80.88 127.197 80.8 127.437 80.64C127.704 80.5067 128.05 80.4 128.477 80.32C129.304 79.92 130.037 79.4133 130.677 78.8C131.317 78.1867 131.93 77.3867 132.517 76.4C132.757 76.0267 133.01 75.5867 133.277 75.08C133.544 74.6 133.73 74.12 133.837 73.64C134.05 73.1067 134.29 72.3867 134.557 71.48C134.85 70.5733 135.104 69.68 135.317 68.8C135.53 67.8933 135.65 67.2133 135.677 66.76C135.837 65.2667 136.09 63.8933 136.437 62.64C136.81 61.36 137.13 59.9333 137.397 58.36C137.557 57.9867 137.677 57.7733 137.757 57.72C137.837 57.64 138.01 57.6 138.277 57.6C138.57 57.6 138.784 57.6267 138.917 57.68C139.077 57.7067 139.25 57.8667 139.437 58.16C139.704 58.6667 139.797 59.2667 139.717 59.96C139.664 60.6267 139.464 61.2133 139.117 61.72C138.85 62.0933 138.61 62.68 138.397 63.48C138.21 64.2533 138.024 65.2267 137.837 66.4C137.704 66.9867 137.557 67.68 137.397 68.48C137.264 69.2533 137.117 70.12 136.957 71.08C136.85 71.3467 136.704 71.76 136.517 72.32C136.33 72.8533 136.21 73.28 136.157 73.6C136.13 73.7067 136.05 73.92 135.917 74.24C135.784 74.56 135.65 74.8667 135.517 75.16C135.384 75.48 135.29 75.6933 135.237 75.8C134.197 77.96 133.01 79.6133 131.677 80.76C130.344 81.9067 128.89 82.5333 127.317 82.64ZM130.357 71.04C130.064 71.04 129.757 70.88 129.437 70.56C129.144 70.24 128.944 69.9867 128.837 69.8C128.73 69.5333 128.597 69.28 128.437 69.04C128.277 68.8 128.157 68.5067 128.077 68.16C128.024 67.8133 128.05 67.3867 128.157 66.88C128.264 66.5333 128.41 66.04 128.597 65.4C128.81 64.7333 129.037 64.0133 129.277 63.24C129.544 62.4667 129.81 61.7067 130.077 60.96C130.37 60.1867 130.637 59.5067 130.877 58.92C131.117 58.3067 131.33 57.8667 131.517 57.6C131.677 57.3867 131.85 57.2533 132.037 57.2C132.25 57.1467 132.464 57.1733 132.677 57.28C132.89 57.36 133.077 57.5333 133.237 57.8C133.53 58.1733 133.65 58.4933 133.597 58.76C133.544 59.0267 133.304 59.5467 132.877 60.32C132.77 60.6133 132.637 60.9333 132.477 61.28C132.317 61.6 132.237 61.8133 132.237 61.92C132.21 61.9733 132.157 62.16 132.077 62.48C132.024 62.7733 131.957 63.0533 131.877 63.32C131.797 63.5867 131.717 63.72 131.637 63.72C131.53 63.8267 131.41 64.1333 131.277 64.64C131.144 65.12 131.024 65.6667 130.917 66.28C130.81 66.8667 130.744 67.3867 130.717 67.84C130.69 68.2667 130.73 68.48 130.837 68.48C131.664 68.48 132.517 68.16 133.397 67.52C134.304 66.88 135.21 65.9467 136.117 64.72L136.797 67.56C136.424 67.7467 136.077 67.9467 135.757 68.16C135.437 68.3467 135.144 68.5733 134.877 68.84C134.797 68.9467 134.61 69.0933 134.317 69.28C134.024 69.4667 133.73 69.64 133.437 69.8C133.17 69.9333 132.997 70 132.917 70C132.917 70 132.877 70.0133 132.797 70.04C132.744 70.04 132.717 70.0933 132.717 70.2C132.717 70.2533 132.544 70.36 132.197 70.52C131.85 70.6533 131.49 70.7733 131.117 70.88C130.744 70.9867 130.49 71.04 130.357 71.04Z" fill="#F0F0F0"/>
</svg>
