<svg width="18" height="18" viewBox="0 0 18 18" fill="none" xmlns="http://www.w3.org/2000/svg">
<path d="M16.148 5.46078L7.14804 14.4608C7.0958 14.5131 7.03376 14.5546 6.96547 14.5829C6.89719 14.6112 6.82399 14.6258 6.75007 14.6258C6.67615 14.6258 6.60295 14.6112 6.53467 14.5829C6.46638 14.5546 6.40434 14.5131 6.3521 14.4608L2.4146 10.5233C2.30905 10.4177 2.24976 10.2746 2.24976 10.1253C2.24976 9.97605 2.30905 9.83289 2.4146 9.72734C2.52015 9.6218 2.6633 9.5625 2.81257 9.5625C2.96184 9.5625 3.10499 9.6218 3.21054 9.72734L6.75007 13.2676L15.3521 4.66484C15.4576 4.5593 15.6008 4.5 15.7501 4.5C15.8993 4.5 16.0425 4.5593 16.148 4.66484C16.2536 4.77039 16.3129 4.91355 16.3129 5.06281C16.3129 5.21208 16.2536 5.35523 16.148 5.46078Z" fill="#C0551A"/>
</svg>
