<svg width="36" height="36" viewBox="0 0 36 36" fill="none" xmlns="http://www.w3.org/2000/svg">
<g clip-path="url(#clip0_10417_921)">
<path d="M18.1669 18.3052C18.9189 18.3052 19.5323 17.7603 19.6256 17.0089L19.9836 14.1135C20.2968 11.5787 22.2977 9.62004 24.7545 9.33881L24.7533 11.3838C24.7533 11.619 24.8879 11.8331 25.1001 11.9347C25.3128 12.036 25.5637 12.0065 25.7466 11.8591L32.4208 6.47204C32.5643 6.35613 32.6478 6.18159 32.6478 5.9971C32.6478 5.81269 32.5643 5.63808 32.4208 5.52217L25.7466 0.135287C25.5637 -0.0122269 25.3128 -0.0416869 25.1001 0.0596354C24.8879 0.161244 24.7533 0.375472 24.7533 0.610508L24.7545 2.71303C21.4826 2.91203 18.5824 4.7068 16.9119 7.59917C15.1092 10.7213 15.1082 14.4488 16.9096 17.5708C17.175 18.0306 17.6452 18.3052 18.1669 18.3052ZM17.9687 8.20939C19.5219 5.52052 22.2867 3.91496 25.365 3.91496C25.5268 3.91496 25.682 3.8506 25.7968 3.7362C25.9112 3.6215 25.9752 3.46627 25.9752 3.30445L25.9744 1.88744L31.0661 5.99718L25.9744 10.1069L25.9752 8.69412C25.9752 8.53231 25.9112 8.37714 25.7968 8.26245C25.6821 8.14804 25.5268 8.08368 25.365 8.08368C22.021 8.08368 19.1867 10.6117 18.7723 13.9641L18.4145 16.8591C18.3871 17.0787 18.1895 17.0849 18.1669 17.0849C18.0805 17.0849 18.015 17.0444 17.9667 16.9607C16.3855 14.2209 16.3864 10.9495 17.9687 8.20939Z" fill="black"/>
<path d="M34.4169 13.233C34.3987 13.2181 34.3793 13.2041 34.3597 13.1916C34.0466 12.9473 33.6571 12.8135 33.2544 12.8135H21.3864C21.0494 12.8135 20.7762 13.0867 20.7762 13.4236C20.7762 13.7606 21.0494 14.0338 21.3864 14.0338H32.6596L18.7701 25.4257C18.3238 25.7955 17.6761 25.7948 17.2274 25.4239L3.34041 14.0338H14.3756C14.7126 14.0338 14.9857 13.7606 14.9857 13.4237C14.9857 13.0868 14.7125 12.8135 14.3756 12.8135H2.74564C2.34371 12.8135 1.95522 12.9467 1.64268 13.1899C1.62215 13.203 1.60213 13.2176 1.58311 13.2331C1.57067 13.2433 1.56195 13.2567 1.54979 13.2672C1.54436 13.2725 1.53949 13.2777 1.53428 13.2831C1.143 13.6306 0.915115 14.1201 0.915115 14.6441V34.1697C0.915115 34.6979 1.14593 35.1916 1.54293 35.5395C1.54379 35.5403 1.54457 35.5412 1.54536 35.542C1.55909 35.5539 1.56895 35.569 1.58304 35.5807C1.6012 35.5955 1.62058 35.6095 1.64025 35.6221C1.95336 35.8664 2.34278 36.0001 2.74557 36.0001H33.2543C33.6562 36.0001 34.0447 35.867 34.3572 35.6239C34.3778 35.6108 34.3978 35.5961 34.4168 35.5807C34.4286 35.5709 34.4368 35.5582 34.4484 35.5483C34.4549 35.542 34.4607 35.5359 34.4669 35.5293C34.8573 35.1819 35.0848 34.6931 35.0848 34.1696V14.644C35.0849 14.0964 34.8415 13.5822 34.4169 13.233ZM2.13899 34.1867C2.13878 34.1807 2.13549 34.1756 2.13549 34.1695V14.644C2.13549 14.6379 2.13878 14.6328 2.13899 14.6268L14.0553 24.4005L2.13899 34.1867ZM3.3402 34.7797L15.0175 25.1897L16.4516 26.366C16.9006 26.7372 17.4509 26.9229 18.0009 26.9229C18.55 26.9229 19.0988 26.7379 19.546 26.3678L20.9824 25.1896L32.6598 34.7797H3.3402V34.7797ZM33.8645 34.1696C33.8645 34.1757 33.8612 34.1809 33.861 34.187L21.9446 24.4005L33.861 14.6267C33.8612 14.6328 33.8645 14.6379 33.8645 14.6441V34.1696Z" fill="black"/>
</g>
<defs>
<clipPath id="clip0_10417_921">
<rect width="36" height="36" fill="white"/>
</clipPath>
</defs>
</svg>
