<svg width="36" height="36" viewBox="0 0 36 36" fill="none" xmlns="http://www.w3.org/2000/svg">
<path d="M18.0026 4.90894C14.4474 4.90894 14.0013 4.92448 12.605 4.98803C11.2114 5.05184 10.2601 5.27248 9.42778 5.59621C8.56681 5.93057 7.83647 6.37784 7.10885 7.10575C6.38069 7.83339 5.93343 8.56375 5.59799 9.42448C5.27345 10.2571 5.05255 11.2087 4.98983 12.6018C4.92737 13.9981 4.91101 14.4446 4.91101 17.9998C4.91101 21.5551 4.92683 21.9999 4.9901 23.3963C5.05419 24.7899 5.27482 25.7412 5.59826 26.5736C5.93289 27.4346 6.38015 28.1649 7.10803 28.8926C7.83538 29.6208 8.56572 30.0691 9.42615 30.4035C10.259 30.7272 11.2105 30.9478 12.6039 31.0117C14.0002 31.0752 14.4461 31.0908 18.001 31.0908C21.5564 31.0908 22.0012 31.0752 23.3975 31.0117C24.7911 30.9478 25.7435 30.7272 26.5764 30.4035C27.4371 30.0691 28.1663 29.6208 28.8936 28.8926C29.6218 28.1649 30.0691 27.4346 30.4045 26.5738C30.7263 25.7412 30.9472 24.7897 31.0127 23.3966C31.0754 22.0002 31.0918 21.5551 31.0918 17.9998C31.0918 14.4446 31.0754 13.9984 31.0127 12.602C30.9472 11.2084 30.7263 10.2571 30.4045 9.42475C30.0691 8.56375 29.6218 7.83339 28.8936 7.10575C28.1655 6.37757 27.4373 5.9303 26.5755 5.59621C25.741 5.27248 24.7892 5.05184 23.3956 4.98803C21.9993 4.92448 21.5548 4.90894 17.9985 4.90894H18.0026ZM16.8283 7.26803C17.1768 7.26748 17.5657 7.26803 18.0026 7.26803C21.4978 7.26803 21.912 7.28057 23.2923 7.3433C24.5686 7.40166 25.2613 7.61494 25.7227 7.79412C26.3336 8.03139 26.7692 8.31503 27.2271 8.77321C27.6852 9.23139 27.9689 9.66775 28.2067 10.2787C28.3858 10.7396 28.5994 11.4323 28.6575 12.7087C28.7202 14.0887 28.7338 14.5032 28.7338 17.9968C28.7338 21.4905 28.7202 21.905 28.6575 23.285C28.5991 24.5614 28.3858 25.2541 28.2067 25.715C27.9694 26.3259 27.6852 26.7609 27.2271 27.2188C26.7689 27.677 26.3339 27.9607 25.7227 28.1979C25.2618 28.3779 24.5686 28.5907 23.2923 28.649C21.9123 28.7118 21.4978 28.7254 18.0026 28.7254C14.5072 28.7254 14.0929 28.7118 12.713 28.649C11.4366 28.5901 10.7439 28.3768 10.2822 28.1977C9.67132 27.9604 9.23497 27.6768 8.7768 27.2186C8.31863 26.7604 8.03501 26.3251 7.7972 25.7139C7.61802 25.253 7.40448 24.5603 7.34639 23.2839C7.28367 21.9039 7.27112 21.4894 7.27112 17.9936C7.27112 14.4978 7.28367 14.0854 7.34639 12.7054C7.40475 11.429 7.61802 10.7363 7.7972 10.2748C8.03446 9.66394 8.31863 9.22757 8.7768 8.76939C9.23497 8.31121 9.67132 8.02757 10.2822 7.78975C10.7437 7.60975 11.4366 7.39703 12.713 7.33839C13.9206 7.28384 14.3885 7.26748 16.8283 7.26475V7.26803ZM24.9902 9.44166C24.123 9.44166 23.4194 10.1445 23.4194 11.012C23.4194 11.8793 24.123 12.5829 24.9902 12.5829C25.8575 12.5829 26.5611 11.8793 26.5611 11.012C26.5611 10.1448 25.8575 9.44112 24.9902 9.44112V9.44166ZM18.0026 11.2771C14.2901 11.2771 11.2801 14.2872 11.2801 17.9998C11.2801 21.7125 14.2901 24.7212 18.0026 24.7212C21.7151 24.7212 24.724 21.7125 24.724 17.9998C24.724 14.2872 21.7149 11.2771 18.0023 11.2771H18.0026ZM18.0026 13.6362C20.4124 13.6362 22.3661 15.5898 22.3661 17.9998C22.3661 20.4097 20.4124 22.3635 18.0026 22.3635C15.5926 22.3635 13.6391 20.4097 13.6391 17.9998C13.6391 15.5898 15.5926 13.6362 18.0026 13.6362Z" fill="#F0F0F0"/>
</svg>
