<svg width="20" height="20" viewBox="0 0 20 20" fill="none" xmlns="http://www.w3.org/2000/svg">
<path d="M13.0002 2H7C4.2496 2 2 4.25 2 7V12.9998C2 15.7496 4.2496 18 7 18H13.0002C15.7502 18 18 15.7496 18 12.9996V7C18 4.25 15.7502 2 13.0002 2ZM10 14.0004C7.7912 14.0004 5.9996 12.2082 5.9996 10.0002C5.9996 7.791 7.7912 6.0002 10 6.0002C12.2082 6.0002 13.9998 7.791 13.9998 10.0002C13.9998 12.2082 12.2082 14.0004 10 14.0004ZM14.3752 6.4998C13.892 6.4998 13.5002 6.108 13.5002 5.625C13.5002 5.1416 13.892 4.75 14.3752 4.75C14.858 4.75 15.2502 5.1416 15.2502 5.625C15.2502 6.108 14.858 6.4998 14.3752 6.4998Z" stroke="#252525" stroke-width="0.5" stroke-miterlimit="10" stroke-linecap="round" stroke-linejoin="round"/>
<path d="M13.9997 10C13.9997 12.2082 12.2081 14.0002 9.99991 14.0002C7.79111 14.0002 5.99951 12.208 5.99951 10C5.99951 7.7908 7.79111 6 9.99991 6C12.2081 6 13.9997 7.791 13.9997 10Z" stroke="#252525" stroke-width="0.5" stroke-miterlimit="10" stroke-linecap="round" stroke-linejoin="round"/>
<path d="M14.3752 6.5C14.8585 6.5 15.2502 6.10825 15.2502 5.625C15.2502 5.14175 14.8585 4.75 14.3752 4.75C13.892 4.75 13.5002 5.14175 13.5002 5.625C13.5002 6.10825 13.892 6.5 14.3752 6.5Z" stroke="#252525" stroke-width="0.5" stroke-miterlimit="10" stroke-linecap="round" stroke-linejoin="round"/>
<path d="M12.4998 10C12.4998 11.38 11.38 12.5002 9.99996 12.5002C8.61936 12.5002 7.49976 11.3798 7.49976 10C7.49976 8.619 8.61956 7.5 9.99996 7.5C11.38 7.5 12.4998 8.619 12.4998 10Z" stroke="#252525" stroke-width="0.5" stroke-miterlimit="10" stroke-linecap="round" stroke-linejoin="round"/>
</svg>
