<svg width="30" height="23" viewBox="0 0 30 23" fill="none" xmlns="http://www.w3.org/2000/svg">
<rect x="29.1333" y="11.7554" width="6.64444" height="1.02222" transform="rotate(-180 29.1333 11.7554)" fill="#EC5805"/>
<circle cx="11.5" cy="11.5" r="11.5" transform="rotate(-180 11.5 11.5)" fill="#EC5805"/>
<path d="M3.55856 10.7143C3.26567 11.0072 3.26567 11.4821 3.55856 11.775L8.33153 16.5479C8.62442 16.8408 9.0993 16.8408 9.39219 16.5479C9.68508 16.255 9.68508 15.7802 9.39219 15.4873L5.14955 11.2446L9.39219 7.00199C9.68508 6.70909 9.68508 6.23422 9.39219 5.94133C9.0993 5.64843 8.62442 5.64843 8.33153 5.94133L3.55856 10.7143ZM23 10.4946L4.08889 10.4946L4.08889 11.9946L23 11.9946L23 10.4946Z" fill="#252525"/>
<path d="M3.55856 10.7143C3.26567 11.0072 3.26567 11.4821 3.55856 11.775L8.33153 16.5479C8.62442 16.8408 9.0993 16.8408 9.39219 16.5479C9.68508 16.255 9.68508 15.7802 9.39219 15.4873L5.14955 11.2446L9.39219 7.00199C9.68508 6.70909 9.68508 6.23422 9.39219 5.94133C9.0993 5.64843 8.62442 5.64843 8.33153 5.94133L3.55856 10.7143ZM23 10.4946L4.08889 10.4946L4.08889 11.9946L23 11.9946L23 10.4946Z" fill="#252525"/>
</svg>
