<svg width="57" height="45" viewBox="0 0 57 45" fill="none" xmlns="http://www.w3.org/2000/svg">
<rect y="22" width="13" height="2" fill="#EC5805"/>
<circle cx="34.5" cy="22.5" r="22.5" fill="#EC5805"/>
<path d="M49.5303 23.5303C49.8232 23.2374 49.8232 22.7626 49.5303 22.4697L44.7574 17.6967C44.4645 17.4038 43.9896 17.4038 43.6967 17.6967C43.4038 17.9896 43.4038 18.4645 43.6967 18.7574L47.9393 23L43.6967 27.2426C43.4038 27.5355 43.4038 28.0104 43.6967 28.3033C43.9896 28.5962 44.4645 28.5962 44.7574 28.3033L49.5303 23.5303ZM12 23.75L49 23.75L49 22.25L12 22.25L12 23.75Z" fill="black"/>
<path d="M49.5303 23.5303C49.8232 23.2374 49.8232 22.7626 49.5303 22.4697L44.7574 17.6967C44.4645 17.4038 43.9896 17.4038 43.6967 17.6967C43.4038 17.9896 43.4038 18.4645 43.6967 18.7574L47.9393 23L43.6967 27.2426C43.4038 27.5355 43.4038 28.0104 43.6967 28.3033C43.9896 28.5962 44.4645 28.5962 44.7574 28.3033L49.5303 23.5303ZM12 23.75L49 23.75L49 22.25L12 22.25L12 23.75Z" fill="black"/>
</svg>
