<svg width="132" height="78" viewBox="0 0 132 78" fill="none" xmlns="http://www.w3.org/2000/svg">
<path d="M36.1747 7.25807V6.09448H41.7082L63.8939 32.9863H63.9457L63.5836 7.51665L59.6274 7.25807V6.09448H69.1947V7.25807L65.2127 7.51665L65.4971 43.5103H63.9198L41.734 16.5409H41.6823L42.0443 41.571L46.0005 41.8296V42.9931H36.4333V41.8296L40.4153 41.571L40.1309 7.51665L36.1747 7.25807Z" fill="#F0F0F0"/>
<path d="M0 24.6602C0 21.1091 0.637819 17.8683 1.91346 14.9377C3.18909 12.0072 5.05945 9.65418 7.52454 7.87863C10.0069 6.08585 12.8598 5.18945 16.0834 5.18945C20.9446 5.18945 24.8577 6.90467 27.8227 10.3351C30.8049 13.7655 32.296 18.2647 32.296 23.8327C32.296 25.8668 32.0892 27.8406 31.6755 29.7541C31.279 31.6675 30.6498 33.4862 29.7879 35.21C28.9259 36.9166 27.8744 38.4164 26.6332 39.7092C25.4093 40.9849 23.901 42.0019 22.1082 42.7604C20.3154 43.5189 18.3588 43.8981 16.2385 43.8981C11.1877 43.8981 7.21425 42.1398 4.3182 38.6232C1.4394 35.1066 0 30.4522 0 24.6602ZM6.92981 24.0913C6.92981 27.4872 7.26596 30.5557 7.93826 33.2966C8.61055 36.0202 9.64485 38.2354 11.0412 39.9419C12.4547 41.6313 14.1354 42.476 16.0834 42.476C18.9794 42.476 21.2463 40.7952 22.8839 37.4338C24.5388 34.0723 25.3662 29.6076 25.3662 24.0396C25.3662 18.2475 24.556 13.8948 22.9356 10.9815C21.3324 8.06826 19.1001 6.61162 16.2385 6.61162C15.2387 6.61162 14.282 6.81848 13.3683 7.2322C12.4719 7.64592 11.6273 8.30959 10.8343 9.22323C10.0413 10.1369 9.36042 11.266 8.79155 12.6106C8.22269 13.9379 7.76587 15.5842 7.42111 17.5493C7.09358 19.5145 6.92981 21.6952 6.92981 24.0913Z" fill="#F0F0F0"/>
<path d="M131.897 33.1827C131.243 34.0676 130.435 34.8755 129.474 35.6065C128.55 36.299 127.492 36.6453 126.3 36.6453C125.646 36.6453 124.992 36.4914 124.337 36.1836C123.722 35.8373 123.222 35.3372 122.837 34.6832C122.568 35.2987 122.221 36.0105 121.798 36.8184C121.375 37.5878 120.875 38.3765 120.298 39.1844C119.721 39.9539 119.067 40.6656 118.336 41.3197C117.643 41.9737 116.893 42.5123 116.085 42.9355C115.393 43.2433 114.816 43.3972 114.354 43.3972C112.969 43.3972 112.276 42.7816 112.276 41.5505C112.276 40.858 112.392 40.1462 112.623 39.4153C112.892 38.6843 113.219 37.9726 113.604 37.28C113.988 36.5875 114.392 35.9335 114.816 35.318C115.277 34.7024 115.7 34.2023 116.085 33.8175C116.893 32.9327 117.816 32.1825 118.855 31.5669C119.894 30.9513 121.01 30.5858 122.202 30.4704C122.279 30.1626 122.395 29.8164 122.549 29.4317C122.702 29.0085 122.972 28.7584 123.356 28.6815C123.549 28.643 123.741 28.6045 123.934 28.566C124.126 28.5276 124.299 28.4699 124.453 28.3929C124.568 28.316 124.684 28.316 124.799 28.3929C124.915 28.4314 124.934 28.5276 124.857 28.6815C124.588 29.1047 124.376 29.6433 124.222 30.2973C124.107 30.9513 124.049 31.6631 124.049 32.4325C124.049 33.5097 124.241 34.3946 124.626 35.0871C125.049 35.7796 125.761 36.1259 126.761 36.1259C127.762 36.1259 128.666 35.7989 129.474 35.1448C130.281 34.4908 130.955 33.7791 131.493 33.0096C131.57 32.8172 131.686 32.7595 131.84 32.8365C132.032 32.9134 132.051 33.0288 131.897 33.1827ZM122.375 33.5867C122.298 33.2404 122.241 32.8365 122.202 32.3748C122.164 31.9131 122.145 31.4707 122.145 31.0475C122.145 30.8551 122.068 30.759 121.914 30.759C121.491 30.759 121.048 30.9129 120.586 31.2206C120.125 31.4899 119.663 31.8747 119.201 32.3748C118.74 32.8365 118.278 33.3751 117.816 33.9907C117.355 34.6062 116.932 35.241 116.547 35.895C116.047 36.7414 115.585 37.6648 115.162 38.6651C114.777 39.6269 114.604 40.5502 114.642 41.4351C114.642 41.7044 114.681 41.9544 114.758 42.1853C114.873 42.4161 115.104 42.5315 115.45 42.5315C116.104 42.5315 116.816 42.166 117.586 41.4351C118.355 40.7041 119.086 39.8577 119.778 38.8959C120.471 37.8956 121.048 36.8953 121.51 35.895C122.01 34.8948 122.298 34.1253 122.375 33.5867Z" fill="#F0F0F0"/>
<path d="M114.755 21.9294C114.447 22.0063 114.101 22.1602 113.716 22.391C113.331 22.5834 113.043 22.8335 112.851 23.1412C111.966 24.3724 111.1 25.6612 110.254 27.0077C109.446 28.3542 108.657 29.7008 107.888 31.0473H115.043C115.159 31.1243 115.217 31.2012 115.217 31.2782C115.217 31.3551 115.178 31.4128 115.101 31.4513C114.793 31.4513 114.332 31.4705 113.716 31.509C113.101 31.509 112.427 31.5282 111.696 31.5667C110.965 31.6052 110.215 31.6436 109.446 31.6821C108.676 31.7206 108.003 31.7591 107.426 31.7975C106.349 33.7212 105.522 35.3562 104.944 36.7028C104.367 38.0493 104.079 39.2227 104.079 40.223C104.079 41.608 104.714 42.3005 105.983 42.3005C106.599 42.3005 107.291 42.1466 108.061 41.8388C108.869 41.4926 109.715 41.0502 110.6 40.5115C110.715 40.3961 110.831 40.4154 110.946 40.5692C111.062 40.6847 111.023 40.7808 110.831 40.8578C109.523 41.7042 108.311 42.3197 107.195 42.7045C106.079 43.0892 104.944 43.2816 103.79 43.2816C103.175 43.2816 102.636 43.1084 102.174 42.7622C101.713 42.3775 101.482 41.7427 101.482 40.8578C101.482 40.0883 101.828 38.9534 102.521 37.453C103.213 35.9526 104.233 34.1059 105.579 31.9129C105.118 31.9514 104.54 32.0091 103.848 32.0861C103.194 32.1245 102.809 32.1438 102.694 32.1438C102.501 32.1438 102.405 32.0668 102.405 31.9129C102.559 31.6436 102.809 31.3743 103.155 31.105L106.099 31.0473C106.445 30.4702 106.83 29.8354 107.253 29.1429C107.676 28.412 108.099 27.7002 108.522 27.0077C108.946 26.2767 109.369 25.5842 109.792 24.9302C110.254 24.2377 110.658 23.6029 111.004 23.0258C111.427 22.8335 112.004 22.5834 112.735 22.2756C113.505 21.9678 114.178 21.7178 114.755 21.5254C114.832 21.5254 114.89 21.5831 114.928 21.6985C114.967 21.7755 114.909 21.8524 114.755 21.9294Z" fill="#F0F0F0"/>
<path d="M106.041 33.1827C105.387 34.0676 104.579 34.8755 103.617 35.6065C102.694 36.299 101.636 36.6453 100.443 36.6453C99.7893 36.6453 99.1353 36.4914 98.4813 36.1836C97.8657 35.8373 97.3656 35.3372 96.9809 34.6832C96.7115 35.2987 96.3653 36.0105 95.9421 36.8184C95.5189 37.5878 95.0188 38.3765 94.4417 39.1844C93.8646 39.9539 93.2106 40.6656 92.4796 41.3197C91.7871 41.9737 91.0369 42.5123 90.2289 42.9355C89.5364 43.2433 88.9593 43.3972 88.4977 43.3972C87.1127 43.3972 86.4202 42.7816 86.4202 41.5505C86.4202 40.858 86.5356 40.1462 86.7664 39.4153C87.0357 38.6843 87.3627 37.9726 87.7475 37.28C88.1322 36.5875 88.5362 35.9335 88.9593 35.318C89.421 34.7024 89.8442 34.2023 90.2289 33.8175C91.0369 32.9327 91.9602 32.1825 92.999 31.5669C94.0377 30.9513 95.1534 30.5858 96.3461 30.4704C96.423 30.1626 96.5384 29.8164 96.6923 29.4317C96.8462 29.0085 97.1155 28.7584 97.5002 28.6815C97.6926 28.643 97.885 28.6045 98.0773 28.566C98.2697 28.5276 98.4428 28.4699 98.5967 28.3929C98.7121 28.316 98.8275 28.316 98.9429 28.3929C99.0584 28.4314 99.0776 28.5276 99.0007 28.6815C98.7313 29.1047 98.5197 29.6433 98.3659 30.2973C98.2504 30.9513 98.1927 31.6631 98.1927 32.4325C98.1927 33.5097 98.3851 34.3946 98.7698 35.0871C99.193 35.7796 99.9048 36.1259 100.905 36.1259C101.905 36.1259 102.809 35.7989 103.617 35.1448C104.425 34.4908 105.099 33.7791 105.637 33.0096C105.714 32.8172 105.83 32.7595 105.983 32.8365C106.176 32.9134 106.195 33.0288 106.041 33.1827ZM96.5192 33.5867C96.4422 33.2404 96.3845 32.8365 96.3461 32.3748C96.3076 31.9131 96.2883 31.4707 96.2883 31.0475C96.2883 30.8551 96.2114 30.759 96.0575 30.759C95.6343 30.759 95.1919 30.9129 94.7302 31.2206C94.2685 31.4899 93.8069 31.8747 93.3452 32.3748C92.8835 32.8365 92.4219 33.3751 91.9602 33.9907C91.4985 34.6062 91.0753 35.241 90.6906 35.895C90.1905 36.7414 89.7288 37.6648 89.3056 38.6651C88.9209 39.6269 88.7477 40.5502 88.7862 41.4351C88.7862 41.7044 88.8247 41.9544 88.9016 42.1853C89.0171 42.4161 89.2479 42.5315 89.5941 42.5315C90.2482 42.5315 90.9599 42.166 91.7294 41.4351C92.4988 40.7041 93.2298 39.8577 93.9223 38.8959C94.6148 37.8956 95.1919 36.8953 95.6536 35.895C96.1537 34.8948 96.4422 34.1253 96.5192 33.5867Z" fill="#F0F0F0"/>
<path d="M110.416 1.73126C110.416 1.88515 110.378 2.15446 110.301 2.53918C110.262 2.9239 110.205 3.3471 110.128 3.80877C110.089 4.27044 110.031 4.73211 109.954 5.19378C109.916 5.65545 109.897 6.0017 109.897 6.23253C109.82 6.30948 109.724 6.34795 109.608 6.34795C109.531 6.34795 109.454 6.30948 109.377 6.23253C109.454 5.92476 109.493 5.65545 109.493 5.42461C109.531 5.19378 109.55 4.96294 109.55 4.73211C109.55 3.96266 109.223 3.36634 108.569 2.94314C107.954 2.51994 107.069 2.30835 105.915 2.30835C105.107 2.30835 104.261 2.443 103.376 2.71231C102.529 2.98161 101.644 3.46252 100.721 4.15502C99.8362 4.84753 98.8936 5.77087 97.8933 6.92504C96.9315 8.07921 95.9312 9.54117 94.8925 11.3109C94.3154 12.3112 93.6037 13.6 92.7573 15.1774C91.9109 16.7547 91.0068 18.4475 90.045 20.2557C89.0831 22.0255 88.1213 23.8529 87.1595 25.7381C86.1977 27.5847 85.3129 29.316 84.5049 30.9318C84.8512 30.9318 85.4283 30.9318 86.2362 30.9318C87.0441 30.8934 87.8713 30.8741 88.7177 30.8741C89.5641 30.8741 90.3335 30.8741 91.026 30.8741C91.757 30.8741 92.2379 30.8741 92.4687 30.8741C92.6611 30.9895 92.7188 31.1819 92.6418 31.4512C92.488 31.4512 92.1032 31.4512 91.4877 31.4512C90.8721 31.4512 90.1411 31.4704 89.2947 31.5089C88.4483 31.5089 87.5635 31.5282 86.6401 31.5666C85.7553 31.5666 84.9474 31.5666 84.2164 31.5666C82.9468 34.0289 81.6003 36.5103 80.1768 39.011C78.7918 41.4733 77.3875 43.8586 75.9641 46.1669C74.579 48.4753 73.194 50.6105 71.809 52.5726C70.4625 54.5731 69.2121 56.3236 68.058 57.8241C65.1725 61.5174 62.441 64.6337 59.8633 67.1729C57.2472 69.7505 54.7657 71.828 52.4189 73.4054C50.0721 75.0212 47.8792 76.1754 45.8401 76.8679C43.7626 77.5989 41.8005 77.9644 39.9538 77.9644C39.4152 77.9644 38.8381 77.9067 38.2226 77.7913C37.5686 77.6758 36.953 77.445 36.3759 77.0988C35.7604 76.7525 35.2217 76.2524 34.7601 75.5983C34.2984 74.9828 33.9521 74.1556 33.7213 73.1169C33.7213 72.8091 33.7598 72.6744 33.8367 72.7129C33.9137 72.7514 33.9906 72.8668 34.0676 73.0592C34.106 73.3285 34.2599 73.6747 34.5292 74.0979C34.7985 74.5596 35.2025 75.002 35.7411 75.4252C36.2413 75.8484 36.8761 76.1947 37.6455 76.464C38.4149 76.7717 39.3383 76.9256 40.4155 76.9256C42.1468 76.8872 44.0319 76.5602 46.071 75.9446C48.0715 75.3675 50.1875 74.3287 52.4189 72.8283C54.6503 71.3279 56.9971 69.3081 59.4594 66.7689C61.8831 64.2682 64.4031 61.0942 67.0192 57.247C68.4042 55.2079 69.7892 53.015 71.1742 50.6682C72.5208 48.3598 73.8288 46.0515 75.0984 43.7432C76.4065 41.4733 77.6184 39.2804 78.7341 37.1644C79.8882 35.0484 80.927 33.2017 81.8503 31.6243C80.196 31.7398 78.888 31.8552 77.9261 31.9706C76.9643 32.086 76.1949 32.2784 75.6178 32.5477C75.0407 32.7785 74.579 33.144 74.2328 33.6441C73.925 34.1058 73.5595 34.7598 73.1363 35.6062L72.9632 35.5485C73.5018 34.2789 74.0404 33.3364 74.579 32.7208C75.1177 32.0668 75.6178 31.6628 76.0795 31.5089C76.3872 31.432 76.7912 31.355 77.2913 31.2781C77.83 31.2011 78.3878 31.1434 78.9649 31.105C79.5805 31.0665 80.1768 31.028 80.7539 30.9895C81.331 30.9511 81.8311 30.9318 82.2543 30.9318C84.1779 27.3924 86.0246 24.1222 87.7943 21.1214C89.6025 18.082 91.4684 15.1197 93.3921 12.2342C94.4308 10.6569 95.5465 9.1372 96.7392 7.67525C97.9318 6.17483 99.1437 4.86676 100.375 3.75106C101.606 2.59689 102.818 1.69279 104.01 1.03875C105.242 0.346252 106.415 0 107.531 0C108.3 0 108.973 0.173126 109.55 0.519379C110.128 0.865629 110.416 1.26959 110.416 1.73126Z" fill="#F0F0F0"/>
</svg>
