<svg width="17" height="17" viewBox="0 0 17 17" fill="none" xmlns="http://www.w3.org/2000/svg">
<g clip-path="url(#clip0_10620_1316)">
<path d="M12.3012 17.0002C10.4179 17.0002 7.89183 16.1874 4.72026 13.4514C0.119639 9.48301 0.225889 5.46941 0.698701 3.42941C0.969639 2.25535 1.99761 1.43457 3.19292 1.43457H4.88761C5.00183 1.43457 5.10276 1.50895 5.13464 1.61785L6.19979 5.22504C6.22636 5.31535 6.20245 5.41363 6.13604 5.48004L4.89823 6.71785C5.04698 7.49082 6.04042 11.4593 10.8828 12.7661L11.8735 11.2946C11.9373 11.1989 12.0568 11.1591 12.1657 11.1936L15.842 12.3943C15.9482 12.4288 16.0199 12.5297 16.0199 12.6439L15.996 14.2908C15.9801 15.3347 15.332 16.275 14.3837 16.631C13.8126 16.8488 13.1167 17.0002 12.3012 17.0002ZM3.19292 1.95254C2.23667 1.95254 1.41589 2.60863 1.19808 3.54629C0.754483 5.47207 0.661514 9.27051 5.05761 13.061C9.41386 16.8169 12.4367 16.8143 14.2057 16.1502C14.9601 15.8686 15.4728 15.1169 15.4834 14.2855L15.5046 12.8272L12.1923 11.7461L11.2068 13.2071C11.1457 13.2974 11.0342 13.3399 10.9306 13.3133C5.17183 11.863 4.37229 6.72051 4.36698 6.67004C4.35636 6.59035 4.38292 6.50801 4.4387 6.45223L5.66323 5.2277L4.69636 1.95254H3.19292Z" fill="#252525"/>
<path d="M16.2669 8.21326C16.1553 8.21326 16.0544 8.14154 16.0199 8.02998C14.8777 4.17842 12.3463 1.64701 8.49735 0.504823C8.36188 0.464979 8.2822 0.321542 8.3247 0.186073C8.36454 0.0506043 8.50798 -0.0290832 8.6461 0.0134168C12.673 1.20873 15.3239 3.85701 16.5166 7.88389C16.5564 8.01935 16.4794 8.16279 16.3439 8.20529C16.3174 8.2106 16.2908 8.21326 16.2669 8.21326Z" fill="#252525"/>
<path d="M14.3226 8.53463C14.2111 8.53463 14.1101 8.46291 14.0756 8.35135C13.1804 5.33119 11.1936 3.34697 8.17606 2.45182C8.04059 2.41197 7.96091 2.26853 8.00341 2.13041C8.04325 1.99494 8.18669 1.91525 8.32216 1.95775C11.5203 2.90603 13.6214 5.00713 14.5697 8.20525C14.6095 8.34072 14.5325 8.48416 14.397 8.52666C14.3704 8.53197 14.3465 8.53463 14.3226 8.53463Z" fill="#252525"/>
<path d="M12.0648 8.44724C11.9532 8.44724 11.8523 8.37553 11.8178 8.26396C11.2706 6.41787 10.1071 5.25709 8.26371 4.7099C8.12824 4.67006 8.04855 4.52662 8.09105 4.39115C8.1309 4.25568 8.27433 4.17599 8.4098 4.21849C10.4073 4.81084 11.7195 6.12303 12.3118 8.12053C12.3517 8.25599 12.2746 8.39943 12.1392 8.43928C12.1126 8.44459 12.0887 8.44724 12.0648 8.44724Z" fill="#252525"/>
</g>
<defs>
<clipPath id="clip0_10620_1316">
<rect width="17" height="17" fill="white"/>
</clipPath>
</defs>
</svg>
