<svg width="57" height="45" viewBox="0 0 57 45" fill="none" xmlns="http://www.w3.org/2000/svg">
<rect x="57" y="23" width="13" height="2" transform="rotate(-180 57 23)" fill="#EC5805"/>
<circle cx="22.5" cy="22.5" r="22.5" transform="rotate(-180 22.5 22.5)" fill="#EC5805"/>
<path d="M7.46967 21.4697C7.17678 21.7626 7.17678 22.2374 7.46967 22.5303L12.2426 27.3033C12.5355 27.5962 13.0104 27.5962 13.3033 27.3033C13.5962 27.0104 13.5962 26.5355 13.3033 26.2426L9.06066 22L13.3033 17.7574C13.5962 17.4645 13.5962 16.9896 13.3033 16.6967C13.0104 16.4038 12.5355 16.4038 12.2426 16.6967L7.46967 21.4697ZM45 21.25L8 21.25L8 22.75L45 22.75L45 21.25Z" fill="black"/>
<path d="M7.46967 21.4697C7.17678 21.7626 7.17678 22.2374 7.46967 22.5303L12.2426 27.3033C12.5355 27.5962 13.0104 27.5962 13.3033 27.3033C13.5962 27.0104 13.5962 26.5355 13.3033 26.2426L9.06066 22L13.3033 17.7574C13.5962 17.4645 13.5962 16.9896 13.3033 16.6967C13.0104 16.4038 12.5355 16.4038 12.2426 16.6967L7.46967 21.4697ZM45 21.25L8 21.25L8 22.75L45 22.75L45 21.25Z" fill="black"/>
</svg>
 