<svg width="30" height="23" viewBox="0 0 30 23" fill="none" xmlns="http://www.w3.org/2000/svg">
<rect y="11.2446" width="6.64444" height="1.02222" fill="#EC5805"/>
<circle cx="17.6333" cy="11.5" r="11.5" fill="#EC5805"/>
<path d="M25.5747 12.2857C25.8676 11.9928 25.8676 11.5179 25.5747 11.225L20.8018 6.45207C20.5089 6.15918 20.034 6.15918 19.7411 6.45207C19.4482 6.74496 19.4482 7.21984 19.7411 7.51273L23.9838 11.7554L19.7411 15.998C19.4482 16.2909 19.4482 16.7658 19.7411 17.0587C20.034 17.3516 20.5089 17.3516 20.8018 17.0587L25.5747 12.2857ZM6.1333 12.5054L25.0444 12.5054L25.0444 11.0054L6.1333 11.0054L6.1333 12.5054Z" fill="#252525"/>
<path d="M25.5747 12.2857C25.8676 11.9928 25.8676 11.5179 25.5747 11.225L20.8018 6.45207C20.5089 6.15918 20.034 6.15918 19.7411 6.45207C19.4482 6.74496 19.4482 7.21984 19.7411 7.51273L23.9838 11.7554L19.7411 15.998C19.4482 16.2909 19.4482 16.7658 19.7411 17.0587C20.034 17.3516 20.5089 17.3516 20.8018 17.0587L25.5747 12.2857ZM6.1333 12.5054L25.0444 12.5054L25.0444 11.0054L6.1333 11.0054L6.1333 12.5054Z" fill="#252525"/>
</svg>
