<svg width="36" height="36" viewBox="0 0 36 36" fill="none" xmlns="http://www.w3.org/2000/svg">
<path d="M31.8888 3.07337L31.916 3.06274L31.9426 3.05055C32.2898 2.89111 32.4418 2.99698 32.4831 3.03737C32.5425 3.09554 32.7501 3.38926 32.5577 4.16957L32.5535 4.18655L32.55 4.20366L27.8326 26.6983L27.8319 26.7018C27.6941 27.3705 27.4849 27.4826 27.4653 27.4915C27.445 27.5008 27.2506 27.5721 26.7468 27.303L19.6171 21.9726L18.9292 21.4583L18.317 22.0606L18.1695 22.2057C16.5442 23.8047 15.1115 25.2143 14.8611 25.4623C14.6361 25.6846 14.545 25.7708 14.4482 25.8291C14.3946 25.8615 14.3205 25.8968 14.1556 25.9005C14.1548 25.8974 14.1539 25.8942 14.153 25.891C14.1136 25.7494 14.0583 25.5505 13.9786 25.3259L13.9707 25.3013L15.0922 25.1778L15.5756 19.9597L28.6214 8.04895C28.8255 7.8649 29.1453 7.51311 29.1639 7.00828C29.1745 6.7201 29.0808 6.43948 28.8946 6.21555C28.7212 6.0069 28.5082 5.89449 28.3362 5.8348C28.0045 5.71962 27.6623 5.7402 27.3923 5.79652C27.103 5.85685 26.8057 5.97641 26.5218 6.15066L26.5142 6.15531L26.5067 6.1601L10.9342 16.1019L10.4437 16.415L3.78037 14.3104L3.78037 14.3104L3.77531 14.3089C3.68175 14.2799 3.6047 14.2506 3.54189 14.2231C3.68206 14.1237 3.89263 14.0053 4.19401 13.8825L31.8888 3.07337ZM27.8274 7.75044C27.8273 7.7506 27.8245 7.75099 27.819 7.75112C27.8248 7.75034 27.8275 7.75028 27.8274 7.75044ZM27.2934 6.55276C27.2934 6.55276 27.2931 6.55312 27.2924 6.55385L27.2934 6.55276ZM3.3379 14.409C3.33785 14.4089 3.33836 14.4079 3.33964 14.406C3.3386 14.408 3.33796 14.409 3.3379 14.409Z" stroke="#F0F0F0" stroke-width="2"/>
</svg>
