<svg width="120" height="120" viewBox="0 0 120 120" fill="none" xmlns="http://www.w3.org/2000/svg">
<g clip-path="url(#clip0_10384_1353)">
<path d="M60 120C93.1371 120 120 93.1371 120 60C120 26.8629 93.1371 0 60 0C26.8629 0 0 26.8629 0 60C0 93.1371 26.8629 120 60 120Z" fill="url(#paint0_linear_10384_1353)"/>
<path d="M62.6357 54.1109V42.7943C62.6357 42.0719 62.6935 41.4324 62.7946 40.866H60.3073C60.4084 41.4323 60.4662 42.0719 60.4662 42.7943V54.1109H62.6357Z" fill="url(#paint1_linear_10384_1353)"/>
<path d="M57.1518 37.7784C56.753 37.5853 56.3588 37.5061 56.0031 37.5061C55.521 37.5061 55.1091 37.6515 54.8501 37.8566C54.6335 38.0286 54.4534 38.3695 54.5721 38.7098C54.6604 38.9626 55.1509 39.7878 57.7594 39.7878H58.892C58.4079 38.5833 57.6707 38.0294 57.1518 37.7784Z" fill="url(#paint2_linear_10384_1353)"/>
<path d="M42.118 38.7866L40.9791 34.5336L33.4122 30.168L35.9559 34.572C36.8713 34.3201 37.8776 34.7017 38.3733 35.5602C38.9622 36.5805 38.6103 37.8903 37.5888 38.4802C37.2526 38.6743 36.8851 38.7666 36.5224 38.7666C35.7832 38.7666 35.0639 38.3837 34.6689 37.6995C34.3834 37.2049 34.3079 36.6286 34.4565 36.0768C34.557 35.704 34.7534 35.3742 35.0218 35.1104L32.4783 30.707V39.4415L35.5918 42.5551L42.118 38.7866Z" fill="url(#paint3_linear_10384_1353)"/>
<path d="M50.8189 54.1109L44.0108 42.3196L41.3234 43.8714L47.2336 54.1109H50.8189Z" fill="url(#paint4_linear_10384_1353)"/>
<path d="M75.1511 54.1109L86.8041 33.9305L84.1159 32.3801L71.5706 54.1109H75.1511Z" fill="url(#paint5_linear_10384_1353)"/>
<path d="M68.5268 38.7099C68.6461 38.3693 68.4669 38.0281 68.2502 37.8552C67.8015 37.5003 66.8894 37.3235 65.9502 37.7783C65.4313 38.0293 64.6939 38.5833 64.2098 39.7877H65.3426C67.9472 39.7877 68.4384 38.9628 68.5268 38.7099Z" fill="url(#paint6_linear_10384_1353)"/>
<path d="M54.2819 48.8707C55.1212 50.2496 55.5118 51.6412 55.5118 53.2507V54.1108H59.388V42.7942C59.388 42.0512 59.322 41.4133 59.21 40.8659H57.7594C54.6471 40.8659 53.7888 39.7375 53.5541 39.0649C53.3 38.3362 53.5516 37.5111 54.1802 37.0118C55.0571 36.3177 56.4395 36.236 57.6213 36.8079C58.3594 37.165 59.4449 37.9791 60.039 39.7878H63.0629C63.657 37.9791 64.7425 37.165 65.4806 36.8078C66.6621 36.2362 68.0446 36.3178 68.9209 37.0111C69.5493 37.5123 69.7993 38.3376 69.5444 39.066C69.3092 39.7383 68.4506 40.8659 65.3426 40.8659H63.8919C63.7799 41.4132 63.7138 42.0511 63.7138 42.7942V54.1108H67.5901V53.2507C67.5901 51.6345 67.9809 50.2426 68.8202 48.8704C69.5944 47.6025 70.3373 46.5262 70.9929 45.5767C73 42.6693 74.326 40.7486 74.326 36.7796C74.326 29.7333 68.5951 24.0007 61.551 24.0007C54.5046 24.0007 48.7721 29.7333 48.7721 36.7796C48.7721 40.7464 50.0982 42.6663 52.1053 45.5722C52.762 46.5229 53.5062 47.6005 54.2819 48.8707Z" fill="url(#paint7_linear_10384_1353)"/>
<path d="M37.7037 45.9615L42.4094 54.1108H45.9889L40.3898 44.4104L37.7037 45.9615Z" fill="url(#paint8_linear_10384_1353)"/>
<path d="M76.396 54.1109H79.9791L90.4262 36.0193L87.738 34.469L76.396 54.1109Z" fill="url(#paint9_linear_10384_1353)"/>
<path d="M89.9876 29.4956L85.0989 31.7024L90.5217 34.8298L89.9876 29.4956Z" fill="url(#paint10_linear_10384_1353)"/>
<path d="M40.0494 55.189C40.0469 55.3035 40.0457 55.4182 40.0457 55.5329V58.5361C40.0457 59.1326 39.9116 59.6527 39.6235 60.1728L34.9855 68.6137C34.6506 69.2239 34.6612 69.944 35.0139 70.5398C35.367 71.1363 35.9945 71.4925 36.6925 71.4925H38.679C38.9767 71.4925 39.2181 71.7338 39.2181 72.0315V83.1542C39.2181 84.439 40.2634 85.4844 41.5483 85.4844H48.4733C50.3528 85.4844 51.8818 87.0134 51.8818 88.8929V92.9468L73.6737 92.9994L73.1007 80.6053C73.0342 79.1046 73.6434 77.7623 74.816 76.8249C74.8163 76.8246 74.8166 76.8245 74.8168 76.8242C80.0427 72.6607 83.1626 66.1909 83.1626 59.5175C83.1626 58.0629 83.0202 56.609 82.739 55.189H40.0494Z" fill="url(#paint11_linear_10384_1353)"/>
<path d="M34.9299 44.4984C34.8667 44.737 34.8995 44.9844 35.0222 45.1954C35.0226 45.196 35.023 45.1967 35.0234 45.1973C35.2775 45.6382 35.8439 45.7898 36.2855 45.5354L40.3088 43.2123C40.3118 43.2105 40.3141 43.208 40.3171 43.2062C40.3201 43.2045 40.3234 43.2037 40.3265 43.202L44.3531 40.8769C44.5659 40.7543 44.7182 40.555 44.7824 40.3159C44.8465 40.0765 44.8142 39.8275 44.6916 39.6145C44.5208 39.3182 44.209 39.1523 43.8885 39.1523C43.7311 39.1523 43.5716 39.1922 43.4255 39.2764L43.0422 39.4978C43.0203 39.5123 42.998 39.5261 42.9736 39.5374L35.3579 43.9349C35.146 44.0579 34.9937 44.258 34.9299 44.4984Z" fill="url(#paint12_linear_10384_1353)"/>
<path d="M37.0497 37.5465C37.5564 37.2538 37.7314 36.6045 37.4396 36.0992C37.2441 35.7606 36.8879 35.571 36.5218 35.571C36.3419 35.571 36.1597 35.6168 35.9929 35.713C35.9928 35.713 35.9927 35.7131 35.9926 35.7132C35.9924 35.7133 35.9922 35.7133 35.9921 35.7135C35.7467 35.8552 35.5712 36.0838 35.4975 36.3571C35.4239 36.6304 35.4612 36.9156 35.6025 37.1604C35.8943 37.6654 36.5434 37.8388 37.0497 37.5465Z" fill="url(#paint13_linear_10384_1353)"/>
</g>
<defs>
<linearGradient id="paint0_linear_10384_1353" x1="60" y1="0" x2="60" y2="120" gradientUnits="userSpaceOnUse">
<stop stop-color="#2C1B08"/>
<stop offset="1" stop-color="#1C0F0B"/>
</linearGradient>
<linearGradient id="paint1_linear_10384_1353" x1="61.5698" y1="40.0954" x2="60.8154" y2="54.8448" gradientUnits="userSpaceOnUse">
<stop stop-color="#DC6624"/>
<stop offset="0.659165" stop-color="#863203"/>
</linearGradient>
<linearGradient id="paint2_linear_10384_1353" x1="56.7462" y1="37.3734" x2="56.7334" y2="39.9208" gradientUnits="userSpaceOnUse">
<stop stop-color="#DC6624"/>
<stop offset="0.659165" stop-color="#863203"/>
</linearGradient>
<linearGradient id="paint3_linear_10384_1353" x1="37.3712" y1="29.4473" x2="37.2005" y2="43.2754" gradientUnits="userSpaceOnUse">
<stop stop-color="#DC6624"/>
<stop offset="0.659165" stop-color="#863203"/>
</linearGradient>
<linearGradient id="paint4_linear_10384_1353" x1="46.1431" y1="41.6336" x2="45.9861" y2="54.7967" gradientUnits="userSpaceOnUse">
<stop stop-color="#DC6624"/>
<stop offset="0.659165" stop-color="#863203"/>
</linearGradient>
<linearGradient id="paint5_linear_10384_1353" x1="79.3028" y1="31.1159" x2="78.9704" y2="55.3737" gradientUnits="userSpaceOnUse">
<stop stop-color="#DC6624"/>
<stop offset="0.659165" stop-color="#863203"/>
</linearGradient>
<linearGradient id="paint6_linear_10384_1353" x1="66.4204" y1="37.3731" x2="66.4076" y2="39.9207" gradientUnits="userSpaceOnUse">
<stop stop-color="#DC6624"/>
<stop offset="0.659165" stop-color="#863203"/>
</linearGradient>
<linearGradient id="paint7_linear_10384_1353" x1="61.7426" y1="22.2491" x2="61.3622" y2="55.8626" gradientUnits="userSpaceOnUse">
<stop stop-color="#DC6624"/>
<stop offset="0.659165" stop-color="#863203"/>
</linearGradient>
<linearGradient id="paint8_linear_10384_1353" x1="41.9091" y1="43.8461" x2="41.7873" y2="54.6752" gradientUnits="userSpaceOnUse">
<stop stop-color="#DC6624"/>
<stop offset="0.659165" stop-color="#863203"/>
</linearGradient>
<linearGradient id="paint9_linear_10384_1353" x1="83.5174" y1="33.3263" x2="83.2226" y2="55.2524" gradientUnits="userSpaceOnUse">
<stop stop-color="#DC6624"/>
<stop offset="0.659165" stop-color="#863203"/>
</linearGradient>
<linearGradient id="paint10_linear_10384_1353" x1="87.8514" y1="29.1853" x2="87.7951" y2="35.1403" gradientUnits="userSpaceOnUse">
<stop stop-color="#DC6624"/>
<stop offset="0.659165" stop-color="#863203"/>
</linearGradient>
<linearGradient id="paint11_linear_10384_1353" x1="59.3189" y1="52.9893" x2="59.0023" y2="95.2022" gradientUnits="userSpaceOnUse">
<stop stop-color="#DC6624"/>
<stop offset="0.659165" stop-color="#863203"/>
</linearGradient>
<linearGradient id="paint12_linear_10384_1353" x1="39.9317" y1="38.7738" x2="39.8859" y2="46.038" gradientUnits="userSpaceOnUse">
<stop stop-color="#DC6624"/>
<stop offset="0.659165" stop-color="#863203"/>
</linearGradient>
<linearGradient id="paint13_linear_10384_1353" x1="36.5368" y1="35.4479" x2="36.5141" y2="37.8118" gradientUnits="userSpaceOnUse">
<stop stop-color="#DC6624"/>
<stop offset="0.659165" stop-color="#863203"/>
</linearGradient>
<clipPath id="clip0_10384_1353">
<rect width="120" height="120" fill="white"/>
</clipPath>
</defs>
</svg>
