<svg width="120" height="120" viewBox="0 0 120 120" fill="none" xmlns="http://www.w3.org/2000/svg">
<g clip-path="url(#clip0_10384_1313)">
<path d="M60 120C93.1371 120 120 93.1371 120 60C120 26.8629 93.1371 0 60 0C26.8629 0 0 26.8629 0 60C0 93.1371 26.8629 120 60 120Z" fill="url(#paint0_linear_10384_1313)"/>
<path d="M48.5334 54.0667H50.8C51.1006 54.0667 51.3889 53.9473 51.6014 53.7347C51.814 53.5222 51.9334 53.2339 51.9334 52.9333V49.5333H47.4V52.9333C47.4 53.2339 47.5194 53.5222 47.732 53.7347C47.9445 53.9473 48.2328 54.0667 48.5334 54.0667Z" fill="#EC5805"/>
<path d="M80.3097 85.7819C80.0526 86.113 79.762 86.4168 79.4427 86.6885L81.7536 92.9366L82.6014 91.1811C82.8064 90.7663 83.1657 90.4484 83.6022 90.2952C84.0388 90.1421 84.5179 90.1659 84.9371 90.3617L86.6927 91.1947L84.7762 85.7875C84.0712 86.0933 83.3108 86.2507 82.5424 86.2497C81.774 86.2487 81.0139 86.0895 80.3097 85.7819Z" fill="url(#paint1_linear_10384_1313)"/>
<path d="M66.6905 85.783L64.774 91.1901L66.5205 90.3616C66.9405 90.1626 67.422 90.1367 67.8609 90.2896C68.2998 90.4425 68.661 90.7618 68.8665 91.1788L69.7131 92.932L72.0274 86.6749C71.7276 86.4156 71.4557 86.1258 71.2159 85.8102C70.4975 86.1059 69.7274 86.2558 68.9505 86.2511C68.1736 86.2464 67.4053 86.0873 66.6905 85.783Z" fill="url(#paint2_linear_10384_1313)"/>
<path d="M59.0473 59.1666C59.4838 58.4049 60.0929 57.7562 60.8258 57.2727C61.5586 56.7893 62.3947 56.4846 63.2667 56.3832C63.3822 55.5026 63.6976 54.6602 64.1887 53.9202C64.6798 53.1803 65.3335 52.5624 66.1001 52.1139C67.2985 51.4196 68.7116 51.1939 70.0667 51.4804V47.788C68.8238 48.9109 67.2085 49.5328 65.5334 49.5333H54.2001V52.9333C54.2001 53.835 53.8418 54.6998 53.2042 55.3375C52.5666 55.9751 51.7018 56.3333 50.8001 56.3333H48.5334C47.6317 56.3333 46.7668 55.9751 46.1292 55.3375C45.4916 54.6998 45.1334 53.835 45.1334 52.9333V49.5333H33.8001C32.125 49.5328 30.5096 48.9109 29.2667 47.788V65.4C29.2667 65.7005 29.3861 65.9888 29.5987 66.2014C29.8112 66.4139 30.0995 66.5333 30.4001 66.5333H56.9473C57.3356 65.6424 57.9478 64.867 58.7243 64.2825C58.3833 63.4619 58.2351 62.5739 58.2911 61.687C58.3471 60.8001 58.6058 59.9379 59.0473 59.1666Z" fill="url(#paint3_linear_10384_1313)"/>
<path d="M75.7333 58.6C73.716 58.6 71.7439 59.1982 70.0665 60.319C68.3891 61.4398 67.0818 63.0328 66.3098 64.8966C65.5377 66.7604 65.3358 68.8113 65.7293 70.7899C66.1229 72.7685 67.0943 74.586 68.5208 76.0125C69.9473 77.439 71.7648 78.4104 73.7434 78.804C75.722 79.1976 77.7729 78.9956 79.6367 78.2235C81.5005 77.4515 83.0935 76.1442 84.2143 74.4668C85.3351 72.7894 85.9333 70.8173 85.9333 68.8C85.9303 66.0957 84.8547 63.503 82.9425 61.5908C81.0303 59.6786 78.4376 58.603 75.7333 58.6ZM80.0049 66.1264L74.3382 72.9264C74.2368 73.047 74.1116 73.1454 73.9704 73.2152C73.8292 73.285 73.675 73.3248 73.5177 73.3322H73.4667C73.3178 73.3326 73.1703 73.3034 73.0328 73.2464C72.8952 73.1894 72.7703 73.1057 72.6654 73.0001L71.5321 71.8668C71.3256 71.653 71.2114 71.3667 71.214 71.0696C71.2165 70.7724 71.3357 70.4882 71.5459 70.278C71.756 70.0679 72.0403 69.9487 72.3374 69.9461C72.6346 69.9436 72.9208 70.0578 73.1346 70.2642L73.3907 70.5204L78.2641 64.6724C78.4567 64.4412 78.7333 64.2961 79.033 64.2689C79.3327 64.2417 79.6309 64.3346 79.8621 64.5273C80.0932 64.72 80.2383 64.9966 80.2656 65.2963C80.2928 65.5959 80.1998 65.8942 80.0071 66.1253L80.0049 66.1264Z" fill="url(#paint4_linear_10384_1313)"/>
<path d="M91.3802 66.0925C90.9642 65.7829 90.6644 65.3426 90.5287 64.8421C90.3931 64.3416 90.4295 63.8101 90.6322 63.3328C90.8406 62.8494 90.9334 62.3241 90.9032 61.7985C90.873 61.2729 90.7206 60.7616 90.4582 60.3052C90.1958 59.8489 89.8306 59.46 89.3916 59.1695C88.9526 58.879 88.4518 58.6949 87.9292 58.6318C87.4115 58.5741 86.9288 58.3421 86.5604 57.9738C86.1919 57.6056 85.9596 57.123 85.9017 56.6054C85.8389 56.0827 85.655 55.5818 85.3647 55.1426C85.0744 54.7035 84.6857 54.3381 84.2293 54.0755C83.773 53.813 83.2617 53.6605 82.7361 53.6303C82.2106 53.6 81.6852 53.6928 81.2017 53.9012C80.7243 54.104 80.1926 54.1405 79.6919 54.0048C79.1913 53.8692 78.7507 53.5693 78.4409 53.1532C78.1256 52.7331 77.7167 52.3921 77.2468 52.1572C76.7769 51.9223 76.2587 51.8 75.7334 51.8C75.208 51.8 74.6899 51.9223 74.22 52.1572C73.75 52.3921 73.3412 52.7331 73.0259 53.1532C72.7163 53.5692 72.2759 53.8691 71.7754 54.0047C71.275 54.1403 70.7435 54.1039 70.2662 53.9012C69.7828 53.6928 69.2574 53.6 68.7318 53.6302C68.2062 53.6604 67.695 53.8128 67.2386 54.0752C66.7822 54.3376 66.3933 54.7028 66.1028 55.1419C65.8123 55.5809 65.6282 56.0816 65.5651 56.6042C65.5074 57.1219 65.2754 57.6046 64.9072 57.9731C64.5389 58.3415 64.0564 58.5738 63.5387 58.6318C63.016 58.6945 62.5152 58.8784 62.076 59.1687C61.6368 59.459 61.2714 59.8478 61.0089 60.3041C60.7463 60.7604 60.5939 61.2717 60.5636 61.7973C60.5334 62.3229 60.6261 62.8483 60.8346 63.3317C61.0373 63.8091 61.0738 64.3406 60.9384 64.8412C60.803 65.3418 60.5034 65.7824 60.0877 66.0925C59.6673 66.4077 59.3261 66.8165 59.0911 67.2864C58.8561 67.7564 58.7338 68.2746 58.7338 68.8C58.7338 69.3255 58.8561 69.8437 59.0911 70.3136C59.3261 70.7836 59.6673 71.1924 60.0877 71.5076C60.5034 71.8176 60.803 72.2583 60.9384 72.7589C61.0738 73.2595 61.0373 73.791 60.8346 74.2684C60.6261 74.7517 60.5333 75.277 60.5635 75.8026C60.5937 76.3281 60.7461 76.8393 61.0085 77.2956C61.2709 77.7519 61.6362 78.1407 62.0752 78.4311C62.5143 78.7214 63.015 78.9054 63.5376 78.9683C64.0553 79.026 64.538 79.258 64.9064 79.6263C65.2749 79.9945 65.5071 80.477 65.5651 80.9947C65.6279 81.5174 65.8117 82.0183 66.102 82.4574C66.3924 82.8966 66.7811 83.262 67.2374 83.5246C67.6938 83.7871 68.205 83.9396 68.7306 83.9698C69.2562 84.0001 69.7816 83.9073 70.2651 83.6988C70.7424 83.4957 71.2743 83.459 71.775 83.5947C72.2758 83.7303 72.7163 84.0305 73.0259 84.4468C73.3412 84.867 73.75 85.208 74.22 85.4429C74.6899 85.6778 75.208 85.8 75.7334 85.8C76.2587 85.8 76.7769 85.6778 77.2468 85.4429C77.7167 85.208 78.1256 84.867 78.4409 84.4468C78.7499 84.0301 79.1902 83.7296 79.6909 83.5939C80.1916 83.4582 80.7235 83.4952 81.2006 83.6988C81.684 83.9073 82.2094 84.0001 82.735 83.9699C83.2605 83.9397 83.7718 83.7873 84.2282 83.5249C84.6846 83.2625 85.0735 82.8973 85.364 82.4583C85.6545 82.0192 85.8386 81.5185 85.9017 80.9958C85.9594 80.4782 86.1914 79.9955 86.5596 79.627C86.9278 79.2586 87.4104 79.0263 87.9281 78.9683C88.4508 78.9056 88.9516 78.7217 89.3908 78.4314C89.83 78.1411 90.1954 77.7523 90.4579 77.296C90.7204 76.8397 90.8729 76.3284 90.9032 75.8028C90.9334 75.2772 90.8406 74.7518 90.6322 74.2684C90.4294 73.7909 90.393 73.2592 90.5286 72.7586C90.6642 72.2579 90.9641 71.8174 91.3802 71.5076C91.8004 71.1922 92.1414 70.7834 92.3763 70.3135C92.6111 69.8435 92.7334 69.3254 92.7334 68.8C92.7334 68.2747 92.6111 67.7565 92.3763 67.2866C92.1414 66.8167 91.8004 66.4079 91.3802 66.0925ZM75.7334 81.2667C73.2677 81.2667 70.8574 80.5356 68.8073 79.1657C66.7571 77.7958 65.1593 75.8488 64.2157 73.5708C63.2721 71.2929 63.0252 68.7862 63.5063 66.3679C63.9873 63.9496 65.1746 61.7283 66.9181 59.9848C68.6616 58.2413 70.883 57.054 73.3013 56.5729C75.7196 56.0919 78.2262 56.3388 80.5042 57.2824C82.7822 58.2259 84.7292 59.8238 86.099 61.8739C87.4689 63.9241 88.2001 66.3344 88.2001 68.8C88.1962 72.1052 86.8815 75.2739 84.5443 77.611C82.2072 79.9481 79.0386 81.2628 75.7334 81.2667Z" fill="url(#paint5_linear_10384_1313)"/>
<path d="M33.8001 47.2666H65.5334C66.7357 47.2666 67.8888 46.789 68.7389 45.9388C69.5891 45.0887 70.0667 43.9356 70.0667 42.7333V37.0666C70.0667 36.766 69.9473 36.4778 69.7348 36.2652C69.5222 36.0527 69.234 35.9333 68.9334 35.9333H57.6001V33.6666C57.6001 32.7649 57.2418 31.9001 56.6042 31.2624C55.9666 30.6248 55.1018 30.2666 54.2001 30.2666H45.1334C44.2317 30.2666 43.3669 30.6248 42.7292 31.2624C42.0916 31.9001 41.7334 32.7649 41.7334 33.6666V35.9333H30.4001C30.0995 35.9333 29.8112 36.0527 29.5987 36.2652C29.3861 36.4778 29.2667 36.766 29.2667 37.0666V42.7333C29.2667 43.9356 29.7443 45.0887 30.5945 45.9388C31.4447 46.789 32.5977 47.2666 33.8001 47.2666ZM44.0001 33.6666C44.0001 33.366 44.1195 33.0778 44.332 32.8652C44.5445 32.6527 44.8328 32.5333 45.1334 32.5333H54.2001C54.5006 32.5333 54.7889 32.6527 55.0014 32.8652C55.214 33.0778 55.3334 33.366 55.3334 33.6666V35.9333H44.0001V33.6666Z" fill="url(#paint6_linear_10384_1313)"/>
</g>
<defs>
<linearGradient id="paint0_linear_10384_1313" x1="60" y1="0" x2="60" y2="120" gradientUnits="userSpaceOnUse">
<stop stop-color="#2C1B08"/>
<stop offset="1" stop-color="#1C0F0B"/>
</linearGradient>
<linearGradient id="paint1_linear_10384_1313" x1="83.1226" y1="85.3656" x2="83.0469" y2="93.3531" gradientUnits="userSpaceOnUse">
<stop stop-color="#DC6624"/>
<stop offset="0.659165" stop-color="#863203"/>
</linearGradient>
<linearGradient id="paint2_linear_10384_1313" x1="68.4557" y1="85.3671" x2="68.3801" y2="93.3482" gradientUnits="userSpaceOnUse">
<stop stop-color="#DC6624"/>
<stop offset="0.659165" stop-color="#863203"/>
</linearGradient>
<linearGradient id="paint3_linear_10384_1313" x1="49.9758" y1="46.6974" x2="49.8835" y2="67.6261" gradientUnits="userSpaceOnUse">
<stop stop-color="#DC6624"/>
<stop offset="0.659165" stop-color="#863203"/>
</linearGradient>
<linearGradient id="paint4_linear_10384_1313" x1="75.8879" y1="57.4132" x2="75.6691" y2="80.1876" gradientUnits="userSpaceOnUse">
<stop stop-color="#DC6624"/>
<stop offset="0.659165" stop-color="#863203"/>
</linearGradient>
<linearGradient id="paint5_linear_10384_1313" x1="75.9911" y1="49.8221" x2="75.6266" y2="87.7795" gradientUnits="userSpaceOnUse">
<stop stop-color="#DC6624"/>
<stop offset="0.659165" stop-color="#863203"/>
</linearGradient>
<linearGradient id="paint6_linear_10384_1313" x1="49.9758" y1="29.2776" x2="49.8999" y2="48.2578" gradientUnits="userSpaceOnUse">
<stop stop-color="#DC6624"/>
<stop offset="0.659165" stop-color="#863203"/>
</linearGradient>
<clipPath id="clip0_10384_1313">
<rect width="120" height="120" fill="white"/>
</clipPath>
</defs>
</svg>
