<svg width="120" height="120" viewBox="0 0 120 120" fill="none" xmlns="http://www.w3.org/2000/svg">
<g clip-path="url(#clip0_10384_1282)">
<path d="M60 120C93.1371 120 120 93.1371 120 60C120 26.8629 93.1371 0 60 0C26.8629 0 0 26.8629 0 60C0 93.1371 26.8629 120 60 120Z" fill="url(#paint0_linear_10384_1282)" fill-opacity="0.5"/>
<path d="M92.8125 37.7812V71.1562C92.8125 71.25 92.7422 71.3203 92.6484 71.3203H88.875V43.3125C88.875 42.3516 88.1016 41.5781 87.1406 41.5781H38.2266V37.7812C38.2266 37.6875 38.2969 37.6172 38.3906 37.6172H92.6484C92.7422 37.6172 92.8125 37.6875 92.8125 37.7812Z" fill="url(#paint1_linear_10384_1282)"/>
<path d="M87.3047 72.0938V76.6875C87.3047 76.7812 87.2344 76.8516 87.1406 76.8516H83.3438V70.0547V48.8437C83.3438 47.8828 82.5703 47.1094 81.6094 47.1094H32.6953V43.3125C32.6953 43.2187 32.7656 43.1484 32.8594 43.1484H37.4297H87.1172C87.2109 43.1484 87.2812 43.2187 87.2812 43.3125L87.3047 72.0938Z" fill="url(#paint2_linear_10384_1282)"/>
<path d="M81.7734 77.625V81.0234L71.5547 68.9062L75.8672 63.7266C75.9375 63.6562 76.0313 63.6328 76.0781 63.6328C76.125 63.6328 76.1953 63.6562 76.2656 63.7266L81.75 70.3125V77.625H81.7734Z" fill="url(#paint3_linear_10384_1282)"/>
<path d="M80.8594 82.3828H44.8828L50.0625 76.1484L50.0859 76.125L62.5547 61.125C62.625 61.0312 62.7422 61.0312 62.7656 61.0312C62.8125 61.0312 62.8828 61.0547 62.9531 61.125L69.9141 69.375C69.9375 69.3984 69.9609 69.4453 69.9844 69.4688L80.8594 82.3828Z" fill="url(#paint4_linear_10384_1282)"/>
<path d="M49.4531 61.8516C51.1229 61.8516 52.4766 60.4979 52.4766 58.8281C52.4766 57.1583 51.1229 55.8047 49.4531 55.8047C47.7833 55.8047 46.4297 57.1583 46.4297 58.8281C46.4297 60.4979 47.7833 61.8516 49.4531 61.8516Z" fill="url(#paint5_linear_10384_1282)"/>
<path d="M41.2734 66.8203L48.4453 75.6562L42.8438 82.3828H28.0312L40.875 66.8203C40.9453 66.7266 41.0625 66.7266 41.0859 66.7266C41.1563 66.7266 41.2266 66.75 41.2734 66.8203Z" fill="url(#paint6_linear_10384_1282)"/>
<path d="M81.7734 48.8437V67.875L77.5078 62.7422C77.1797 62.3203 76.6641 62.0625 76.125 62.0625C75.5859 62.0391 75.0469 62.2969 74.6953 62.7188L70.5469 67.7109L64.1719 60.1641C63.8437 59.7422 63.3281 59.4844 62.7891 59.4844C62.25 59.4844 61.7109 59.7188 61.3594 60.1406L49.4766 74.4375L42.5156 65.8594C42.1875 65.4375 41.6719 65.1797 41.1328 65.1797C40.5703 65.1797 40.0547 65.4141 39.7031 65.8594L27.1875 81V48.8437C27.1875 48.75 27.2578 48.6562 27.3516 48.6562H31.9219H81.6094C81.7031 48.6797 81.7734 48.75 81.7734 48.8437ZM54.0469 58.8281C54.0469 56.2969 52.0078 54.2578 49.4766 54.2578C46.9453 54.2578 44.9063 56.2969 44.9063 58.8281C44.9063 61.3594 46.9453 63.3984 49.4766 63.3984C51.9844 63.3984 54.0469 61.3594 54.0469 58.8281Z" fill="url(#paint7_linear_10384_1282)"/>
</g>
<defs>
<linearGradient id="paint0_linear_10384_1282" x1="60" y1="0" x2="60" y2="120" gradientUnits="userSpaceOnUse">
<stop stop-color="#462804"/>
<stop offset="1" stop-color="#240F0A"/>
</linearGradient>
<linearGradient id="paint1_linear_10384_1282" x1="65.9331" y1="35.6565" x2="65.7099" y2="73.2846" gradientUnits="userSpaceOnUse">
<stop stop-color="#DC6624"/>
<stop offset="0.659165" stop-color="#863203"/>
</linearGradient>
<linearGradient id="paint2_linear_10384_1282" x1="60.4137" y1="41.1877" x2="60.1907" y2="78.8158" gradientUnits="userSpaceOnUse">
<stop stop-color="#DC6624"/>
<stop offset="0.659165" stop-color="#863203"/>
</linearGradient>
<linearGradient id="paint3_linear_10384_1282" x1="76.7415" y1="62.6211" x2="76.4242" y2="82.0325" gradientUnits="userSpaceOnUse">
<stop stop-color="#DC6624"/>
<stop offset="0.659165" stop-color="#863203"/>
</linearGradient>
<linearGradient id="paint4_linear_10384_1282" x1="63.1436" y1="59.7891" x2="63.0078" y2="83.6273" gradientUnits="userSpaceOnUse">
<stop stop-color="#DC6624"/>
<stop offset="0.659165" stop-color="#863203"/>
</linearGradient>
<linearGradient id="paint5_linear_10384_1282" x1="49.4989" y1="55.4529" x2="49.4341" y2="62.2036" gradientUnits="userSpaceOnUse">
<stop stop-color="#DC6624"/>
<stop offset="0.659165" stop-color="#863203"/>
</linearGradient>
<linearGradient id="paint6_linear_10384_1282" x1="38.3929" y1="65.8158" x2="38.2642" y2="83.2949" gradientUnits="userSpaceOnUse">
<stop stop-color="#DC6624"/>
<stop offset="0.659165" stop-color="#863203"/>
</linearGradient>
<linearGradient id="paint7_linear_10384_1282" x1="54.894" y1="46.7746" x2="54.6885" y2="82.8851" gradientUnits="userSpaceOnUse">
<stop stop-color="#DC6624"/>
<stop offset="0.659165" stop-color="#863203"/>
</linearGradient>
<clipPath id="clip0_10384_1282">
<rect width="120" height="120" fill="white"/>
</clipPath>
</defs>
</svg>
