<svg width="120" height="120" viewBox="0 0 120 120" fill="none" xmlns="http://www.w3.org/2000/svg">
<g clip-path="url(#clip0_10384_1260)">
<path d="M60 120C93.1371 120 120 93.1371 120 60C120 26.8629 93.1371 0 60 0C26.8629 0 0 26.8629 0 60C0 93.1371 26.8629 120 60 120Z" fill="url(#paint0_linear_10384_1260)"/>
<path d="M88.3828 52.0312C90.4687 55.6406 90.6094 57.5625 90.0703 58.1016C89.5312 58.6406 87.6328 58.5234 84 56.4141C83.5312 56.1328 83.0156 55.8281 82.5 55.4766C82.5 55.4531 82.4765 55.4531 82.4765 55.4531C82.4062 55.3828 82.289 55.3125 82.1953 55.2656C79.1953 53.2734 75.8906 50.5078 72.6797 47.2969C69.4453 44.0859 66.6562 40.7578 64.6875 37.7344C64.664 37.6406 64.5937 37.5469 64.5234 37.4766C64.1953 36.9609 63.8906 36.4453 63.5859 35.9766C61.5 32.3672 61.3594 30.4453 61.8984 29.9062C62.0625 29.7422 62.3672 29.625 62.8125 29.625C63.7969 29.625 65.4609 30.1406 67.9453 31.5703C71.3906 33.5625 75.3984 36.7969 79.2656 40.6641C83.1562 44.5781 86.3906 48.5859 88.3828 52.0312Z" fill="url(#paint1_linear_10384_1260)"/>
<path d="M67.9688 70.7578C69.75 75.1172 70.2891 77.8828 68.3438 79.8047C66.7031 81.4453 64.2656 81.75 61.0781 80.6953C57.9609 79.664 54.3047 77.3906 50.4844 74.0625C50.4609 74.0391 50.4609 74.039 50.4375 74.039C49.7813 73.4765 48.75 72.539 48.0938 71.9062C47.4141 71.2265 46.4063 70.0781 45.9609 69.6094C45.9375 69.5859 45.9375 69.5859 45.9375 69.5859C45.9375 69.5859 45.9141 69.5625 45.9141 69.5391C42.5859 65.7422 40.2891 62.0625 39.2813 58.9453C38.25 55.7578 38.5547 53.3203 40.1719 51.6797C42.1172 49.7344 44.8828 50.2734 49.2188 52.0547C48.2344 54.8672 51.5625 60.2109 55.6875 64.3359C59.2969 67.9453 63.8906 70.9687 66.8672 70.9687C67.2656 70.9219 67.6406 70.875 67.9688 70.7578Z" fill="url(#paint2_linear_10384_1260)"/>
<path d="M48.7266 74.625L29.6484 90.3281L45.3516 71.25C45.8438 71.8125 46.4766 72.4922 46.9922 72.9844C47.4609 73.4766 48.1172 74.0859 48.7266 74.625Z" fill="url(#paint3_linear_10384_1260)"/>
<path d="M80.6953 56.1328L67.8047 69.0469C67.5937 69.2578 67.2656 69.3516 66.8438 69.3516C64.9453 69.3516 61.0547 67.4063 56.8125 63.1641C51.6562 58.0547 49.8984 53.4375 50.8594 52.2656C50.8828 52.2422 50.9063 52.2422 50.9297 52.1953L63.8437 39.2812C65.9062 42.2578 68.6484 45.4453 71.5781 48.3984C74.625 51.4453 77.7656 54.1406 80.6953 56.1328Z" fill="url(#paint4_linear_10384_1260)"/>
</g>
<defs>
<linearGradient id="paint0_linear_10384_1260" x1="60" y1="0" x2="60" y2="120" gradientUnits="userSpaceOnUse">
<stop stop-color="#2C1B08"/>
<stop offset="1" stop-color="#1C0F0B"/>
</linearGradient>
<linearGradient id="paint1_linear_10384_1260" x1="76.2018" y1="27.9525" x2="75.8931" y2="60.0476" gradientUnits="userSpaceOnUse">
<stop stop-color="#DC6624"/>
<stop offset="0.659165" stop-color="#863203"/>
</linearGradient>
<linearGradient id="paint2_linear_10384_1260" x1="54.3627" y1="48.6536" x2="54.0321" y2="83.1071" gradientUnits="userSpaceOnUse">
<stop stop-color="#DC6624"/>
<stop offset="0.659165" stop-color="#863203"/>
</linearGradient>
<linearGradient id="paint3_linear_10384_1260" x1="39.332" y1="70.1401" x2="39.1275" y2="91.4388" gradientUnits="userSpaceOnUse">
<stop stop-color="#DC6624"/>
<stop offset="0.659165" stop-color="#863203"/>
</linearGradient>
<linearGradient id="paint4_linear_10384_1260" x1="65.8797" y1="37.5319" x2="65.5575" y2="71.1022" gradientUnits="userSpaceOnUse">
<stop stop-color="#DC6624"/>
<stop offset="0.659165" stop-color="#863203"/>
</linearGradient>
<clipPath id="clip0_10384_1260">
<rect width="120" height="120" fill="white"/>
</clipPath>
</defs>
</svg>
