<svg width="120" height="120" viewBox="0 0 120 120" fill="none" xmlns="http://www.w3.org/2000/svg">
<g clip-path="url(#clip0_10384_1270)">
<path d="M60 120C93.1371 120 120 93.1371 120 60C120 26.8629 93.1371 0 60 0C26.8629 0 0 26.8629 0 60C0 93.1371 26.8629 120 60 120Z" fill="url(#paint0_linear_10384_1270)"/>
<path d="M82.6172 65.7656L92.2969 86.1563L76.4297 79.0078L68.8125 58.9922L82.6172 65.7656Z" fill="url(#paint1_linear_10384_1270)"/>
<path d="M67.2422 59.2266L74.8359 79.1953L60.6328 86.5312C60.2578 86.7188 59.7891 86.7188 59.3906 86.5312L45.1875 79.1953L52.7812 59.2031L57.0469 66.5859C54.3984 67.1953 52.7344 68.5547 52.7344 70.1953C52.7344 72.4453 55.875 74.1328 60.0234 74.1328C64.1719 74.1328 67.3125 72.4453 67.3125 70.1953C67.3125 68.5781 65.625 67.1953 63 66.5859L67.2422 59.2266Z" fill="url(#paint2_linear_10384_1270)"/>
<path d="M70.1953 39.2109C72.3281 42.9141 72.3281 47.2969 70.1953 50.9766L66.7734 56.9062C66.7031 56.9766 66.6562 57.0703 66.6328 57.1641L61.125 66.6797C61.1016 66.7266 61.0547 66.75 61.0547 66.7969L60.0234 68.625L58.9688 66.8203C58.9453 66.7734 58.9219 66.75 58.8984 66.7031L53.2969 57.0234L49.8047 51C47.6719 47.2969 47.6719 42.9141 49.8047 39.2344C51.9375 35.5312 55.7344 33.3516 60 33.3516C64.2656 33.3047 68.0625 35.5312 70.1953 39.2109ZM67.5469 44.6484C67.5469 40.5 64.1484 37.1016 60 37.1016C55.8516 37.1016 52.4531 40.5 52.4531 44.6484C52.4531 48.7969 55.8516 52.1953 60 52.1953C64.1484 52.1953 67.5469 48.7969 67.5469 44.6484Z" fill="url(#paint3_linear_10384_1270)"/>
<path d="M62.1563 67.9922C64.4063 68.4141 65.7187 69.3984 65.7187 70.1953C65.7187 71.3203 63.2578 72.5859 60 72.5859C56.7187 72.5859 54.2812 71.3203 54.2812 70.1953C54.2812 69.4219 55.5234 68.4141 57.8437 67.9922L59.3203 70.5703C59.4609 70.8281 59.7187 70.9687 60 70.9687C60.2812 70.9687 60.5391 70.8281 60.6797 70.5703L62.1563 67.9922Z" fill="url(#paint4_linear_10384_1270)"/>
<path d="M60 38.6484C63.3047 38.6484 65.9766 41.3203 65.9766 44.6484C65.9766 47.9766 63.2813 50.625 60 50.625C56.6953 50.625 54 47.9297 54 44.6484C54 41.3672 56.6953 38.6484 60 38.6484Z" fill="url(#paint5_linear_10384_1270)"/>
<path d="M51.1875 58.9688L43.5703 79.0078L27.7031 86.1328L37.3828 65.7656L51.1875 58.9688Z" fill="url(#paint6_linear_10384_1270)"/>
</g>
<defs>
<linearGradient id="paint0_linear_10384_1270" x1="60" y1="0" x2="60" y2="120" gradientUnits="userSpaceOnUse">
<stop stop-color="#2C1B08"/>
<stop offset="1" stop-color="#1C0F0B"/>
</linearGradient>
<linearGradient id="paint1_linear_10384_1270" x1="80.7326" y1="57.4119" x2="80.3957" y2="87.7367" gradientUnits="userSpaceOnUse">
<stop stop-color="#DC6624"/>
<stop offset="0.659165" stop-color="#863203"/>
</linearGradient>
<linearGradient id="paint2_linear_10384_1270" x1="60.2363" y1="57.6051" x2="59.9634" y2="88.2714" gradientUnits="userSpaceOnUse">
<stop stop-color="#DC6624"/>
<stop offset="0.659165" stop-color="#863203"/>
</linearGradient>
<linearGradient id="paint3_linear_10384_1270" x1="60.1787" y1="31.2987" x2="59.6132" y2="70.6741" gradientUnits="userSpaceOnUse">
<stop stop-color="#DC6624"/>
<stop offset="0.659165" stop-color="#863203"/>
</linearGradient>
<linearGradient id="paint4_linear_10384_1270" x1="60.0866" y1="67.7249" x2="60.0669" y2="72.8538" gradientUnits="userSpaceOnUse">
<stop stop-color="#DC6624"/>
<stop offset="0.659165" stop-color="#863203"/>
</linearGradient>
<linearGradient id="paint5_linear_10384_1270" x1="60.079" y1="37.9517" x2="59.9506" y2="51.3223" gradientUnits="userSpaceOnUse">
<stop stop-color="#DC6624"/>
<stop offset="0.659165" stop-color="#863203"/>
</linearGradient>
<linearGradient id="paint6_linear_10384_1270" x1="39.6232" y1="57.3885" x2="39.2863" y2="87.7133" gradientUnits="userSpaceOnUse">
<stop stop-color="#DC6624"/>
<stop offset="0.659165" stop-color="#863203"/>
</linearGradient>
<clipPath id="clip0_10384_1270">
<rect width="120" height="120" fill="white"/>
</clipPath>
</defs>
</svg>
